<?xml version="1.0" encoding="utf-8"?>
<!-- Generator: Adobe Illustrator 25.0.1, SVG Export Plug-In . SVG Version: 6.00 Build 0)  -->
<svg version="1.1" id="Layer_1" xmlns="http://www.w3.org/2000/svg" xmlns:xlink="http://www.w3.org/1999/xlink" x="0px" y="0px"
	 viewBox="0 0 699.9 146.4" style="enable-background:new 0 0 699.9 146.4;" xml:space="preserve">
<style type="text/css">
	.st0{fill:none;stroke:#010101;stroke-width:0.4;stroke-miterlimit:11.34;}
	.st1{fill:none;stroke:#231F20;stroke-width:0.4;stroke-miterlimit:10;}
</style>
<path class="st0" d="M13,0h674c7,0,12.8,5.7,12.8,12.8v120.4c0,7-5.7,12.8-12.8,12.8H13c-7,0-12.8-5.7-12.8-12.8V12.8
	C0.2,5.7,6,0,13,0z"/>
<polygon class="st1" points="16.3,127.6 9.7,127.6 6.4,133.2 9.7,138.9 16.3,138.9 19.5,133.2 "/>
<polygon class="st1" points="16.3,7.1 9.7,7.1 6.4,12.8 9.7,18.5 16.3,18.5 19.5,12.8 "/>
<polygon class="st1" points="690.3,127.6 683.7,127.6 680.4,133.2 683.7,138.9 690.3,138.9 693.5,133.2 "/>
<polygon class="st1" points="690.3,7.1 683.7,7.1 680.4,12.8 683.7,18.5 690.3,18.5 693.5,12.8 "/>
</svg>
