<?xml version="1.0" encoding="utf-8"?>
<!-- Generator: Adobe Illustrator 25.0.1, SVG Export Plug-In . SVG Version: 6.00 Build 0)  -->
<svg version="1.1" id="Layer_1" xmlns="http://www.w3.org/2000/svg" xmlns:xlink="http://www.w3.org/1999/xlink" x="0px" y="0px"
	 viewBox="0 0 1036.9 402.4" style="enable-background:new 0 0 1036.9 402.4;" xml:space="preserve">
<style type="text/css">
	.st0{fill:none;stroke:#000000;stroke-width:0.4;stroke-miterlimit:10;}
	.st1{fill:none;stroke:#000000;stroke-width:0.3997;stroke-miterlimit:10;}
	.st2{display:none;fill:none;stroke:#000000;stroke-width:0.4;stroke-miterlimit:10;}
	.st3{display:none;fill:none;stroke:#000000;stroke-width:0.3997;stroke-miterlimit:10;}
	.st4{display:none;fill:none;stroke:#000000;stroke-width:0.4;stroke-miterlimit:10.0003;}
	.st5{display:none;fill:none;stroke:#000000;stroke-width:0.3997;stroke-miterlimit:9.9995;}
	.st6{fill:none;stroke:#000000;stroke-width:0.4;stroke-miterlimit:11.3408;}
</style>
<polygon class="st0" points="319.4,64.6 262.6,44.7 237.4,48.3 247.8,121.3 273.1,117.7 294.2,266.6 269,270.2 279.4,343.2 
	304.6,339.5 319.5,336 420.8,336 435.7,339.5 461,343.2 471.4,270.2 446.1,266.6 467.3,117.7 492.5,121.3 503,48.3 477.7,44.7 
	420.8,64.6 "/>
<rect x="317.2" y="73.1" class="st1" width="4.3" height="17"/>
<rect x="317.2" y="107.1" class="st1" width="4.3" height="17"/>
<rect x="317.2" y="141.1" class="st1" width="4.3" height="17"/>
<rect x="317.2" y="175.1" class="st1" width="4.3" height="17"/>
<rect x="317.2" y="209.2" class="st1" width="4.3" height="17"/>
<rect x="317.2" y="243.2" class="st1" width="4.3" height="17"/>
<rect x="317.2" y="277.2" class="st1" width="4.3" height="17"/>
<rect x="317.2" y="311.2" class="st1" width="4.3" height="17"/>
<rect x="418.7" y="73.1" class="st1" width="4.3" height="17"/>
<rect x="418.7" y="107.1" class="st1" width="4.3" height="17"/>
<rect x="418.7" y="141.1" class="st1" width="4.3" height="17"/>
<rect x="418.7" y="175.1" class="st1" width="4.3" height="17"/>
<rect x="418.7" y="209.2" class="st1" width="4.3" height="17"/>
<rect x="418.7" y="243.2" class="st1" width="4.3" height="17"/>
<rect x="418.7" y="277.2" class="st1" width="4.3" height="17"/>
<rect x="418.7" y="311.2" class="st1" width="4.3" height="17"/>
<polyline class="st2" points="378.9,64.6 322.1,44.8 364.1,339.5 379,336 "/>
<polyline class="st2" points="480.5,64.6 537.2,44.8 495.2,339.5 480.3,336 "/>
<rect x="333.5" y="268.1" transform="matrix(0.99 -0.1414 0.1414 0.99 -39.6421 52.0236)" class="st2" width="25.5" height="73.7"/>
<rect x="302" y="46.2" transform="matrix(0.99 -0.1414 0.1414 0.99 -8.5814 45.341)" class="st2" width="25.5" height="73.7"/>
<rect x="476.1" y="292.1" transform="matrix(0.1414 -0.99 0.99 0.1414 138.7007 769.5443)" class="st2" width="73.7" height="25.5"/>
<rect x="507.8" y="70.2" transform="matrix(0.1414 -0.99 0.99 0.1414 385.5068 610.4605)" class="st2" width="73.7" height="25.5"/>
<rect x="379" y="64.6" class="st2" width="101.3" height="271.4"/>
<rect x="250.7" y="57.7" transform="matrix(0.99 -0.1414 0.1414 0.99 -6.8203 36.4179)" class="st1" width="4.3" height="17"/>
<rect x="255.5" y="91.3" transform="matrix(0.99 -0.1414 0.1414 0.99 -11.5229 37.4341)" class="st1" width="4.3" height="17"/>
<rect x="350.1" y="278.3" transform="matrix(0.99 -0.1414 0.1414 0.99 -37.0151 52.6897)" class="st3" width="4.3" height="17"/>
<rect x="354.9" y="312" transform="matrix(0.99 -0.1414 0.1414 0.99 -41.7321 53.7069)" class="st3" width="4.3" height="17"/>
<rect x="498.6" y="284.5" transform="matrix(0.1414 -0.99 0.99 0.1414 151.6417 748.0872)" class="st3" width="17" height="4.3"/>
<rect x="493.8" y="318.2" transform="matrix(0.1414 -0.99 0.99 0.1414 114.1592 772.3162)" class="st3" width="17" height="4.3"/>
<rect x="530.1" y="62.7" transform="matrix(0.1414 -0.99 0.99 0.1414 398.2751 588.8981)" class="st3" width="17" height="4.3"/>
<rect x="525.3" y="96.3" transform="matrix(0.1414 -0.99 0.99 0.1414 360.8155 612.9546)" class="st3" width="17" height="4.3"/>
<line class="st2" x1="322.1" y1="44.7" x2="332.6" y2="117.7"/>
<rect x="314.7" y="45.3" transform="matrix(0.9899 -0.142 0.142 0.9899 -8.4125 46.4293)" class="st4" width="12.8" height="73.7"/>
<line class="st5" x1="309.5" y1="46.5" x2="320" y2="119.5"/>
<rect x="282.3" y="279.6" transform="matrix(0.99 -0.1414 0.1414 0.99 -37.879 43.1158)" class="st1" width="4.3" height="17"/>
<rect x="287" y="313.2" transform="matrix(0.99 -0.1414 0.1414 0.99 -42.5846 44.1182)" class="st1" width="4.3" height="17"/>
<rect x="346.2" y="267.1" transform="matrix(0.9899 -0.142 0.142 0.9899 -39.5911 53.1474)" class="st4" width="12.8" height="73.7"/>
<rect x="479" y="64.1" transform="matrix(0.1414 -0.99 0.99 0.1414 352.9589 539.4524)" class="st1" width="17" height="4.3"/>
<rect x="474.2" y="97.6" transform="matrix(0.1414 -0.99 0.99 0.1414 315.6829 563.4994)" class="st1" width="17" height="4.3"/>
<rect x="501.3" y="75.7" transform="matrix(0.142 -0.9899 0.9899 0.142 380.494 603.163)" class="st4" width="73.7" height="12.8"/>
<rect x="447.3" y="285.9" transform="matrix(0.1414 -0.99 0.99 0.1414 106.2488 698.5762)" class="st1" width="17" height="4.3"/>
<rect x="442.6" y="319.5" transform="matrix(0.1414 -0.99 0.99 0.1414 68.8627 722.6942)" class="st1" width="17" height="4.3"/>
<rect x="469.8" y="297.6" transform="matrix(0.142 -0.9899 0.9899 0.142 133.7255 762.3373)" class="st4" width="73.7" height="12.8"/>
<path class="st6" d="M319.5,336"/>
<path class="st6" d="M319.4,64.6"/>
</svg>
