<?xml version="1.0" encoding="utf-8"?>
<!-- Generator: Adobe Illustrator 25.0.1, SVG Export Plug-In . SVG Version: 6.00 Build 0)  -->
<svg version="1.1" id="Layer_1" xmlns="http://www.w3.org/2000/svg" xmlns:xlink="http://www.w3.org/1999/xlink" x="0px" y="0px"
	 viewBox="0 0 1036.9 402.4" style="enable-background:new 0 0 1036.9 402.4;" xml:space="preserve">
<style type="text/css">
	.st0{display:none;fill:none;stroke:#000000;stroke-width:0.4;stroke-miterlimit:10;}
	.st1{display:none;fill:none;stroke:#000000;stroke-width:0.3997;stroke-miterlimit:10;}
	.st2{display:none;fill:none;stroke:#000000;stroke-width:0.4;stroke-miterlimit:10.0003;}
	.st3{display:none;fill:none;stroke:#000000;stroke-width:0.3997;stroke-miterlimit:9.9995;}
	.st4{fill:none;stroke:#000000;stroke-width:0.4;stroke-miterlimit:11.3408;}
	.st5{fill:none;stroke:#000000;stroke-width:0.4;stroke-miterlimit:10;}
	.st6{fill:none;stroke:#000000;stroke-width:0.3997;stroke-miterlimit:10;}
</style>
<polyline class="st0" points="378.9,64.6 322.1,44.8 364.1,339.5 379,336 "/>
<polyline class="st0" points="480.5,64.6 537.2,44.8 495.2,339.5 480.3,336 "/>
<rect x="333.5" y="268.1" transform="matrix(0.99 -0.1414 0.1414 0.99 -39.6421 52.0236)" class="st0" width="25.5" height="73.7"/>
<rect x="302" y="46.2" transform="matrix(0.99 -0.1414 0.1414 0.99 -8.5814 45.341)" class="st0" width="25.5" height="73.7"/>
<rect x="476.1" y="292.1" transform="matrix(0.1414 -0.99 0.99 0.1414 138.7007 769.5443)" class="st0" width="73.7" height="25.5"/>
<rect x="507.8" y="70.2" transform="matrix(0.1414 -0.99 0.99 0.1414 385.5068 610.4605)" class="st0" width="73.7" height="25.5"/>
<rect x="379" y="64.6" class="st0" width="101.3" height="271.4"/>
<rect x="350.1" y="278.3" transform="matrix(0.99 -0.1414 0.1414 0.99 -37.0151 52.6897)" class="st1" width="4.3" height="17"/>
<rect x="354.9" y="312" transform="matrix(0.99 -0.1414 0.1414 0.99 -41.7321 53.7069)" class="st1" width="4.3" height="17"/>
<rect x="498.6" y="284.5" transform="matrix(0.1414 -0.99 0.99 0.1414 151.6417 748.0872)" class="st1" width="17" height="4.3"/>
<rect x="493.8" y="318.2" transform="matrix(0.1414 -0.99 0.99 0.1414 114.1592 772.3162)" class="st1" width="17" height="4.3"/>
<rect x="530.1" y="62.7" transform="matrix(0.1414 -0.99 0.99 0.1414 398.2751 588.8981)" class="st1" width="17" height="4.3"/>
<rect x="525.3" y="96.3" transform="matrix(0.1414 -0.99 0.99 0.1414 360.8155 612.9546)" class="st1" width="17" height="4.3"/>
<line class="st0" x1="322.1" y1="44.7" x2="332.6" y2="117.7"/>
<rect x="314.7" y="45.3" transform="matrix(0.9899 -0.142 0.142 0.9899 -8.4125 46.4293)" class="st2" width="12.8" height="73.7"/>
<line class="st3" x1="309.5" y1="46.5" x2="320" y2="119.5"/>
<rect x="346.2" y="267.1" transform="matrix(0.9899 -0.142 0.142 0.9899 -39.5911 53.1474)" class="st2" width="12.8" height="73.7"/>
<rect x="501.3" y="75.7" transform="matrix(0.142 -0.9899 0.9899 0.142 380.494 603.163)" class="st2" width="73.7" height="12.8"/>
<rect x="469.8" y="297.6" transform="matrix(0.142 -0.9899 0.9899 0.142 133.7255 762.3373)" class="st2" width="73.7" height="12.8"/>
<line class="st4" x1="865.5" y1="336" x2="609.6" y2="336"/>
<line class="st4" x1="609.6" y1="64.6" x2="865.5" y2="64.6"/>
<polygon class="st5" points="609.6,64.6 552.8,44.7 527.6,48.3 538,121.3 563.3,117.7 584.4,266.6 559.2,270.2 569.6,343.2 
	594.8,339.5 609.7,336 865.4,336 880.3,339.5 905.6,343.2 916,270.2 890.7,266.6 911.9,117.7 937.1,121.3 947.6,48.3 922.3,44.7 
	865.4,64.6 "/>
<rect x="607.4" y="73.1" class="st6" width="4.3" height="17"/>
<rect x="607.4" y="107.1" class="st6" width="4.3" height="17"/>
<rect x="607.4" y="141.1" class="st6" width="4.3" height="17"/>
<rect x="607.4" y="175.1" class="st6" width="4.3" height="17"/>
<rect x="607.4" y="209.2" class="st6" width="4.3" height="17"/>
<rect x="607.4" y="243.2" class="st6" width="4.3" height="17"/>
<rect x="607.4" y="277.2" class="st6" width="4.3" height="17"/>
<rect x="607.4" y="311.2" class="st6" width="4.3" height="17"/>
<rect x="863.3" y="73.1" class="st6" width="4.3" height="17"/>
<rect x="863.3" y="107.1" class="st6" width="4.3" height="17"/>
<rect x="863.3" y="141.1" class="st6" width="4.3" height="17"/>
<rect x="863.3" y="175.1" class="st6" width="4.3" height="17"/>
<rect x="863.3" y="209.2" class="st6" width="4.3" height="17"/>
<rect x="863.3" y="243.2" class="st6" width="4.3" height="17"/>
<rect x="863.3" y="277.2" class="st6" width="4.3" height="17"/>
<rect x="863.3" y="311.2" class="st6" width="4.3" height="17"/>
<rect x="540.9" y="57.7" transform="matrix(0.99 -0.1414 0.1414 0.99 -3.905 77.4522)" class="st6" width="4.3" height="17"/>
<rect x="545.7" y="91.3" transform="matrix(0.99 -0.1414 0.1414 0.99 -8.6076 78.4685)" class="st6" width="4.3" height="17"/>
<rect x="572.5" y="279.6" transform="matrix(0.99 -0.1414 0.1414 0.99 -34.9637 84.1502)" class="st6" width="4.3" height="17"/>
<rect x="577.2" y="313.2" transform="matrix(0.99 -0.1414 0.1414 0.99 -39.6693 85.1525)" class="st6" width="4.3" height="17"/>
<rect x="923.6" y="64" transform="matrix(0.1414 -0.99 0.99 0.1414 734.811 979.5852)" class="st6" width="17" height="4.3"/>
<rect x="918.8" y="97.6" transform="matrix(0.1414 -0.99 0.99 0.1414 697.4247 1003.7031)" class="st6" width="17" height="4.3"/>
<rect x="892" y="285.9" transform="matrix(0.1414 -0.99 0.99 0.1414 487.9907 1138.7799)" class="st6" width="17" height="4.3"/>
<rect x="887.2" y="319.5" transform="matrix(0.1414 -0.99 0.99 0.1414 450.6046 1162.8979)" class="st6" width="17" height="4.3"/>
<path class="st4" d="M865.4,336"/>
<path class="st4" d="M865.4,64.6"/>
<path class="st4" d="M609.7,336"/>
<path class="st4" d="M609.6,64.6"/>
</svg>
