<?xml version="1.0" encoding="utf-8"?>
<!-- Generator: Adobe Illustrator 25.0.1, SVG Export Plug-In . SVG Version: 6.00 Build 0)  -->
<svg version="1.1" id="Layer_1" xmlns="http://www.w3.org/2000/svg" xmlns:xlink="http://www.w3.org/1999/xlink" x="0px" y="0px"
	 viewBox="0 0 1037.1 402.5" style="enable-background:new 0 0 1037.1 402.5;" xml:space="preserve">
<style type="text/css">
	.st0{fill:none;stroke:#231F20;stroke-width:0.4;stroke-miterlimit:10;}
</style>
<polygon class="st0" points="16.3,7.1 9.8,7.1 6.5,12.7 9.8,18.4 16.3,18.4 19.6,12.7 "/>
<polygon class="st0" points="1027.3,7.1 1020.8,7.1 1017.5,12.7 1020.8,18.4 1027.3,18.4 1030.6,12.7 "/>
<path class="st0" d="M0.2,12.8c0-7,5.7-12.8,12.8-12.8h30.5l0,8.5l8.5,0l0,8.5h-8.5l0,8.5l-17.8,0v17l-17,0.2v-8.4H0.2L0.2,12.8z"/>
<path class="st0" d="M1036.8,12.7c0-7-5.7-12.8-12.8-12.8L699.8,0.1v22h-25.5V0L362.8,0v22h-25.5V0.1l-17.7,0l0,8.5l-8.5,0v8.5
	l8.5,0l0,8.5l691.7-0.1v17l17.1,0.2v-8.5h8.5L1036.8,12.7z"/>
<polygon class="st0" points="16.4,383.8 9.8,383.8 6.6,389.5 9.8,395.1 16.4,395.1 19.7,389.5 "/>
<polygon class="st0" points="16.4,383.8 9.8,383.8 6.6,389.5 9.8,395.1 16.4,395.1 19.7,389.5 "/>
<polygon class="st0" points="353.4,383.8 346.8,383.8 343.6,389.5 346.8,395.1 353.4,395.1 356.6,389.5 "/>
<polygon class="st0" points="690.4,383.8 683.8,383.8 680.6,389.5 683.8,395.1 690.4,395.1 693.7,389.5 "/>
<polygon class="st0" points="1027.4,383.8 1020.8,383.8 1017.6,389.5 1020.8,395.1 1027.4,395.1 1030.7,389.5 "/>
<path class="st0" d="M0.3,389.5c0,7,5.7,12.8,12.8,12.8h1011.1c7,0,12.8-5.7,12.8-12.8v-21.3h-8.5v-8.4l-17-0.1v17H25.8l-0.1-16.9
	l-17,0v8.5H0.2L0.3,389.5z"/>
</svg>
