<?xml version="1.0" encoding="utf-8"?>
<!-- Generator: Adobe Illustrator 25.0.1, SVG Export Plug-In . SVG Version: 6.00 Build 0)  -->
<svg version="1.1" id="Layer_1" xmlns="http://www.w3.org/2000/svg" xmlns:xlink="http://www.w3.org/1999/xlink" x="0px" y="0px"
	 viewBox="0 0 1037.1 402.5" style="enable-background:new 0 0 1037.1 402.5;" xml:space="preserve">
<style type="text/css">
	.st0{fill:none;stroke:#231F20;stroke-width:0.4;stroke-miterlimit:10;}
</style>
<polygon class="st0" points="16.3,7.2 9.8,7.2 6.5,12.9 9.8,18.6 16.3,18.6 19.6,12.9 "/>
<polygon class="st0" points="1027.3,7.2 1020.8,7.2 1017.5,12.9 1020.8,18.5 1027.3,18.5 1030.6,12.9 "/>
<path class="st0" d="M0.2,13c0-7,5.7-12.8,12.8-12.8h30.5l0,8.5l8.5,0l0,8.5h-8.5l0,8.5l-17.8,0v16.9l-8.4,0.1v-17H8.7l0,8.7H0.2
	L0.2,13z"/>
<path class="st0" d="M1036.8,12.9c0-7-5.7-12.8-12.8-12.8L699.8,0.2v22h-25.5v-22L362.8,0.1v22h-25.5V0.2l-17.7,0l0,8.5l-8.5,0v8.5
	l8.5,0l0,8.5l691.7-0.1v17l8.6,0.1v-17h8.5v8.5l8.4,0.1L1036.8,12.9z"/>
<polygon class="st0" points="16.4,383.9 9.8,383.9 6.5,389.6 9.8,395.3 16.4,395.3 19.6,389.6 "/>
<polygon class="st0" points="16.4,384 9.8,384 6.5,389.6 9.8,395.3 16.4,395.3 19.6,389.6 "/>
<polygon class="st0" points="353.4,384 346.8,384 343.5,389.6 346.8,395.3 353.4,395.3 356.6,389.6 "/>
<polygon class="st0" points="690.4,384 683.8,384 680.5,389.6 683.8,395.3 690.4,395.3 693.6,389.6 "/>
<polygon class="st0" points="1027.4,384 1020.8,384 1017.5,389.6 1020.8,395.3 1027.4,395.3 1030.6,389.6 "/>
<path class="st0" d="M0.2,389.6c0,7,5.7,12.8,12.8,12.8h1011.1c7,0,12.8-5.7,12.8-12.8v-21.3l-8.5-0.1v8.5h-8.5v-17l-8.5,0.1v17
	H25.7l-0.1-16.9l-8.5-0.1v17H8.7l0-8.3H0.2L0.2,389.6z"/>
</svg>
