<?xml version="1.0" encoding="utf-8"?>
<!-- Generator: Adobe Illustrator 25.0.1, SVG Export Plug-In . SVG Version: 6.00 Build 0)  -->
<svg version="1.1" id="Layer_1" xmlns="http://www.w3.org/2000/svg" xmlns:xlink="http://www.w3.org/1999/xlink" x="0px" y="0px"
	 viewBox="0 0 1037.1 25.9" style="enable-background:new 0 0 1037.1 25.9;" xml:space="preserve">
<style type="text/css">
	.st0{fill:none;stroke:#010101;stroke-width:0.4;stroke-miterlimit:11.34;}
	.st1{fill:none;stroke:#231F20;stroke-width:0.4;stroke-miterlimit:10;}
</style>
<path class="st0" d="M13,0.2h1011.1c7,0,12.8,5.7,12.8,12.8v0c0,7-5.7,12.8-12.8,12.8H13C5.9,25.7,0.2,20,0.2,13v0
	C0.2,5.9,5.9,0.2,13,0.2z"/>
<polygon class="st1" points="16.4,7.3 9.8,7.3 6.5,12.9 9.8,18.6 16.4,18.6 19.6,12.9 "/>
<polygon class="st1" points="353.4,7.3 346.8,7.3 343.5,12.9 346.8,18.6 353.4,18.6 356.6,12.9 "/>
<polygon class="st1" points="690.4,7.3 683.8,7.3 680.5,12.9 683.8,18.6 690.4,18.6 693.6,12.9 "/>
<polygon class="st1" points="1027.4,7.3 1020.8,7.3 1017.6,12.9 1020.8,18.6 1027.4,18.6 1030.6,12.9 "/>
</svg>
