<?xml version="1.0" encoding="utf-8"?>
<!-- Generator: Adobe Illustrator 25.0.1, SVG Export Plug-In . SVG Version: 6.00 Build 0)  -->
<svg version="1.1" id="Layer_1" xmlns="http://www.w3.org/2000/svg" xmlns:xlink="http://www.w3.org/1999/xlink" x="0px" y="0px"
	 viewBox="0 0 276 402.4" style="enable-background:new 0 0 276 402.4;" xml:space="preserve">
<style type="text/css">
	.st0{fill:none;stroke:#010101;stroke-width:0.4;stroke-miterlimit:11.34;}
	.st1{fill:none;stroke:#231F20;stroke-width:0.4;stroke-miterlimit:10;}
</style>
<path class="st0" d="M275.8,359.8l-34-0.1v17h-216v-351h216v17h34"/>
<path class="st0" d="M275.8,42.7v-8.5h-8.5V12.9c0-7-5.7-12.8-12.8-12.8H13c-3.3,0-6.4,1.3-8.8,3.5c-2.6,2.4-4,5.7-3.9,9.2
	c0,1.4-0.1,348.3,0,376.5c0,7,5.7,12.7,12.7,12.8c0,0,0,0,0,0h241.5c3.7-0.1,7.2-1.7,9.7-4.4c2-2.3,3.1-5.3,3.1-8.3v-21.2h8.5l0-8.4
	"/>
<polygon class="st1" points="257.8,7.3 251.2,7.3 248,13 251.2,18.6 257.8,18.6 261.1,13 "/>
<polygon class="st1" points="257.8,383.8 251.2,383.8 248,389.5 251.2,395.1 257.8,395.1 261.1,389.5 "/>
<polygon class="st1" points="16.3,7.3 9.7,7.3 6.4,13 9.7,18.6 16.3,18.6 19.5,13 "/>
<polygon class="st1" points="16.3,383.8 9.7,383.8 6.5,389.5 9.7,395.2 16.3,395.2 19.5,389.5 "/>
</svg>
