<?xml version="1.0" encoding="utf-8"?>
<!-- Generator: Adobe Illustrator 25.0.1, SVG Export Plug-In . SVG Version: 6.00 Build 0)  -->
<svg version="1.1" id="Layer_1" xmlns="http://www.w3.org/2000/svg" xmlns:xlink="http://www.w3.org/1999/xlink" x="0px" y="0px"
	 viewBox="0 0 267.4 402.4" style="enable-background:new 0 0 267.4 402.4;" xml:space="preserve">
<style type="text/css">
	.st0{fill:none;stroke:#010101;stroke-width:0.4;stroke-miterlimit:11.34;}
	.st1{fill:none;stroke:#231F20;stroke-width:0.4;stroke-miterlimit:10;}
	.st2{fill:none;stroke:#000000;stroke-width:0.4;stroke-miterlimit:11.3408;}
</style>
<polygon class="st0" points="254.5,0.2 255.5,0.2 256.5,0.4 257.5,0.6 258.4,0.8 259.4,1.2 260.3,1.6 261.1,2.1 262,2.6 262.8,3.3 
	263.5,3.9 264.2,4.7 264.8,5.5 265.4,6.3 265.8,7.2 266.3,8.1 266.6,9 266.9,10 267.1,11 267.2,12 267.2,13 267.2,389.5 
	267.2,390.5 267.1,391.5 266.9,392.5 266.6,393.4 266.3,394.4 265.8,395.3 265.4,396.1 264.8,397 264.2,397.8 263.5,398.5 
	262.8,399.2 262,399.8 261.1,400.4 260.3,400.8 259.4,401.3 258.4,401.6 257.5,401.9 256.5,402.1 255.5,402.2 254.5,402.2 13,402.2 
	12,402.2 11,402.1 10,401.9 9,401.6 8.1,401.3 7.2,400.8 6.3,400.4 5.5,399.8 4.7,399.2 3.9,398.5 3.3,397.8 2.6,397 2.1,396.1 
	1.6,395.3 1.2,394.4 0.8,393.4 0.6,392.5 0.4,391.5 0.2,390.5 0.2,389.5 0.2,13 0.2,12 0.4,11 0.6,10 0.8,9 1.2,8.1 1.6,7.2 
	2.1,6.3 2.6,5.5 3.3,4.7 3.9,3.9 4.7,3.3 5.5,2.6 6.3,2.1 7.2,1.6 8.1,1.2 9,0.8 10,0.6 11,0.4 12,0.2 13,0.2 "/>
<polygon class="st1" points="257.7,7.3 251.2,7.3 247.9,13 251.2,18.6 257.7,18.6 261,13 "/>
<polygon class="st1" points="257.8,383.8 251.2,383.8 247.9,389.5 251.2,395.2 257.8,395.2 261,389.5 "/>
<polygon class="st1" points="16.2,7.3 9.7,7.3 6.4,13 9.7,18.6 16.2,18.6 19.5,13 "/>
<polygon class="st1" points="16.2,383.8 9.7,383.8 6.4,389.5 9.7,395.2 16.2,395.2 19.5,389.5 "/>
<rect x="76.3" y="275.5" transform="matrix(-0.9997 2.367178e-02 -2.367178e-02 -0.9997 164.2945 622.657)" class="st2" width="4.3" height="73.7"/>
<rect x="71.4" y="51.7" transform="matrix(-0.9997 2.367178e-02 -2.367178e-02 -0.9997 149.0716 175.2845)" class="st2" width="4.3" height="73.7"/>
<rect x="187.3" y="275.5" transform="matrix(0.9997 2.367178e-02 -2.367178e-02 0.9997 7.4458 -4.3963)" class="st2" width="4.3" height="73.7"/>
<rect x="192.3" y="51.7" transform="matrix(0.9997 2.367178e-02 -2.367178e-02 0.9997 2.15 -4.5765)" class="st2" width="4.3" height="73.7"/>
</svg>
