<svg id="Layer_1" data-name="Layer 1" xmlns="http://www.w3.org/2000/svg" viewBox="0 0 42.85 351.37"><defs><style>.cls-1{fill:none;stroke:#000;stroke-miterlimit:11.34;stroke-width:0.4px;}</style></defs><polyline class="cls-1" points="25.65 0.2 42.65 0.2 42.65 296.94 42.65 330.63 42.65 351.17 25.65 351.17 25.65 334.15 17.13 334.15 17.13 351.17 8.63 351.17 0.2 351.17 0.2 0.2 8.63 0.2 13.61 0.2 17.13 0.2 17.13 17.22 25.65 17.22 25.65 0.2"/><polyline class="cls-1" points="9.47 326.1 8.71 325.98 7.94 326.1 7.24 326.45 6.69 327 6.34 327.69 6.22 328.46 6.23 328.51 6.34 329.23 6.69 329.92 7.24 330.47 7.94 330.83 8.71 330.95 9.47 330.83 10.17 330.47 10.72 329.92 11.07 329.23 11.19 328.51 11.19 328.46 11.07 327.69 10.72 327 10.17 326.45 9.47 326.1"/><polyline class="cls-1" points="6.27 192.08 6.22 192.4 6.34 193.17 6.69 193.86 7.24 194.41 7.94 194.76 8.71 194.89 9.47 194.76 10.17 194.41 10.72 193.86 11.07 193.17 11.19 192.4 11.14 192.08 11.07 191.63 10.72 190.94 10.17 190.39 9.47 190.03 8.71 189.91 7.94 190.03 7.24 190.39 6.69 190.94 6.34 191.63 6.27 192.08"/><polyline class="cls-1" points="10.72 122.9 10.23 122.42 10.17 122.35 9.47 122 8.71 121.88 7.94 122 7.24 122.35 7.18 122.42 6.69 122.9 6.34 123.6 6.22 124.37 6.34 125.14 6.69 125.83 7.24 126.38 7.94 126.73 8.71 126.86 9.47 126.73 9.89 126.52 10.17 126.38 10.72 125.83 11.07 125.14 11.19 124.37 11.07 123.6 10.72 122.9"/><polyline class="cls-1" points="11.07 23.09 11.19 22.32 11.07 21.55 10.72 20.86 10.17 20.31 9.47 19.95 8.71 19.83 7.94 19.95 7.24 20.31 6.69 20.86 6.34 21.55 6.22 22.32 6.34 23.09 6.67 23.73 6.69 23.78 7.24 24.33 7.94 24.69 8.71 24.81 9.47 24.69 10.17 24.33 10.72 23.78 10.74 23.73 11.07 23.09"/><polyline class="cls-1" points="11.07 57.1 11.19 56.34 11.07 55.57 10.72 54.87 10.17 54.32 9.89 54.18 9.47 53.97 8.71 53.85 7.94 53.97 7.24 54.32 6.69 54.87 6.34 55.57 6.22 56.34 6.34 57.1 6.69 57.8 7.24 58.35 7.66 58.56 7.94 58.7 8.71 58.82 9.47 58.7 9.75 58.56 9.89 58.49 10.17 58.35 10.72 57.8 11.07 57.1"/><polyline class="cls-1" points="6.34 89.58 6.22 90.35 6.24 90.49 6.34 91.12 6.69 91.81 7.24 92.36 7.94 92.72 8.71 92.84 9.47 92.72 10.17 92.36 10.72 91.81 11.07 91.12 11.17 90.49 11.19 90.35 11.07 89.58 10.72 88.89 10.17 88.34 9.47 87.98 8.71 87.86 7.94 87.98 7.24 88.34 6.69 88.89 6.34 89.58"/><polyline class="cls-1" points="9.47 156.02 8.71 155.9 7.94 156.02 7.24 156.37 6.69 156.92 6.52 157.25 6.34 157.62 6.22 158.38 6.34 159.15 6.69 159.84 7.24 160.4 7.94 160.75 8.71 160.87 9.47 160.75 10.17 160.4 10.72 159.84 11.07 159.15 11.19 158.38 11.07 157.62 10.89 157.25 10.72 156.92 10.17 156.37 9.47 156.02"/><polyline class="cls-1" points="6.34 225.65 6.22 226.41 6.3 226.92 6.34 227.18 6.69 227.88 7.24 228.43 7.94 228.78 8.71 228.9 9.47 228.78 10.17 228.43 10.72 227.88 11.07 227.18 11.11 226.92 11.19 226.41 11.07 225.65 10.72 224.95 10.17 224.4 9.47 224.05 8.71 223.93 7.94 224.05 7.24 224.4 6.69 224.95 6.34 225.65"/><polyline class="cls-1" points="9.47 258.06 8.71 257.94 7.94 258.06 7.24 258.42 6.69 258.97 6.34 259.66 6.22 260.43 6.34 261.2 6.62 261.75 6.69 261.89 7.24 262.44 7.94 262.8 8.71 262.92 9.47 262.8 10.17 262.44 10.72 261.89 10.79 261.75 11.07 261.2 11.19 260.43 11.07 259.66 10.72 258.97 10.17 258.42 9.47 258.06"/><polyline class="cls-1" points="7.94 296.81 8.71 296.94 9.47 296.81 9.93 296.58 10.17 296.46 10.72 295.91 11.07 295.21 11.19 294.45 11.07 293.68 10.72 292.98 10.17 292.43 9.89 292.29 9.47 292.08 8.71 291.96 7.94 292.08 7.24 292.43 6.69 292.98 6.34 293.68 6.22 294.45 6.34 295.21 6.69 295.91 7.24 296.46 7.48 296.58 7.94 296.81"/></svg>