<?xml version="1.0" encoding="utf-8"?>
<!-- Generator: Adobe Illustrator 25.0.1, SVG Export Plug-In . SVG Version: 6.00 Build 0)  -->
<svg version="1.1" id="Layer_1" xmlns="http://www.w3.org/2000/svg" xmlns:xlink="http://www.w3.org/1999/xlink" x="0px" y="0px"
	 viewBox="0 0 699.9 146.4" style="enable-background:new 0 0 699.9 146.4;" xml:space="preserve">
<style type="text/css">
	.st0{fill:none;stroke:#010101;stroke-width:0.4;stroke-miterlimit:11.34;}
	.st1{fill:none;stroke:#231F20;stroke-width:0.4;stroke-miterlimit:10;}
</style>
<path class="st0" d="M13,0.2h674c7,0,12.8,5.7,12.8,12.8v120.4c0,7-5.7,12.8-12.8,12.8H13c-7,0-12.8-5.7-12.8-12.8V13
	C0.2,5.9,5.9,0.2,13,0.2z"/>
<polygon class="st1" points="16.2,127.7 9.7,127.7 6.4,133.4 9.7,139.1 16.2,139.1 19.5,133.4 "/>
<polygon class="st1" points="16.2,7.3 9.7,7.3 6.4,13 9.7,18.6 16.2,18.6 19.5,13 "/>
<polygon class="st1" points="690.2,127.7 683.7,127.7 680.4,133.4 683.7,139.1 690.2,139.1 693.5,133.4 "/>
<polygon class="st1" points="690.2,7.3 683.7,7.3 680.4,13 683.7,18.6 690.2,18.6 693.5,13 "/>
<polygon class="st1" points="353.2,127.7 346.7,127.7 343.4,133.4 346.7,139 353.2,139 356.5,133.4 "/>
<polygon class="st1" points="353.2,7.3 346.7,7.3 343.4,13 346.7,18.6 353.2,18.6 356.5,13 "/>
</svg>
