<?xml version="1.0" encoding="utf-8"?>
<!-- Generator: Adobe Illustrator 25.0.1, SVG Export Plug-In . SVG Version: 6.00 Build 0)  -->
<svg version="1.1" id="Layer_1" xmlns="http://www.w3.org/2000/svg" xmlns:xlink="http://www.w3.org/1999/xlink" x="0px" y="0px"
	 viewBox="0 0 699.9 146.4" style="enable-background:new 0 0 699.9 146.4;" xml:space="preserve">
<style type="text/css">
	.st0{fill:none;stroke:#231F20;stroke-width:0.4;stroke-miterlimit:10;}
</style>
<polygon class="st0" points="16.3,7.1 9.7,7.1 6.4,12.8 9.7,18.5 16.3,18.5 19.5,12.8 "/>
<polygon class="st0" points="690.3,127.6 683.7,127.6 680.4,133.2 683.7,138.9 690.3,138.9 693.5,133.2 "/>
<polygon class="st0" points="690.3,7.1 683.7,7.1 680.4,12.8 683.7,18.5 690.3,18.5 693.5,12.8 "/>
<path class="st0" d="M0.3,43.2h8.5v8.5h8.5v-8.5h8.5V25.5h648.5v17.7h8.5v8.5h8.5v-8.5h8.5l0.1-30.4c0-7.1-5.7-12.8-12.8-12.8
	L12.9-0.2C5.8-0.2,0.1,5.6,0.1,12.6L0.3,43.2z"/>
<path class="st0" d="M8.7,94.3v8.5H0.2v17.7h8.5V112H4.5v-4.2h17v4.2h-4.2v8.5l8.5,8.7h8.5v-4.3h4.2v17h-4.2v-4.2h-8.5v8.3l311.4,0
	v-8.5h-23.3v-12.6H386v12.6l-23.3,0v8.5H687c7,0,12.8-5.5,12.8-12.6v-30.7h-8.5v-8.5h-8.5v8.5h-8.5v17.7H25.8v-17.7h-8.5v-8.5H8.7
	V94.3z"/>
<polygon class="st0" points="353.2,127.6 346.7,127.6 343.4,133.3 346.7,138.9 353.2,138.9 356.5,133.3 "/>
</svg>
