<?xml version="1.0" encoding="utf-8"?>
<!-- Generator: Adobe Illustrator 25.0.1, SVG Export Plug-In . SVG Version: 6.00 Build 0)  -->
<svg version="1.1" id="Layer_1" xmlns="http://www.w3.org/2000/svg" xmlns:xlink="http://www.w3.org/1999/xlink" x="0px" y="0px"
	 viewBox="0 0 38.6 60.7" style="enable-background:new 0 0 38.6 60.7;" xml:space="preserve">
<style type="text/css">
	.st0{fill:none;stroke:#010101;stroke-width:0.4;stroke-miterlimit:11.34;}
	.st1{fill:none;stroke:#231F20;stroke-width:0.4;stroke-miterlimit:10;}
</style>
<polygon class="st0" points="25.7,60.5 0.2,60.5 0.2,12.9 8.7,12.9 8.7,4.4 4.4,4.4 4.4,0.2 21.5,0.2 21.5,4.4 17.2,4.4 17.2,12.9 
	25.7,21.6 34.2,21.6 34.2,17.4 38.4,17.4 38.4,34.4 34.2,34.4 34.2,30.1 25.7,30.1 "/>
<polygon class="st1" points="16.1,45.5 9.6,45.5 6.3,51.2 9.6,56.8 16.1,56.8 19.4,51.2 "/>
<polygon class="st1" points="16.1,19.9 9.6,19.9 6.3,25.5 9.6,31.2 16.1,31.2 19.4,25.5 "/>
</svg>
