<?xml version="1.0" encoding="utf-8"?>
<!-- Generator: Adobe Illustrator 25.0.1, SVG Export Plug-In . SVG Version: 6.00 Build 0)  -->
<svg version="1.1" id="Layer_1" xmlns="http://www.w3.org/2000/svg" xmlns:xlink="http://www.w3.org/1999/xlink" x="0px" y="0px"
	 viewBox="0 0 1037.1 402.5" style="enable-background:new 0 0 1037.1 402.5;" xml:space="preserve">
<style type="text/css">
	.st0{fill:none;stroke:#231F20;stroke-width:0.4;stroke-miterlimit:10;}
</style>
<polygon class="st0" points="16.3,7.2 9.8,7.2 6.5,12.9 9.8,18.6 16.3,18.6 19.6,12.9 "/>
<polygon class="st0" points="1027.3,7.2 1020.8,7.2 1017.5,12.9 1020.8,18.5 1027.3,18.5 1030.6,12.9 "/>
<path class="st0" d="M0.2,13C0.2,6,5.9,0.2,13,0.2h30.5v8.5H52v8.5H25.7v8.5h0l-17,0v8.7H0.2V13z"/>
<path class="st0" d="M1036.8,12.9c0-7-5.7-12.8-12.8-12.8L699.8,0.2v22h-25.5v-22L362.8,0.1v22h-25.5V0.2h-17.7v8.5h-8.5v8.5h22.6
	v8.5l32.7,0l0-8.5h304.4v8.5l32.7,0v-8.5l307.9-0.1v8.6l17.1,0v8.5l8.4,0.1L1036.8,12.9z"/>
<polygon class="st0" points="16.4,383.9 9.8,383.9 6.5,389.6 9.8,395.3 16.4,395.3 19.6,389.6 "/>
<polygon class="st0" points="16.4,384 9.8,384 6.5,389.6 9.8,395.3 16.4,395.3 19.6,389.6 "/>
<polygon class="st0" points="353.4,384 346.8,384 343.5,389.6 346.8,395.3 353.4,395.3 356.6,389.6 "/>
<polygon class="st0" points="690.4,384 683.8,384 680.5,389.6 683.8,395.3 690.4,395.3 693.6,389.6 "/>
<polygon class="st0" points="1027.4,384 1020.8,384 1017.5,389.6 1020.8,395.3 1027.4,395.3 1030.6,389.6 "/>
<path class="st0" d="M0.2,389.6c0,7,5.7,12.8,12.8,12.8h1011.1c7,0,12.8-5.7,12.8-12.8v-21.3l-8.5-0.1v8.5h-17l0,8.6H699.8v-8.5
	h-25.5v8.5H362.8v-8.5h-25.5v8.5H25.7l-0.1-8.5H8.7v-8.3H0.2V389.6z"/>
</svg>
