<?xml version="1.0" encoding="utf-8"?>
<!-- Generator: Adobe Illustrator 25.0.1, SVG Export Plug-In . SVG Version: 6.00 Build 0)  -->
<svg version="1.1" id="Layer_1" xmlns="http://www.w3.org/2000/svg" xmlns:xlink="http://www.w3.org/1999/xlink" x="0px" y="0px"
	 viewBox="0 0 276.5 42.9" style="enable-background:new 0 0 276.5 42.9;" xml:space="preserve">
<style type="text/css">
	.st0{fill:none;stroke:#000000;stroke-width:0.4;stroke-miterlimit:11.34;}
</style>
<circle class="st0" cx="51.7" cy="21.5" r="17"/>
<polygon class="st0" points="156.1,14.2 156.1,28.7 120.7,28.7 120.7,14.2 "/>
<polygon class="st0" points="241.5,14.2 241.5,28.7 206.1,28.7 206.1,14.2 "/>
<polygon class="st0" points="267.8,0.2 8.7,0.2 8.7,8.7 0.2,8.7 0.2,17.2 8.7,17.2 8.7,25.7 0.2,25.7 0.2,34.2 8.7,34.2 8.7,42.7 
	267.8,42.7 267.8,34.2 276.3,34.2 276.3,25.7 267.8,25.7 267.8,17.2 276.3,17.2 276.3,8.7 267.8,8.7 "/>
</svg>
