<?xml version="1.0" encoding="utf-8"?>
<!-- Generator: Adobe Illustrator 25.0.1, SVG Export Plug-In . SVG Version: 6.00 Build 0)  -->
<svg version="1.1" xmlns="http://www.w3.org/2000/svg" xmlns:xlink="http://www.w3.org/1999/xlink" x="0px" y="0px"
	 viewBox="0 0 1036.9 402.4" style="enable-background:new 0 0 1036.9 402.4;" xml:space="preserve">
<style type="text/css">
	.st0{fill:none;stroke:#010101;stroke-width:0.4;stroke-miterlimit:11.34;}
	.st1{fill:none;stroke:#231F20;stroke-width:0.4;stroke-miterlimit:10;}
	.st2{fill:none;stroke:#000000;stroke-width:0.4;stroke-miterlimit:11.3408;}
	.st3{display:none;}
	.st4{display:inline;fill:none;stroke:#000000;stroke-width:0.4;stroke-miterlimit:10;}
</style>
<g id="Layer_1">
	<polygon class="st0" points="1024,0.2 1025,0.2 1026,0.4 1026.9,0.6 1027.9,0.8 1028.8,1.2 1029.8,1.6 1030.6,2.1 1031.5,2.6 
		1032.3,3.3 1033,3.9 1033.7,4.7 1034.3,5.5 1034.8,6.3 1035.3,7.2 1035.8,8.1 1036.1,9 1036.4,10 1036.6,11 1036.7,12 1036.7,13 
		1036.7,389.5 1036.7,390.5 1036.6,391.5 1036.4,392.5 1036.1,393.4 1035.8,394.4 1035.3,395.3 1034.8,396.1 1034.3,397 
		1033.7,397.8 1033,398.5 1032.3,399.2 1031.5,399.8 1030.6,400.4 1029.8,400.8 1028.8,401.3 1027.9,401.6 1026.9,401.9 1026,402.1 
		1025,402.2 1024,402.2 13,402.2 12,402.2 11,402.1 10,401.9 9,401.6 8.1,401.3 7.2,400.8 6.3,400.4 5.5,399.8 4.7,399.2 3.9,398.5 
		3.3,397.8 2.6,397 2.1,396.1 1.6,395.3 1.2,394.4 0.8,393.4 0.6,392.5 0.4,391.5 0.2,390.5 0.2,389.5 0.2,13 0.2,12 0.4,11 0.6,10 
		0.8,9 1.2,8.1 1.6,7.2 2.1,6.3 2.6,5.5 3.3,4.7 3.9,3.9 4.7,3.3 5.5,2.6 6.3,2.1 7.2,1.6 8.1,1.2 9,0.8 10,0.6 11,0.4 12,0.2 
		13,0.2 	"/>
	<polygon class="st1" points="16.2,7.3 9.7,7.3 6.4,13 9.7,18.6 16.2,18.6 19.5,13 	"/>
	<polygon class="st1" points="16.2,383.8 9.7,383.8 6.4,389.5 9.7,395.1 16.2,395.1 19.5,389.5 	"/>
	<polygon class="st1" points="16.2,383.8 9.7,383.8 6.4,389.5 9.7,395.1 16.2,395.1 19.5,389.5 	"/>
	<polygon class="st1" points="353.2,7.3 346.7,7.3 343.4,13 346.7,18.6 353.2,18.6 356.5,13 	"/>
	<polygon class="st1" points="353.2,7.3 346.7,7.3 343.4,13 346.7,18.6 353.2,18.6 356.5,13 	"/>
	<polygon class="st1" points="353.2,383.8 346.7,383.8 343.4,389.5 346.7,395.1 353.2,395.1 356.5,389.5 	"/>
	<polygon class="st1" points="353.2,383.8 346.7,383.8 343.4,389.5 346.7,395.1 353.2,395.1 356.5,389.5 	"/>
	<polygon class="st1" points="690.2,7.3 683.7,7.3 680.4,13 683.7,18.6 690.2,18.6 693.5,13 	"/>
	<polygon class="st1" points="690.2,383.8 683.7,383.8 680.4,389.5 683.7,395.1 690.2,395.1 693.5,389.5 	"/>
	<polygon class="st1" points="1027.2,7.3 1020.7,7.3 1017.4,13 1020.7,18.6 1027.2,18.6 1030.5,13 	"/>
	<polygon class="st1" points="1027.2,383.8 1020.7,383.8 1017.4,389.5 1020.7,395.1 1027.2,395.1 1030.5,389.5 	"/>
	
		<rect x="105.4" y="275.4" transform="matrix(-0.9997 2.367178e-02 -2.367178e-02 -0.9997 222.4883 621.89)" class="st2" width="4.3" height="73.7"/>
	
		<rect x="100.5" y="51.6" transform="matrix(-0.9997 2.367178e-02 -2.367178e-02 -0.9997 207.2654 174.5174)" class="st2" width="4.3" height="73.7"/>
	
		<rect x="216.4" y="275.4" transform="matrix(0.9997 2.367178e-02 -2.367178e-02 0.9997 7.453 -5.0852)" class="st2" width="4.3" height="73.7"/>
	
		<rect x="221.4" y="51.6" transform="matrix(0.9997 2.367178e-02 -2.367178e-02 0.9997 2.1572 -5.2654)" class="st2" width="4.3" height="73.7"/>
	
		<rect x="814.7" y="275.5" transform="matrix(-0.9997 2.367178e-02 -2.367178e-02 -0.9997 1640.8297 605.1959)" class="st2" width="4.3" height="73.7"/>
	
		<rect x="809.7" y="51.7" transform="matrix(-0.9997 2.367178e-02 -2.367178e-02 -0.9997 1625.6068 157.8233)" class="st2" width="4.3" height="73.7"/>
	
		<rect x="925.7" y="275.5" transform="matrix(0.9997 2.367178e-02 -2.367178e-02 0.9997 7.6529 -21.8749)" class="st2" width="4.3" height="73.7"/>
	
		<rect x="930.6" y="51.7" transform="matrix(0.9997 2.367178e-02 -2.367178e-02 0.9997 2.3571 -22.0551)" class="st2" width="4.3" height="73.7"/>
</g>
<g id="Layer_2" class="st3">
	<polyline class="st4" points="378.9,64.6 322.1,44.8 364.1,339.5 379,336 	"/>
	<polyline class="st4" points="480.5,64.6 537.2,44.8 495.2,339.5 480.3,336 	"/>
	
		<rect x="309.4" y="292.1" transform="matrix(-0.1414 -0.9899 0.9899 -0.1414 93.4631 690.799)" class="st4" width="73.7" height="25.5"/>
	
		<rect x="277.9" y="70.3" transform="matrix(-0.1414 -0.9899 0.9899 -0.1414 277.0549 406.3163)" class="st4" width="73.7" height="25.5"/>
	
		<rect x="476.2" y="292.1" transform="matrix(0.1414 -0.9899 0.9899 0.1414 138.6892 769.652)" class="st4" width="73.7" height="25.5"/>
	
		<rect x="507.8" y="70.3" transform="matrix(0.1414 -0.9899 0.9899 0.1414 385.4197 610.4238)" class="st4" width="73.7" height="25.5"/>
	<rect x="379" y="64.6" class="st4" width="101.3" height="271.4"/>
</g>
</svg>
