<svg id="Layer_1" data-name="Layer 1" xmlns="http://www.w3.org/2000/svg" viewBox="0 0 42.92 351.37"><defs><style>.cls-1{fill:none;stroke:#000;stroke-miterlimit:11.34;stroke-width:0.4px;}</style></defs><polyline class="cls-1" points="25.71 351.17 25.71 339.82 25.71 334.17 25.71 334.15 17.2 334.15 17.2 334.17 17.2 339.82 17.2 351.17 7.99 351.17 0.27 351.17 0.2 0.2 7.92 0.2 14.31 0.2 17.13 0.2 17.2 17.22 25.71 17.22 25.71 0.2 42.72 0.2 42.72 193.47 42.72 221.82 42.72 250.16 42.72 278.51 42.72 306.86 42.72 334.17 42.72 339.82 42.72 351.17 25.71 351.17"/><polyline class="cls-1" points="9.69 108.27 10.58 107.82 11.29 107.11 11.74 106.22 11.9 105.23 11.86 105 11.74 104.25 11.29 103.35 10.58 102.65 9.69 102.19 8.7 102.04 7.72 102.19 6.82 102.65 6.12 103.35 5.67 104.25 5.54 105 5.51 105.23 5.67 106.22 6.12 107.11 6.82 107.82 7.72 108.27 8.7 108.43 9.69 108.27"/><polyline class="cls-1" points="9.69 328.26 8.7 328.1 7.72 328.26 6.82 328.71 6.12 329.42 5.67 330.31 5.51 331.3 5.53 331.41 5.67 332.28 6.12 333.18 6.82 333.88 7.72 334.33 8.7 334.49 9.69 334.33 10.58 333.88 11.29 333.18 11.74 332.28 11.88 331.41 11.9 331.3 11.74 330.31 11.29 329.42 10.58 328.71 9.69 328.26"/><polyline class="cls-1" points="11.74 274.33 11.29 273.43 11.21 273.36 10.58 272.73 9.69 272.27 8.7 272.12 7.72 272.27 6.82 272.73 6.19 273.36 6.12 273.43 5.67 274.33 5.51 275.31 5.67 276.3 6.12 277.19 6.82 277.9 7.47 278.23 7.72 278.35 8.7 278.51 9.69 278.35 10.58 277.9 11.29 277.19 11.74 276.3 11.9 275.31 11.74 274.33"/><polyline class="cls-1" points="7.72 250 8.54 250.14 8.7 250.16 8.86 250.14 9.69 250 10.58 249.55 11.29 248.84 11.74 247.95 11.9 246.97 11.74 245.98 11.29 245.09 10.58 244.38 9.69 243.93 8.7 243.77 7.72 243.93 7.47 244.05 6.82 244.38 6.12 245.09 5.67 245.98 5.51 246.97 5.67 247.95 6.12 248.84 6.82 249.55 7.47 249.88 7.72 250"/><polyline class="cls-1" points="5.67 304.64 6.12 305.54 6.82 306.24 7.72 306.7 8.7 306.86 9.69 306.7 10.58 306.24 11.29 305.54 11.74 304.64 11.9 303.66 11.74 302.67 11.6 302.39 11.29 301.78 10.58 301.07 9.69 300.62 8.7 300.46 7.72 300.62 6.82 301.07 6.12 301.78 5.81 302.39 5.67 302.67 5.51 303.66 5.67 304.64"/><polyline class="cls-1" points="11.74 219.6 11.9 218.62 11.74 217.63 11.29 216.74 10.58 216.03 9.69 215.58 8.7 215.42 7.72 215.58 7.47 215.7 6.82 216.03 6.12 216.74 5.67 217.63 5.51 218.62 5.67 219.6 6.12 220.5 6.73 221.11 6.82 221.2 7.72 221.66 8.7 221.82 9.69 221.66 10.58 221.2 10.68 221.11 11.29 220.5 11.74 219.6"/><polyline class="cls-1" points="11.74 162.91 11.9 161.93 11.74 160.94 11.29 160.05 10.58 159.34 9.69 158.89 8.7 158.73 7.72 158.89 6.82 159.34 6.12 160.05 5.67 160.94 5.51 161.93 5.67 162.91 5.74 163.06 6.12 163.81 6.82 164.51 7.72 164.97 8.7 165.12 9.69 164.97 10.58 164.51 11.29 163.81 11.67 163.06 11.74 162.91"/><polyline class="cls-1" points="5.67 132.59 5.51 133.58 5.58 134.03 5.67 134.57 6.12 135.46 6.82 136.16 7.72 136.62 8.7 136.78 9.69 136.62 10.58 136.16 11.29 135.46 11.74 134.57 11.83 134.03 11.9 133.58 11.74 132.59 11.29 131.7 10.58 131 9.69 130.54 8.7 130.38 7.72 130.54 6.82 131 6.12 131.7 5.67 132.59"/><polyline class="cls-1" points="7.72 23.23 8.7 23.39 9.69 23.23 10.58 22.78 11.29 22.07 11.74 21.18 11.9 20.19 11.74 19.21 11.29 18.31 10.9 17.92 10.58 17.61 9.69 17.16 8.7 17 7.72 17.16 6.82 17.61 6.51 17.92 6.12 18.31 5.67 19.21 5.51 20.19 5.67 21.18 6.12 22.07 6.82 22.78 7.47 23.11 7.72 23.23"/><polyline class="cls-1" points="9.69 79.92 10.58 79.47 11.29 78.77 11.74 77.87 11.9 76.89 11.76 75.98 11.74 75.9 11.29 75.01 10.58 74.3 9.69 73.85 8.7 73.69 7.72 73.85 6.82 74.3 6.12 75.01 5.67 75.9 5.65 75.98 5.51 76.89 5.67 77.87 6.12 78.77 6.82 79.47 7.72 79.92 8.7 80.08 9.69 79.92"/><polyline class="cls-1" points="6.12 192.15 6.82 192.86 7.72 193.31 8.7 193.47 9.69 193.31 10.58 192.86 11.29 192.15 11.32 192.08 11.74 191.26 11.9 190.27 11.74 189.29 11.29 188.39 10.58 187.69 9.69 187.23 8.7 187.08 7.72 187.23 6.82 187.69 6.12 188.39 5.67 189.29 5.51 190.27 5.67 191.26 6.08 192.08 6.12 192.15"/><polygon class="cls-1" points="11.74 47.55 11.44 46.95 11.29 46.66 10.58 45.95 9.69 45.5 8.7 45.35 7.72 45.5 6.82 45.95 6.12 46.66 5.97 46.95 5.67 47.55 5.51 48.54 5.67 49.53 6.12 50.42 6.82 51.13 7.72 51.58 8.7 51.74 9.69 51.58 10.58 51.13 11.29 50.42 11.74 49.53 11.9 48.54 11.74 47.55"/></svg>