<?xml version="1.0" encoding="utf-8"?>
<!-- Generator: Adobe Illustrator 25.0.1, SVG Export Plug-In . SVG Version: 6.00 Build 0)  -->
<svg version="1.1" id="Layer_1" xmlns="http://www.w3.org/2000/svg" xmlns:xlink="http://www.w3.org/1999/xlink" x="0px" y="0px"
	 viewBox="0 0 483.6 402.4" style="enable-background:new 0 0 483.6 402.4;" xml:space="preserve">
<style type="text/css">
	.st0{fill:none;stroke:#010101;stroke-width:0.4;stroke-miterlimit:11.34;}
	.st1{fill:none;stroke:#231F20;stroke-width:0.4;stroke-miterlimit:10;}
</style>
<polygon class="st0" points="8.7,359.7 8.7,376.7 17.2,376.7 17.2,359.7 25.7,359.7 25.7,376.7 457.8,376.7 457.8,25.7 25.7,25.7 
	25.7,42.7 17.2,42.7 17.2,25.7 8.7,25.7 8.7,42.7 "/>
<path class="st0" d="M0.2,368.2v21.2c0,3,1.1,6,3.1,8.3c2.5,2.8,6,4.4,9.7,4.4h457.6c7,0,12.7-5.7,12.8-12.7c0,0,0,0,0,0
	c0.1-28.2,0-375.1,0-376.5c0.1-3.5-1.4-6.9-3.9-9.2c-2.4-2.2-5.5-3.5-8.8-3.5H13C5.9,0.2,0.2,5.9,0.2,13L0.2,368.2L0.2,368.2z"/>
<polygon class="st1" points="16.3,7.3 9.8,7.3 6.5,13 9.8,18.6 16.3,18.6 19.6,13 "/>
<polygon class="st1" points="16.3,383.8 9.8,383.8 6.5,389.5 9.8,395.2 16.3,395.2 19.6,389.5 "/>
<polygon class="st1" points="473.8,7.3 467.3,7.3 464,13 467.3,18.6 473.8,18.6 477.1,13 "/>
<polygon class="st1" points="473.8,383.8 467.3,383.8 464,389.5 467.3,395.2 473.8,395.2 477.1,389.5 "/>
</svg>
