<?xml version="1.0" encoding="utf-8"?>
<!-- Generator: Adobe Illustrator 25.0.1, SVG Export Plug-In . SVG Version: 6.00 Build 0)  -->
<svg version="1.1" id="Layer_1" xmlns="http://www.w3.org/2000/svg" xmlns:xlink="http://www.w3.org/1999/xlink" x="0px" y="0px"
	 viewBox="0 0 492.1 402.4" style="enable-background:new 0 0 492.1 402.4;" xml:space="preserve">
<style type="text/css">
	.st0{fill:none;stroke:#010101;stroke-width:0.4;stroke-miterlimit:11.34;}
	.st1{fill:none;stroke:#231F20;stroke-width:0.4;stroke-miterlimit:11.34;}
	.st2{fill:none;stroke:#231F20;stroke-width:0.4;stroke-miterlimit:10;}
</style>
<path class="st0" d="M0.2,359.7h17v17h8.5v-17h8.5v17h432.1v-270h-17v-8.5h17V25.7H34.2v17h-8.5v-17h-8.5v17h-17v-8.5h8.5V13
	c0-3.2,1.3-6.4,3.5-8.8c2.4-2.5,5.8-4,9.3-4h457.6c3.3,0,6.4,1.3,8.8,3.5c2.6,2.4,4,5.7,3.9,9.2c0,1.4,0.1,348.3,0,376.5
	c0,7-5.7,12.7-12.7,12.8c0,0,0,0,0,0H21.5c-3.7-0.1-7.2-1.7-9.7-4.4c-2-2.3-3.1-5.3-3.1-8.3v-21.3H0.2L0.2,359.7z"/>
<rect x="170.4" y="380.6" class="st1" width="53.2" height="8.9"/>
<polygon class="st2" points="24.8,7.3 18.3,7.3 15,13 18.3,18.6 24.8,18.6 28.1,13 "/>
<polygon class="st2" points="24.8,383.8 18.3,383.8 15,389.5 18.3,395.2 24.8,395.2 28.1,389.5 "/>
<polygon class="st2" points="482.3,7.3 475.8,7.3 472.5,13 475.8,18.6 482.3,18.6 485.6,13 "/>
<polygon class="st2" points="482.3,383.8 475.8,383.8 472.5,389.5 475.8,395.2 482.3,395.2 485.6,389.5 "/>
</svg>
