<?xml version="1.0" encoding="utf-8"?>
<!-- Generator: Adobe Illustrator 25.0.1, SVG Export Plug-In . SVG Version: 6.00 Build 0)  -->
<svg version="1.1" id="Layer_1" xmlns="http://www.w3.org/2000/svg" xmlns:xlink="http://www.w3.org/1999/xlink" x="0px" y="0px"
	 viewBox="0 0 699.9 146.4" style="enable-background:new 0 0 699.9 146.4;" xml:space="preserve">
<style type="text/css">
	.st0{fill:none;stroke:#231F20;stroke-width:0.4;stroke-miterlimit:10;}
</style>
<polygon class="st0" points="16.2,7.3 9.7,7.3 6.4,13 9.7,18.7 16.2,18.7 19.5,13 "/>
<polygon class="st0" points="690.2,127.8 683.7,127.8 680.4,133.4 683.7,139.1 690.2,139.1 693.5,133.4 "/>
<polygon class="st0" points="690.2,7.3 683.7,7.3 680.4,13 683.7,18.7 690.2,18.7 693.5,13 "/>
<path class="st0" d="M0.2,43.4l8.5,0v8.5h8.5v-8.5h8.5l0-17.7h648.5l0,17.7h8.5v8.5h8.5v-8.5l8.5,0l0.1-30.4
	c0-7.1-5.7-12.8-12.8-12.8L12.8,0C5.8,0,0,5.8,0.1,12.8L0.2,43.4z"/>
<path class="st0" d="M8.7,94.4v8.5H0.2v17.7h8.5v-8.5H4.4v-4.2h17v4.2h-4.2v8.5l8.5,8.7h8.5v-4.3h4.2v17h-4.2v-4.2h-8.5l0,8.3
	l311.5,0v-8.3h-8.5v4.2h-4.2v-17h4.2v4.2h42.5v-4.2h4.2v17h-4.2v-4.2h-8.5v8.3l324.2,0.2c7,0,12.8-5.7,12.8-12.8l0-30.7h-8.5v-8.5
	h-8.5v8.5h-8.5l0,17.7H25.7l0-17.7h-8.5v-8.5H8.7z"/>
</svg>
