<?xml version="1.0" encoding="utf-8"?>
<!-- Generator: Adobe Illustrator 25.0.1, SVG Export Plug-In . SVG Version: 6.00 Build 0)  -->
<svg version="1.1" id="Layer_1" xmlns="http://www.w3.org/2000/svg" xmlns:xlink="http://www.w3.org/1999/xlink" x="0px" y="0px"
	 viewBox="0 0 1036.9 402.4" style="enable-background:new 0 0 1036.9 402.4;" xml:space="preserve">
<style type="text/css">
	.st0{fill:none;stroke:#010101;stroke-width:0.4;stroke-miterlimit:11.34;}
	.st1{fill:none;stroke:#231F20;stroke-width:0.4;stroke-miterlimit:10;}
	.st2{display:none;fill:none;stroke:#010101;stroke-width:0.4;stroke-miterlimit:11.34;}
	.st3{display:none;}
</style>
<polygon class="st0" points="1024,0.2 1025,0.2 1026,0.4 1026.9,0.6 1027.9,0.8 1028.8,1.2 1029.8,1.6 1030.6,2.1 1031.5,2.6 
	1032.3,3.3 1033,3.9 1033.7,4.7 1034.3,5.5 1034.8,6.3 1035.3,7.2 1035.8,8.1 1036.1,9 1036.4,10 1036.6,11 1036.7,12 1036.7,13 
	1036.7,389.5 1036.7,390.5 1036.6,391.5 1036.4,392.5 1036.1,393.4 1035.8,394.4 1035.3,395.3 1034.8,396.1 1034.3,397 
	1033.7,397.8 1033,398.5 1032.3,399.2 1031.5,399.8 1030.6,400.4 1029.8,400.8 1028.8,401.3 1027.9,401.6 1026.9,401.9 1026,402.1 
	1025,402.2 1024,402.2 13,402.2 12,402.2 11,402.1 10,401.9 9,401.6 8.1,401.3 7.2,400.8 6.3,400.4 5.5,399.8 4.7,399.2 3.9,398.5 
	3.3,397.8 2.6,397 2.1,396.1 1.6,395.3 1.2,394.4 0.8,393.4 0.6,392.5 0.4,391.5 0.2,390.5 0.2,389.5 0.2,13 0.2,12 0.4,11 0.6,10 
	0.8,9 1.2,8.1 1.6,7.2 2.1,6.3 2.6,5.5 3.3,4.7 3.9,3.9 4.7,3.3 5.5,2.6 6.3,2.1 7.2,1.6 8.1,1.2 9,0.8 10,0.6 11,0.4 12,0.2 
	13,0.2 "/>
<polygon class="st0" points="377.1,329.9 377.1,332.7 374.9,332.7 374.9,341.5 377.1,341.5 377.1,343.2 264.8,343.2 264.8,334 
	259.9,334 259.9,331.4 250.6,331.4 250.6,334 245.7,334 245.7,343.2 243.3,343.2 243.3,351.1 245.7,351.1 245.7,368.9 250.6,368.9 
	250.6,371.7 259.9,371.7 259.9,368.9 264.8,368.9 264.8,356.2 377.1,356.2 377.1,357.9 374.9,357.9 374.9,366.7 377.1,366.7 
	377.1,369.6 416.8,369.6 416.8,366.7 419.1,366.7 419.1,357.9 416.8,357.9 416.8,356.2 529.1,356.2 529.1,368.9 534,368.9 
	534,371.7 543.4,371.7 543.4,368.9 548.3,368.9 548.3,351.1 550.6,351.1 550.6,343.2 548.3,343.2 548.3,334 543.4,334 543.4,331.4 
	534,331.4 534,334 529.1,334 529.1,343.2 416.8,343.2 416.8,341.5 419.1,341.5 419.1,332.7 416.8,332.7 416.8,329.9 "/>
<polygon class="st0" points="964.4,329.9 964.4,332.7 962.1,332.7 962.1,341.5 964.4,341.5 964.4,357.9 962.1,357.9 962.1,366.7 
	964.4,366.7 964.4,369.6 1004.1,369.6 1004.1,366.7 1006.3,366.7 1006.3,357.9 1004.1,357.9 1004.1,341.5 1006.3,341.5 
	1006.3,332.7 1004.1,332.7 1004.1,329.9 "/>
<polygon class="st0" points="910.4,329.9 910.4,332.7 908.1,332.7 908.1,341.5 910.4,341.5 910.4,357.9 908.1,357.9 908.1,366.7 
	910.4,366.7 910.4,369.6 950.1,369.6 950.1,366.7 952.3,366.7 952.3,357.9 950.1,357.9 950.1,341.5 952.3,341.5 952.3,332.7 
	950.1,332.7 950.1,329.9 "/>
<polygon class="st0" points="856.4,329.9 856.4,332.7 854.1,332.7 854.1,341.5 856.4,341.5 856.4,357.9 854.1,357.9 854.1,366.7 
	856.4,366.7 856.4,369.6 896.1,369.6 896.1,366.7 898.3,366.7 898.3,357.9 896.1,357.9 896.1,341.5 898.3,341.5 898.3,332.7 
	896.1,332.7 896.1,329.9 "/>
<polygon class="st0" points="782.1,329.9 782.1,332.7 779.8,332.7 779.8,341.5 782.1,341.5 782.1,357.9 779.8,357.9 779.8,366.7 
	782.1,366.7 782.1,369.6 821.8,369.6 821.8,366.7 824.1,366.7 824.1,357.9 821.8,357.9 821.8,341.5 824.1,341.5 824.1,332.7 
	821.8,332.7 821.8,329.9 "/>
<polygon class="st0" points="714.6,329.9 714.6,332.7 712.4,332.7 712.4,341.5 714.6,341.5 714.6,357.9 712.4,357.9 712.4,366.7 
	714.6,366.7 714.6,369.6 754.3,369.6 754.3,366.7 756.6,366.7 756.6,357.9 754.3,357.9 754.3,341.5 756.6,341.5 756.6,332.7 
	754.3,332.7 754.3,329.9 "/>
<polygon class="st0" points="647.1,329.9 647.1,332.7 644.8,332.7 644.8,341.5 647.1,341.5 647.1,357.9 644.8,357.9 644.8,366.7 
	647.1,366.7 647.1,369.6 686.8,369.6 686.8,366.7 689.1,366.7 689.1,357.9 686.8,357.9 686.8,341.5 689.1,341.5 689.1,332.7 
	686.8,332.7 686.8,329.9 "/>
<polygon class="st0" points="579.6,329.9 579.6,332.7 577.4,332.7 577.4,341.5 579.6,341.5 579.6,357.9 577.4,357.9 577.4,366.7 
	579.6,366.7 579.6,369.6 619.3,369.6 619.3,366.7 621.6,366.7 621.6,357.9 619.3,357.9 619.3,341.5 621.6,341.5 621.6,332.7 
	619.3,332.7 619.3,329.9 "/>
<polygon class="st0" points="174.6,329.9 174.6,332.7 172.4,332.7 172.4,341.5 174.6,341.5 174.6,357.9 172.4,357.9 172.4,366.7 
	174.6,366.7 174.6,369.6 214.3,369.6 214.3,366.7 216.6,366.7 216.6,357.9 214.3,357.9 214.3,341.5 216.6,341.5 216.6,332.7 
	214.3,332.7 214.3,329.9 "/>
<polygon class="st0" points="107.1,329.9 107.1,332.7 104.8,332.7 104.8,341.5 107.1,341.5 107.1,357.9 104.8,357.9 104.8,366.7 
	107.1,366.7 107.1,369.6 146.8,369.6 146.8,366.7 149.1,366.7 149.1,357.9 146.8,357.9 146.8,341.5 149.1,341.5 149.1,332.7 
	146.8,332.7 146.8,329.9 "/>
<polygon class="st0" points="39.6,329.9 39.6,332.7 37.3,332.7 37.3,341.5 39.6,341.5 39.6,357.9 37.3,357.9 37.3,366.7 39.6,366.7 
	39.6,369.6 79.3,369.6 79.3,366.7 81.6,366.7 81.6,357.9 79.3,357.9 79.3,341.5 81.6,341.5 81.6,332.7 79.3,332.7 79.3,329.9 "/>
<polygon class="st0" points="741.6,275.9 741.6,278.7 739.4,278.7 739.4,287.5 741.6,287.5 741.6,289.2 737.3,289.2 737.3,280 
	732.4,280 732.4,277.4 723,277.4 723,280 718.2,280 718.2,289.2 715.8,289.2 715.8,297.1 718.2,297.1 718.2,314.9 723,314.9 
	723,317.7 732.4,317.7 732.4,314.9 737.3,314.9 737.3,302.2 741.6,302.2 741.6,303.9 739.4,303.9 739.4,312.7 741.6,312.7 
	741.6,315.6 781.3,315.6 781.3,312.7 783.6,312.7 783.6,303.9 781.3,303.9 781.3,302.2 785.6,302.2 785.6,314.9 790.5,314.9 
	790.5,317.7 799.9,317.7 799.9,314.9 804.8,314.9 804.8,297.1 807.1,297.1 807.1,289.2 804.8,289.2 804.8,280 799.9,280 
	799.9,277.4 790.5,277.4 790.5,280 785.6,280 785.6,289.2 781.3,289.2 781.3,287.5 783.6,287.5 783.6,278.7 781.3,278.7 
	781.3,275.9 "/>
<polygon class="st0" points="66.6,275.9 66.6,278.7 64.4,278.7 64.4,287.5 66.6,287.5 66.6,289.2 62.3,289.2 62.3,280 57.4,280 
	57.4,277.4 48,277.4 48,280 43.2,280 43.2,289.2 40.8,289.2 40.8,297.1 43.2,297.1 43.2,314.9 48,314.9 48,317.7 57.4,317.7 
	57.4,314.9 62.3,314.9 62.3,302.2 66.6,302.2 66.6,303.9 64.4,303.9 64.4,312.7 66.6,312.7 66.6,315.6 106.3,315.6 106.3,312.7 
	108.6,312.7 108.6,303.9 106.3,303.9 106.3,302.2 110.6,302.2 110.6,314.9 115.5,314.9 115.5,317.7 124.9,317.7 124.9,314.9 
	129.8,314.9 129.8,297.1 132.1,297.1 132.1,289.2 129.8,289.2 129.8,280 124.9,280 124.9,277.4 115.5,277.4 115.5,280 110.6,280 
	110.6,289.2 106.3,289.2 106.3,287.5 108.6,287.5 108.6,278.7 106.3,278.7 106.3,275.9 "/>
<polygon class="st0" points="910.4,275.9 910.4,278.7 908.1,278.7 908.1,287.5 910.4,287.5 910.4,303.9 908.1,303.9 908.1,312.7 
	910.4,312.7 910.4,315.6 950.1,315.6 950.1,312.7 952.3,312.7 952.3,303.9 950.1,303.9 950.1,287.5 952.3,287.5 952.3,278.7 
	950.1,278.7 950.1,275.9 "/>
<polygon class="st0" points="640.4,275.9 640.4,278.7 638.1,278.7 638.1,287.5 640.4,287.5 640.4,303.9 638.1,303.9 638.1,312.7 
	640.4,312.7 640.4,315.6 680.1,315.6 680.1,312.7 682.3,312.7 682.3,303.9 680.1,303.9 680.1,287.5 682.3,287.5 682.3,278.7 
	680.1,278.7 680.1,275.9 "/>
<polygon class="st0" points="586.4,275.9 586.4,278.7 584.1,278.7 584.1,287.5 586.4,287.5 586.4,303.9 584.1,303.9 584.1,312.7 
	586.4,312.7 586.4,315.6 626.1,315.6 626.1,312.7 628.3,312.7 628.3,303.9 626.1,303.9 626.1,287.5 628.3,287.5 628.3,278.7 
	626.1,278.7 626.1,275.9 "/>
<polygon class="st0" points="532.4,275.9 532.4,278.7 530.1,278.7 530.1,287.5 532.4,287.5 532.4,303.9 530.1,303.9 530.1,312.7 
	532.4,312.7 532.4,315.6 572.1,315.6 572.1,312.7 574.3,312.7 574.3,303.9 572.1,303.9 572.1,287.5 574.3,287.5 574.3,278.7 
	572.1,278.7 572.1,275.9 "/>
<polygon class="st0" points="478.4,275.9 478.4,278.7 476.1,278.7 476.1,287.5 478.4,287.5 478.4,303.9 476.1,303.9 476.1,312.7 
	478.4,312.7 478.4,315.6 518.1,315.6 518.1,312.7 520.3,312.7 520.3,303.9 518.1,303.9 518.1,287.5 520.3,287.5 520.3,278.7 
	518.1,278.7 518.1,275.9 "/>
<polygon class="st0" points="424.4,275.9 424.4,278.7 422.1,278.7 422.1,287.5 424.4,287.5 424.4,303.9 422.1,303.9 422.1,312.7 
	424.4,312.7 424.4,315.6 464.1,315.6 464.1,312.7 466.3,312.7 466.3,303.9 464.1,303.9 464.1,287.5 466.3,287.5 466.3,278.7 
	464.1,278.7 464.1,275.9 "/>
<polygon class="st0" points="370.4,275.9 370.4,278.7 368.1,278.7 368.1,287.5 370.4,287.5 370.4,303.9 368.1,303.9 368.1,312.7 
	370.4,312.7 370.4,315.6 410.1,315.6 410.1,312.7 412.3,312.7 412.3,303.9 410.1,303.9 410.1,287.5 412.3,287.5 412.3,278.7 
	410.1,278.7 410.1,275.9 "/>
<polygon class="st0" points="316.4,275.9 316.4,278.7 314.1,278.7 314.1,287.5 316.4,287.5 316.4,303.9 314.1,303.9 314.1,312.7 
	316.4,312.7 316.4,315.6 356.1,315.6 356.1,312.7 358.3,312.7 358.3,303.9 356.1,303.9 356.1,287.5 358.3,287.5 358.3,278.7 
	356.1,278.7 356.1,275.9 "/>
<polygon class="st0" points="262.4,275.9 262.4,278.7 260.1,278.7 260.1,287.5 262.4,287.5 262.4,303.9 260.1,303.9 260.1,312.7 
	262.4,312.7 262.4,315.6 302.1,315.6 302.1,312.7 304.3,312.7 304.3,303.9 302.1,303.9 302.1,287.5 304.3,287.5 304.3,278.7 
	302.1,278.7 302.1,275.9 "/>
<polygon class="st0" points="208.4,275.9 208.4,278.7 206.1,278.7 206.1,287.5 208.4,287.5 208.4,303.9 206.1,303.9 206.1,312.7 
	208.4,312.7 208.4,315.6 248.1,315.6 248.1,312.7 250.3,312.7 250.3,303.9 248.1,303.9 248.1,287.5 250.3,287.5 250.3,278.7 
	248.1,278.7 248.1,275.9 "/>
<polygon class="st0" points="154.4,275.9 154.4,278.7 152.1,278.7 152.1,287.5 154.4,287.5 154.4,303.9 152.1,303.9 152.1,312.7 
	154.4,312.7 154.4,315.6 194.1,315.6 194.1,312.7 196.3,312.7 196.3,303.9 194.1,303.9 194.1,287.5 196.3,287.5 196.3,278.7 
	194.1,278.7 194.1,275.9 "/>
<polygon class="st0" points="755.1,221.9 755.1,224.7 752.8,224.7 752.8,233.5 755.1,233.5 755.1,235.2 750.8,235.2 750.8,226 
	745.9,226 745.9,223.4 736.5,223.4 736.5,226 731.7,226 731.7,235.2 729.3,235.2 729.3,243.1 731.7,243.1 731.7,260.9 736.5,260.9 
	736.5,263.7 745.9,263.7 745.9,260.9 750.8,260.9 750.8,248.2 755.1,248.2 755.1,249.9 752.8,249.9 752.8,258.7 755.1,258.7 
	755.1,261.6 794.8,261.6 794.8,258.7 797.1,258.7 797.1,249.9 794.8,249.9 794.8,248.2 799.1,248.2 799.1,260.9 804,260.9 
	804,263.7 813.4,263.7 813.4,260.9 818.3,260.9 818.3,243.1 820.6,243.1 820.6,235.2 818.3,235.2 818.3,226 813.4,226 813.4,223.4 
	804,223.4 804,226 799.1,226 799.1,235.2 794.8,235.2 794.8,233.5 797.1,233.5 797.1,224.7 794.8,224.7 794.8,221.9 "/>
<polygon class="st0" points="667.4,221.9 667.4,224.7 665.1,224.7 665.1,233.5 667.4,233.5 667.4,249.9 665.1,249.9 665.1,258.7 
	667.4,258.7 667.4,261.6 707.1,261.6 707.1,258.7 709.3,258.7 709.3,249.9 707.1,249.9 707.1,233.5 709.3,233.5 709.3,224.7 
	707.1,224.7 707.1,221.9 "/>
<polygon class="st0" points="613.4,221.9 613.4,224.7 611.1,224.7 611.1,233.5 613.4,233.5 613.4,249.9 611.1,249.9 611.1,258.7 
	613.4,258.7 613.4,261.6 653.1,261.6 653.1,258.7 655.3,258.7 655.3,249.9 653.1,249.9 653.1,233.5 655.3,233.5 655.3,224.7 
	653.1,224.7 653.1,221.9 "/>
<polygon class="st0" points="559.4,221.9 559.4,224.7 557.1,224.7 557.1,233.5 559.4,233.5 559.4,249.9 557.1,249.9 557.1,258.7 
	559.4,258.7 559.4,261.6 599.1,261.6 599.1,258.7 601.3,258.7 601.3,249.9 599.1,249.9 599.1,233.5 601.3,233.5 601.3,224.7 
	599.1,224.7 599.1,221.9 "/>
<polygon class="st0" points="505.4,221.9 505.4,224.7 503.1,224.7 503.1,233.5 505.4,233.5 505.4,249.9 503.1,249.9 503.1,258.7 
	505.4,258.7 505.4,261.6 545.1,261.6 545.1,258.7 547.3,258.7 547.3,249.9 545.1,249.9 545.1,233.5 547.3,233.5 547.3,224.7 
	545.1,224.7 545.1,221.9 "/>
<polygon class="st0" points="451.4,221.9 451.4,224.7 449.1,224.7 449.1,233.5 451.4,233.5 451.4,249.9 449.1,249.9 449.1,258.7 
	451.4,258.7 451.4,261.6 491.1,261.6 491.1,258.7 493.3,258.7 493.3,249.9 491.1,249.9 491.1,233.5 493.3,233.5 493.3,224.7 
	491.1,224.7 491.1,221.9 "/>
<polygon class="st0" points="397.4,221.9 397.4,224.7 395.1,224.7 395.1,233.5 397.4,233.5 397.4,249.9 395.1,249.9 395.1,258.7 
	397.4,258.7 397.4,261.6 437.1,261.6 437.1,258.7 439.3,258.7 439.3,249.9 437.1,249.9 437.1,233.5 439.3,233.5 439.3,224.7 
	437.1,224.7 437.1,221.9 "/>
<polygon class="st0" points="343.4,221.9 343.4,224.7 341.1,224.7 341.1,233.5 343.4,233.5 343.4,249.9 341.1,249.9 341.1,258.7 
	343.4,258.7 343.4,261.6 383.1,261.6 383.1,258.7 385.3,258.7 385.3,249.9 383.1,249.9 383.1,233.5 385.3,233.5 385.3,224.7 
	383.1,224.7 383.1,221.9 "/>
<polygon class="st0" points="289.4,221.9 289.4,224.7 287.1,224.7 287.1,233.5 289.4,233.5 289.4,249.9 287.1,249.9 287.1,258.7 
	289.4,258.7 289.4,261.6 329.1,261.6 329.1,258.7 331.3,258.7 331.3,249.9 329.1,249.9 329.1,233.5 331.3,233.5 331.3,224.7 
	329.1,224.7 329.1,221.9 "/>
<polygon class="st0" points="235.4,221.9 235.4,224.7 233.1,224.7 233.1,233.5 235.4,233.5 235.4,249.9 233.1,249.9 233.1,258.7 
	235.4,258.7 235.4,261.6 275.1,261.6 275.1,258.7 277.3,258.7 277.3,249.9 275.1,249.9 275.1,233.5 277.3,233.5 277.3,224.7 
	275.1,224.7 275.1,221.9 "/>
<polygon class="st0" points="181.4,221.9 181.4,224.7 179.1,224.7 179.1,233.5 181.4,233.5 181.4,249.9 179.1,249.9 179.1,258.7 
	181.4,258.7 181.4,261.6 221.1,261.6 221.1,258.7 223.3,258.7 223.3,249.9 221.1,249.9 221.1,233.5 223.3,233.5 223.3,224.7 
	221.1,224.7 221.1,221.9 "/>
<polygon class="st0" points="127.4,221.9 127.4,224.7 125.1,224.7 125.1,233.5 127.4,233.5 127.4,249.9 125.1,249.9 125.1,258.7 
	127.4,258.7 127.4,261.6 167.1,261.6 167.1,258.7 169.3,258.7 169.3,249.9 167.1,249.9 167.1,233.5 169.3,233.5 169.3,224.7 
	167.1,224.7 167.1,221.9 "/>
<polygon class="st0" points="53.1,221.9 53.1,224.7 50.8,224.7 50.8,233.5 53.1,233.5 53.1,249.9 50.8,249.9 50.8,258.7 53.1,258.7 
	53.1,261.6 92.8,261.6 92.8,258.7 95.1,258.7 95.1,249.9 92.8,249.9 92.8,233.5 95.1,233.5 95.1,224.7 92.8,224.7 92.8,221.9 "/>
<polygon class="st0" points="964.4,167.9 964.4,170.7 962.1,170.7 962.1,179.5 964.4,179.5 964.4,195.9 962.1,195.9 962.1,204.7 
	964.4,204.7 964.4,207.6 1004.1,207.6 1004.1,204.7 1006.3,204.7 1006.3,195.9 1004.1,195.9 1004.1,179.5 1006.3,179.5 
	1006.3,170.7 1004.1,170.7 1004.1,167.9 "/>
<polygon class="st0" points="910.4,167.9 910.4,170.7 908.1,170.7 908.1,179.5 910.4,179.5 910.4,195.9 908.1,195.9 908.1,204.7 
	910.4,204.7 910.4,207.6 950.1,207.6 950.1,204.7 952.3,204.7 952.3,195.9 950.1,195.9 950.1,179.5 952.3,179.5 952.3,170.7 
	950.1,170.7 950.1,167.9 "/>
<polygon class="st0" points="856.4,167.9 856.4,170.7 854.1,170.7 854.1,179.5 856.4,179.5 856.4,195.9 854.1,195.9 854.1,204.7 
	856.4,204.7 856.4,207.6 896.1,207.6 896.1,204.7 898.3,204.7 898.3,195.9 896.1,195.9 896.1,179.5 898.3,179.5 898.3,170.7 
	896.1,170.7 896.1,167.9 "/>
<polygon class="st0" points="775.4,167.9 775.4,170.7 773.1,170.7 773.1,179.5 775.4,179.5 775.4,195.9 773.1,195.9 773.1,204.7 
	775.4,204.7 775.4,207.6 815.1,207.6 815.1,204.7 817.3,204.7 817.3,195.9 815.1,195.9 815.1,179.5 817.3,179.5 817.3,170.7 
	815.1,170.7 815.1,167.9 "/>
<polygon class="st0" points="707.9,167.9 707.9,170.7 705.6,170.7 705.6,179.5 707.9,179.5 707.9,195.9 705.6,195.9 705.6,204.7 
	707.9,204.7 707.9,207.6 747.6,207.6 747.6,204.7 749.8,204.7 749.8,195.9 747.6,195.9 747.6,179.5 749.8,179.5 749.8,170.7 
	747.6,170.7 747.6,167.9 "/>
<polygon class="st0" points="653.9,167.9 653.9,170.7 651.6,170.7 651.6,179.5 653.9,179.5 653.9,195.9 651.6,195.9 651.6,204.7 
	653.9,204.7 653.9,207.6 693.6,207.6 693.6,204.7 695.8,204.7 695.8,195.9 693.6,195.9 693.6,179.5 695.8,179.5 695.8,170.7 
	693.6,170.7 693.6,167.9 "/>
<polygon class="st0" points="599.9,167.9 599.9,170.7 597.6,170.7 597.6,179.5 599.9,179.5 599.9,195.9 597.6,195.9 597.6,204.7 
	599.9,204.7 599.9,207.6 639.6,207.6 639.6,204.7 641.8,204.7 641.8,195.9 639.6,195.9 639.6,179.5 641.8,179.5 641.8,170.7 
	639.6,170.7 639.6,167.9 "/>
<polygon class="st0" points="545.9,167.9 545.9,170.7 543.6,170.7 543.6,179.5 545.9,179.5 545.9,195.9 543.6,195.9 543.6,204.7 
	545.9,204.7 545.9,207.6 585.6,207.6 585.6,204.7 587.8,204.7 587.8,195.9 585.6,195.9 585.6,179.5 587.8,179.5 587.8,170.7 
	585.6,170.7 585.6,167.9 "/>
<polygon class="st0" points="491.9,167.9 491.9,170.7 489.6,170.7 489.6,179.5 491.9,179.5 491.9,195.9 489.6,195.9 489.6,204.7 
	491.9,204.7 491.9,207.6 531.6,207.6 531.6,204.7 533.8,204.7 533.8,195.9 531.6,195.9 531.6,179.5 533.8,179.5 533.8,170.7 
	531.6,170.7 531.6,167.9 "/>
<polygon class="st0" points="437.9,167.9 437.9,170.7 435.6,170.7 435.6,179.5 437.9,179.5 437.9,195.9 435.6,195.9 435.6,204.7 
	437.9,204.7 437.9,207.6 477.6,207.6 477.6,204.7 479.8,204.7 479.8,195.9 477.6,195.9 477.6,179.5 479.8,179.5 479.8,170.7 
	477.6,170.7 477.6,167.9 "/>
<polygon class="st0" points="383.9,167.9 383.9,170.7 381.6,170.7 381.6,179.5 383.9,179.5 383.9,195.9 381.6,195.9 381.6,204.7 
	383.9,204.7 383.9,207.6 423.6,207.6 423.6,204.7 425.8,204.7 425.8,195.9 423.6,195.9 423.6,179.5 425.8,179.5 425.8,170.7 
	423.6,170.7 423.6,167.9 "/>
<polygon class="st0" points="329.9,167.9 329.9,170.7 327.6,170.7 327.6,179.5 329.9,179.5 329.9,195.9 327.6,195.9 327.6,204.7 
	329.9,204.7 329.9,207.6 369.6,207.6 369.6,204.7 371.8,204.7 371.8,195.9 369.6,195.9 369.6,179.5 371.8,179.5 371.8,170.7 
	369.6,170.7 369.6,167.9 "/>
<polygon class="st0" points="275.9,167.9 275.9,170.7 273.6,170.7 273.6,179.5 275.9,179.5 275.9,195.9 273.6,195.9 273.6,204.7 
	275.9,204.7 275.9,207.6 315.6,207.6 315.6,204.7 317.8,204.7 317.8,195.9 315.6,195.9 315.6,179.5 317.8,179.5 317.8,170.7 
	315.6,170.7 315.6,167.9 "/>
<polygon class="st0" points="221.9,167.9 221.9,170.7 219.6,170.7 219.6,179.5 221.9,179.5 221.9,195.9 219.6,195.9 219.6,204.7 
	221.9,204.7 221.9,207.6 261.6,207.6 261.6,204.7 263.8,204.7 263.8,195.9 261.6,195.9 261.6,179.5 263.8,179.5 263.8,170.7 
	261.6,170.7 261.6,167.9 "/>
<polygon class="st0" points="167.9,167.9 167.9,170.7 165.6,170.7 165.6,179.5 167.9,179.5 167.9,195.9 165.6,195.9 165.6,204.7 
	167.9,204.7 167.9,207.6 207.6,207.6 207.6,204.7 209.8,204.7 209.8,195.9 207.6,195.9 207.6,179.5 209.8,179.5 209.8,170.7 
	207.6,170.7 207.6,167.9 "/>
<polygon class="st0" points="113.9,167.9 113.9,170.7 111.6,170.7 111.6,179.5 113.9,179.5 113.9,195.9 111.6,195.9 111.6,204.7 
	113.9,204.7 113.9,207.6 153.6,207.6 153.6,204.7 155.8,204.7 155.8,195.9 153.6,195.9 153.6,179.5 155.8,179.5 155.8,170.7 
	153.6,170.7 153.6,167.9 "/>
<polygon class="st0" points="46.4,167.9 46.4,170.7 44.1,170.7 44.1,179.5 46.4,179.5 46.4,195.9 44.1,195.9 44.1,204.7 46.4,204.7 
	46.4,207.6 86.1,207.6 86.1,204.7 88.3,204.7 88.3,195.9 86.1,195.9 86.1,179.5 88.3,179.5 88.3,170.7 86.1,170.7 86.1,167.9 "/>
<polygon class="st0" points="761.9,113.9 761.9,116.7 759.6,116.7 759.6,125.5 761.9,125.5 761.9,127.2 757.5,127.2 757.5,118 
	752.7,118 752.7,115.4 743.3,115.4 743.3,118 738.4,118 738.4,127.2 736.1,127.2 736.1,135.1 738.4,135.1 738.4,152.9 743.3,152.9 
	743.3,155.7 752.7,155.7 752.7,152.9 757.5,152.9 757.5,140.2 761.9,140.2 761.9,141.9 759.6,141.9 759.6,150.7 761.9,150.7 
	761.9,153.6 801.6,153.6 801.6,150.7 803.8,150.7 803.8,141.9 801.6,141.9 801.6,140.2 805.9,140.2 805.9,152.9 810.8,152.9 
	810.8,155.7 820.1,155.7 820.1,152.9 825,152.9 825,135.1 827.3,135.1 827.3,127.2 825,127.2 825,118 820.1,118 820.1,115.4 
	810.8,115.4 810.8,118 805.9,118 805.9,127.2 801.6,127.2 801.6,125.5 803.8,125.5 803.8,116.7 801.6,116.7 801.6,113.9 "/>
<polygon class="st0" points="964.4,113.9 964.4,116.7 962.1,116.7 962.1,125.5 964.4,125.5 964.4,141.9 962.1,141.9 962.1,150.7 
	964.4,150.7 964.4,153.6 1004.1,153.6 1004.1,150.7 1006.3,150.7 1006.3,141.9 1004.1,141.9 1004.1,125.5 1006.3,125.5 
	1006.3,116.7 1004.1,116.7 1004.1,113.9 "/>
<polygon class="st0" points="910.4,113.9 910.4,116.7 908.1,116.7 908.1,125.5 910.4,125.5 910.4,141.9 908.1,141.9 908.1,150.7 
	910.4,150.7 910.4,153.6 950.1,153.6 950.1,150.7 952.3,150.7 952.3,141.9 950.1,141.9 950.1,125.5 952.3,125.5 952.3,116.7 
	950.1,116.7 950.1,113.9 "/>
<polygon class="st0" points="856.4,113.9 856.4,116.7 854.1,116.7 854.1,125.5 856.4,125.5 856.4,141.9 854.1,141.9 854.1,150.7 
	856.4,150.7 856.4,153.6 896.1,153.6 896.1,150.7 898.3,150.7 898.3,141.9 896.1,141.9 896.1,125.5 898.3,125.5 898.3,116.7 
	896.1,116.7 896.1,113.9 "/>
<polygon class="st0" points="680.9,113.9 680.9,116.7 678.6,116.7 678.6,125.5 680.9,125.5 680.9,141.9 678.6,141.9 678.6,150.7 
	680.9,150.7 680.9,153.6 720.6,153.6 720.6,150.7 722.8,150.7 722.8,141.9 720.6,141.9 720.6,125.5 722.8,125.5 722.8,116.7 
	720.6,116.7 720.6,113.9 "/>
<polygon class="st0" points="626.9,113.9 626.9,116.7 624.6,116.7 624.6,125.5 626.9,125.5 626.9,141.9 624.6,141.9 624.6,150.7 
	626.9,150.7 626.9,153.6 666.6,153.6 666.6,150.7 668.8,150.7 668.8,141.9 666.6,141.9 666.6,125.5 668.8,125.5 668.8,116.7 
	666.6,116.7 666.6,113.9 "/>
<polygon class="st0" points="572.9,113.9 572.9,116.7 570.6,116.7 570.6,125.5 572.9,125.5 572.9,141.9 570.6,141.9 570.6,150.7 
	572.9,150.7 572.9,153.6 612.6,153.6 612.6,150.7 614.8,150.7 614.8,141.9 612.6,141.9 612.6,125.5 614.8,125.5 614.8,116.7 
	612.6,116.7 612.6,113.9 "/>
<polygon class="st0" points="518.9,113.9 518.9,116.7 516.6,116.7 516.6,125.5 518.9,125.5 518.9,141.9 516.6,141.9 516.6,150.7 
	518.9,150.7 518.9,153.6 558.6,153.6 558.6,150.7 560.8,150.7 560.8,141.9 558.6,141.9 558.6,125.5 560.8,125.5 560.8,116.7 
	558.6,116.7 558.6,113.9 "/>
<polygon class="st0" points="464.9,113.9 464.9,116.7 462.6,116.7 462.6,125.5 464.9,125.5 464.9,141.9 462.6,141.9 462.6,150.7 
	464.9,150.7 464.9,153.6 504.6,153.6 504.6,150.7 506.8,150.7 506.8,141.9 504.6,141.9 504.6,125.5 506.8,125.5 506.8,116.7 
	504.6,116.7 504.6,113.9 "/>
<polygon class="st0" points="410.9,113.9 410.9,116.7 408.6,116.7 408.6,125.5 410.9,125.5 410.9,141.9 408.6,141.9 408.6,150.7 
	410.9,150.7 410.9,153.6 450.6,153.6 450.6,150.7 452.8,150.7 452.8,141.9 450.6,141.9 450.6,125.5 452.8,125.5 452.8,116.7 
	450.6,116.7 450.6,113.9 "/>
<polygon class="st0" points="356.9,113.9 356.9,116.7 354.6,116.7 354.6,125.5 356.9,125.5 356.9,141.9 354.6,141.9 354.6,150.7 
	356.9,150.7 356.9,153.6 396.6,153.6 396.6,150.7 398.8,150.7 398.8,141.9 396.6,141.9 396.6,125.5 398.8,125.5 398.8,116.7 
	396.6,116.7 396.6,113.9 "/>
<polygon class="st0" points="302.9,113.9 302.9,116.7 300.6,116.7 300.6,125.5 302.9,125.5 302.9,141.9 300.6,141.9 300.6,150.7 
	302.9,150.7 302.9,153.6 342.6,153.6 342.6,150.7 344.8,150.7 344.8,141.9 342.6,141.9 342.6,125.5 344.8,125.5 344.8,116.7 
	342.6,116.7 342.6,113.9 "/>
<polygon class="st0" points="248.9,113.9 248.9,116.7 246.6,116.7 246.6,125.5 248.9,125.5 248.9,141.9 246.6,141.9 246.6,150.7 
	248.9,150.7 248.9,153.6 288.6,153.6 288.6,150.7 290.8,150.7 290.8,141.9 288.6,141.9 288.6,125.5 290.8,125.5 290.8,116.7 
	288.6,116.7 288.6,113.9 "/>
<polygon class="st0" points="194.9,113.9 194.9,116.7 192.6,116.7 192.6,125.5 194.9,125.5 194.9,141.9 192.6,141.9 192.6,150.7 
	194.9,150.7 194.9,153.6 234.6,153.6 234.6,150.7 236.8,150.7 236.8,141.9 234.6,141.9 234.6,125.5 236.8,125.5 236.8,116.7 
	234.6,116.7 234.6,113.9 "/>
<polygon class="st0" points="140.9,113.9 140.9,116.7 138.6,116.7 138.6,125.5 140.9,125.5 140.9,141.9 138.6,141.9 138.6,150.7 
	140.9,150.7 140.9,153.6 180.6,153.6 180.6,150.7 182.8,150.7 182.8,141.9 180.6,141.9 180.6,125.5 182.8,125.5 182.8,116.7 
	180.6,116.7 180.6,113.9 "/>
<polygon class="st0" points="86.9,113.9 86.9,116.7 84.6,116.7 84.6,125.5 86.9,125.5 86.9,141.9 84.6,141.9 84.6,150.7 86.9,150.7 
	86.9,153.6 126.6,153.6 126.6,150.7 128.8,150.7 128.8,141.9 126.6,141.9 126.6,125.5 128.8,125.5 128.8,116.7 126.6,116.7 
	126.6,113.9 "/>
<polygon class="st0" points="32.9,113.9 32.9,116.7 30.6,116.7 30.6,125.5 32.9,125.5 32.9,141.9 30.6,141.9 30.6,150.7 32.9,150.7 
	32.9,153.6 72.6,153.6 72.6,150.7 74.8,150.7 74.8,141.9 72.6,141.9 72.6,125.5 74.8,125.5 74.8,116.7 72.6,116.7 72.6,113.9 "/>
<polygon class="st0" points="964.4,32.9 964.4,35.7 962.1,35.7 962.1,44.5 964.4,44.5 964.4,60.9 962.1,60.9 962.1,69.7 964.4,69.7 
	964.4,72.6 1004.1,72.6 1004.1,69.7 1006.3,69.7 1006.3,60.9 1004.1,60.9 1004.1,44.5 1006.3,44.5 1006.3,35.7 1004.1,35.7 
	1004.1,32.9 "/>
<polygon class="st0" points="910.4,32.9 910.4,35.7 908.1,35.7 908.1,44.5 910.4,44.5 910.4,60.9 908.1,60.9 908.1,69.7 910.4,69.7 
	910.4,72.6 950.1,72.6 950.1,69.7 952.3,69.7 952.3,60.9 950.1,60.9 950.1,44.5 952.3,44.5 952.3,35.7 950.1,35.7 950.1,32.9 "/>
<polygon class="st0" points="856.4,32.9 856.4,35.7 854.1,35.7 854.1,44.5 856.4,44.5 856.4,60.9 854.1,60.9 854.1,69.7 856.4,69.7 
	856.4,72.6 896.1,72.6 896.1,69.7 898.3,69.7 898.3,60.9 896.1,60.9 896.1,44.5 898.3,44.5 898.3,35.7 896.1,35.7 896.1,32.9 "/>
<polygon class="st0" points="788.9,32.9 788.9,35.7 786.6,35.7 786.6,44.5 788.9,44.5 788.9,60.9 786.6,60.9 786.6,69.7 788.9,69.7 
	788.9,72.6 828.6,72.6 828.6,69.7 830.8,69.7 830.8,60.9 828.6,60.9 828.6,44.5 830.8,44.5 830.8,35.7 828.6,35.7 828.6,32.9 "/>
<polygon class="st0" points="734.9,32.9 734.9,35.7 732.6,35.7 732.6,44.5 734.9,44.5 734.9,60.9 732.6,60.9 732.6,69.7 734.9,69.7 
	734.9,72.6 774.6,72.6 774.6,69.7 776.8,69.7 776.8,60.9 774.6,60.9 774.6,44.5 776.8,44.5 776.8,35.7 774.6,35.7 774.6,32.9 "/>
<polygon class="st0" points="680.9,32.9 680.9,35.7 678.6,35.7 678.6,44.5 680.9,44.5 680.9,60.9 678.6,60.9 678.6,69.7 680.9,69.7 
	680.9,72.6 720.6,72.6 720.6,69.7 722.8,69.7 722.8,60.9 720.6,60.9 720.6,44.5 722.8,44.5 722.8,35.7 720.6,35.7 720.6,32.9 "/>
<polygon class="st0" points="626.9,32.9 626.9,35.7 624.6,35.7 624.6,44.5 626.9,44.5 626.9,60.9 624.6,60.9 624.6,69.7 626.9,69.7 
	626.9,72.6 666.6,72.6 666.6,69.7 668.8,69.7 668.8,60.9 666.6,60.9 666.6,44.5 668.8,44.5 668.8,35.7 666.6,35.7 666.6,32.9 "/>
<polygon class="st0" points="545.9,32.9 545.9,35.7 543.6,35.7 543.6,44.5 545.9,44.5 545.9,60.9 543.6,60.9 543.6,69.7 545.9,69.7 
	545.9,72.6 585.6,72.6 585.6,69.7 587.8,69.7 587.8,60.9 585.6,60.9 585.6,44.5 587.8,44.5 587.8,35.7 585.6,35.7 585.6,32.9 "/>
<polygon class="st0" points="491.9,32.9 491.9,35.7 489.6,35.7 489.6,44.5 491.9,44.5 491.9,60.9 489.6,60.9 489.6,69.7 491.9,69.7 
	491.9,72.6 531.6,72.6 531.6,69.7 533.8,69.7 533.8,60.9 531.6,60.9 531.6,44.5 533.8,44.5 533.8,35.7 531.6,35.7 531.6,32.9 "/>
<polygon class="st0" points="437.9,32.9 437.9,35.7 435.6,35.7 435.6,44.5 437.9,44.5 437.9,60.9 435.6,60.9 435.6,69.7 437.9,69.7 
	437.9,72.6 477.6,72.6 477.6,69.7 479.8,69.7 479.8,60.9 477.6,60.9 477.6,44.5 479.8,44.5 479.8,35.7 477.6,35.7 477.6,32.9 "/>
<polygon class="st0" points="383.9,32.9 383.9,35.7 381.6,35.7 381.6,44.5 383.9,44.5 383.9,60.9 381.6,60.9 381.6,69.7 383.9,69.7 
	383.9,72.6 423.6,72.6 423.6,69.7 425.8,69.7 425.8,60.9 423.6,60.9 423.6,44.5 425.8,44.5 425.8,35.7 423.6,35.7 423.6,32.9 "/>
<polygon class="st0" points="302.9,32.9 302.9,35.7 300.6,35.7 300.6,44.5 302.9,44.5 302.9,60.9 300.6,60.9 300.6,69.7 302.9,69.7 
	302.9,72.6 342.6,72.6 342.6,69.7 344.8,69.7 344.8,60.9 342.6,60.9 342.6,44.5 344.8,44.5 344.8,35.7 342.6,35.7 342.6,32.9 "/>
<polygon class="st0" points="248.9,32.9 248.9,35.7 246.6,35.7 246.6,44.5 248.9,44.5 248.9,60.9 246.6,60.9 246.6,69.7 248.9,69.7 
	248.9,72.6 288.6,72.6 288.6,69.7 290.8,69.7 290.8,60.9 288.6,60.9 288.6,44.5 290.8,44.5 290.8,35.7 288.6,35.7 288.6,32.9 "/>
<polygon class="st0" points="194.9,32.9 194.9,35.7 192.6,35.7 192.6,44.5 194.9,44.5 194.9,60.9 192.6,60.9 192.6,69.7 194.9,69.7 
	194.9,72.6 234.6,72.6 234.6,69.7 236.8,69.7 236.8,60.9 234.6,60.9 234.6,44.5 236.8,44.5 236.8,35.7 234.6,35.7 234.6,32.9 "/>
<polygon class="st0" points="140.9,32.9 140.9,35.7 138.6,35.7 138.6,44.5 140.9,44.5 140.9,60.9 138.6,60.9 138.6,69.7 140.9,69.7 
	140.9,72.6 180.6,72.6 180.6,69.7 182.8,69.7 182.8,60.9 180.6,60.9 180.6,44.5 182.8,44.5 182.8,35.7 180.6,35.7 180.6,32.9 "/>
<polygon class="st0" points="32.9,32.9 32.9,35.7 30.6,35.7 30.6,44.5 32.9,44.5 32.9,60.9 30.6,60.9 30.6,69.7 32.9,69.7 
	32.9,72.6 72.6,72.6 72.6,69.7 74.8,69.7 74.8,60.9 72.6,60.9 72.6,44.5 74.8,44.5 74.8,35.7 72.6,35.7 72.6,32.9 "/>
<polygon class="st1" points="16.2,7.3 9.7,7.3 6.4,13 9.7,18.6 16.2,18.6 19.5,13 "/>
<polygon class="st1" points="16.2,383.8 9.7,383.8 6.4,389.5 9.7,395.1 16.2,395.1 19.5,389.5 "/>
<polygon class="st1" points="16.2,383.8 9.7,383.8 6.4,389.5 9.7,395.1 16.2,395.1 19.5,389.5 "/>
<polygon class="st1" points="353.2,7.3 346.7,7.3 343.4,13 346.7,18.6 353.2,18.6 356.5,13 "/>
<polygon class="st1" points="353.2,7.3 346.7,7.3 343.4,13 346.7,18.6 353.2,18.6 356.5,13 "/>
<polygon class="st1" points="353.2,383.8 346.7,383.8 343.4,389.5 346.7,395.1 353.2,395.1 356.5,389.5 "/>
<polygon class="st1" points="353.2,383.8 346.7,383.8 343.4,389.5 346.7,395.1 353.2,395.1 356.5,389.5 "/>
<polygon class="st1" points="690.2,7.3 683.7,7.3 680.4,13 683.7,18.6 690.2,18.6 693.5,13 "/>
<polygon class="st1" points="690.2,383.8 683.7,383.8 680.4,389.5 683.7,395.1 690.2,395.1 693.5,389.5 "/>
<polygon class="st1" points="1027.2,7.3 1020.7,7.3 1017.4,13 1020.7,18.6 1027.2,18.6 1030.5,13 "/>
<polygon class="st1" points="1027.2,383.8 1020.7,383.8 1017.4,389.5 1020.7,395.1 1027.2,395.1 1030.5,389.5 "/>
<rect x="30.6" y="32.9" class="st2" width="975.7" height="336.7"/>
<g id="Vvz1cg.tif" class="st3">
	
		<image style="display:inline;overflow:visible;enable-background:new    ;" width="1476" height="524" id="Layer_0_1_" xlink:href="E3B8F2CFC42C533C.png"  transform="matrix(0.4992 0 0 0.4992 27.3359 25.3506)">
	</image>
</g>
<line class="st0" x1="25.7" y1="376.7" x2="25.7" y2="209.7"/>
<line class="st0" x1="25.7" y1="192.7" x2="25.7" y2="25.7"/>
<line class="st0" x1="17.2" y1="25.7" x2="17.2" y2="376.7"/>
<path class="st0" d="M16.2,383.8"/>
<path class="st0" d="M16.2,18.6"/>
<line class="st0" x1="25.7" y1="25.7" x2="172.9" y2="25.7"/>
<line class="st0" x1="190" y1="25.7" x2="362.7" y2="25.7"/>
<line class="st0" x1="337.2" y1="17.2" x2="25.7" y2="17.2"/>
<path class="st0" d="M343.4,13"/>
<path class="st0" d="M19.5,13"/>
<line class="st0" x1="362.7" y1="25.7" x2="506.8" y2="25.7"/>
<line class="st0" x1="523.9" y1="25.7" x2="699.7" y2="25.7"/>
<line class="st0" x1="674.2" y1="17.2" x2="362.7" y2="17.2"/>
<line class="st0" x1="699.7" y1="25.7" x2="843.8" y2="25.7"/>
<line class="st0" x1="860.9" y1="25.7" x2="1011.2" y2="25.7"/>
<line class="st0" x1="1011.3" y1="17.2" x2="699.7" y2="17.2"/>
<line class="st0" x1="1011.2" y1="25.7" x2="1011.2" y2="192.7"/>
<line class="st0" x1="1011.2" y1="209.7" x2="1011.2" y2="376.7"/>
<line class="st0" x1="1019.7" y1="376.7" x2="1019.7" y2="25.7"/>
<line class="st0" x1="1011.2" y1="376.7" x2="864" y2="376.7"/>
<line class="st0" x1="846.9" y1="376.7" x2="699.7" y2="376.7"/>
<line class="st0" x1="699.7" y1="385.2" x2="1011.2" y2="385.2"/>
<line class="st0" x1="699.7" y1="376.7" x2="530.1" y2="376.7"/>
<line class="st0" x1="513" y1="376.7" x2="362.7" y2="376.7"/>
<line class="st0" x1="362.7" y1="385.2" x2="674.2" y2="385.2"/>
<line class="st0" x1="362.7" y1="376.7" x2="193.1" y2="376.7"/>
<line class="st0" x1="25.6" y1="385.2" x2="337.2" y2="385.2"/>
<line class="st0" x1="176" y1="376.7" x2="25.7" y2="376.7"/>
</svg>
