<?xml version="1.0" encoding="utf-8"?>
<!-- Generator: Adobe Illustrator 25.0.1, SVG Export Plug-In . SVG Version: 6.00 Build 0)  -->
<svg version="1.1" id="Layer_1" xmlns="http://www.w3.org/2000/svg" xmlns:xlink="http://www.w3.org/1999/xlink" x="0px" y="0px"
	 viewBox="0 0 1037.1 275.6" style="enable-background:new 0 0 1037.1 275.6;" xml:space="preserve">
<style type="text/css">
	.st0{fill:none;stroke:#010101;stroke-width:0.4;stroke-miterlimit:11.34;}
	.st1{fill:none;stroke:#231F20;stroke-width:0.4;stroke-miterlimit:10;}
</style>
<path class="st0" d="M1032.6,275.4H4.5v-55.5h15.6v-4.3H0.2L0.2,13c0-7,5.7-12.8,12.8-12.8c0,0,0,0,0,0h1011.2
	c7,0,12.8,5.7,12.8,12.8c0,0,0,0,0,0v202.7H1017v4.2h15.6V275.4z"/>
<polygon class="st1" points="16.4,7.3 9.8,7.3 6.5,12.9 9.8,18.6 16.4,18.6 19.6,12.9 "/>
<polygon class="st1" points="353.4,7.3 346.8,7.3 343.5,12.9 346.8,18.6 353.4,18.6 356.6,12.9 "/>
<polygon class="st1" points="690.4,7.3 683.8,7.3 680.5,12.9 683.8,18.6 690.4,18.6 693.6,12.9 "/>
<polygon class="st1" points="1027.4,7.3 1020.8,7.3 1017.6,12.9 1020.8,18.6 1027.4,18.6 1030.6,12.9 "/>
</svg>
