<?xml version="1.0" encoding="utf-8"?>
<!-- Generator: Adobe Illustrator 25.0.1, SVG Export Plug-In . SVG Version: 6.00 Build 0)  -->
<svg version="1.1" id="Layer_1" xmlns="http://www.w3.org/2000/svg" xmlns:xlink="http://www.w3.org/1999/xlink" x="0px" y="0px"
	 viewBox="0 0 1037.1 402.5" style="enable-background:new 0 0 1037.1 402.5;" xml:space="preserve">
<style type="text/css">
	.st0{fill:none;stroke:#231F20;stroke-width:0.4;stroke-miterlimit:10;}
</style>
<polygon class="st0" points="16.4,7.3 9.8,7.3 6.5,13 9.8,18.6 16.4,18.6 19.6,13 "/>
<polygon class="st0" points="16.4,383.8 9.8,383.8 6.6,389.5 9.8,395.1 16.4,395.1 19.7,389.5 "/>
<polygon class="st0" points="16.4,383.8 9.8,383.8 6.5,389.5 9.8,395.1 16.4,395.1 19.6,389.5 "/>
<polygon class="st0" points="353.4,383.8 346.8,383.8 343.5,389.5 346.8,395.1 353.4,395.1 356.6,389.5 "/>
<polygon class="st0" points="690.4,383.8 683.8,383.8 680.6,389.5 683.8,395.1 690.4,395.1 693.7,389.5 "/>
<polygon class="st0" points="1027.4,7.3 1020.8,7.3 1017.5,13 1020.8,18.6 1027.4,18.6 1030.6,13 "/>
<polygon class="st0" points="1027.4,383.8 1020.8,383.8 1017.6,389.5 1020.8,395.1 1027.4,395.1 1030.7,389.5 "/>
<path class="st0" d="M43.5,0.3l0,8.5l8.5,0l0,8.5h-8.5l0,8.5l-17.8,0v16.9h-8.5v-17H8.7v351h8.5v-17h8.5l0.1,16.9h985.6v-17h8.5v17
	h8.5v-351h-8.5v17h-8.5v-17l-691.7,0.1l0-8.5l-8.5,0V8.8l8.5,0l0-8.5l17.7,0v21.9h25.5v-22l311.5,0.1v22h25.5v-22l324.3-0.1
	c7,0,12.8,5.7,12.8,12.8v376.5c0,7-5.7,12.8-12.8,12.8H13c-7,0-12.8-5.7-12.8-12.8V13C0.2,6,6,0.3,13,0.3H43.5z"/>
</svg>
