<?xml version="1.0" encoding="utf-8"?>
<!-- Generator: Adobe Illustrator 25.0.1, SVG Export Plug-In . SVG Version: 6.00 Build 0)  -->
<svg version="1.1" id="Layer_1" xmlns="http://www.w3.org/2000/svg" xmlns:xlink="http://www.w3.org/1999/xlink" x="0px" y="0px"
	 viewBox="0 0 267.5 402.4" style="enable-background:new 0 0 267.5 402.4;" xml:space="preserve">
<style type="text/css">
	.st0{fill:none;stroke:#010101;stroke-width:0.4;stroke-miterlimit:11.34;}
	.st1{fill:none;stroke:#231F20;stroke-width:0.4;stroke-miterlimit:10;}
</style>
<line class="st0" x1="267.2" y1="34.2" x2="267.3" y2="368.2"/>
<path class="st0" d="M267.3,13l0,376.5c0,3-1.1,6-3.1,8.3c-2.5,2.8-6,4.4-9.7,4.4H13c-7,0-12.7-5.7-12.8-12.7c0,0,0,0,0,0
	c-0.1-28.2,0-375.1,0-376.5C0.2,9.5,1.6,6.1,4.2,3.7C6.6,1.5,9.7,0.2,13,0.2h241.5c3.5,0,6.8,1.5,9.3,4C266,6.6,267.2,9.7,267.3,13"
	/>
<polyline class="st0" points="258.8,359.7 258.8,25.7 250.3,25.7 250.3,42.7 241.8,42.7 241.8,25.7 25.8,25.7 25.8,376.7 
	241.8,376.7 241.8,359.7 250.3,359.7 250.3,376.7 258.8,376.7 258.8,359.7 "/>
<polygon class="st1" points="257.8,7.3 251.2,7.3 248,13 251.2,18.6 257.8,18.6 261.1,13 "/>
<polygon class="st1" points="257.8,383.8 251.2,383.8 248,389.5 251.2,395.2 257.8,395.2 261.1,389.5 "/>
<polygon class="st1" points="16.3,7.3 9.7,7.3 6.4,13 9.7,18.6 16.3,18.6 19.5,13 "/>
<polygon class="st1" points="16.3,383.8 9.7,383.8 6.4,389.5 9.7,395.2 16.3,395.2 19.5,389.5 "/>
</svg>
