<?xml version="1.0" encoding="utf-8"?>
<!-- Generator: Adobe Illustrator 25.0.1, SVG Export Plug-In . SVG Version: 6.00 Build 0)  -->
<svg version="1.1" id="Layer_7" xmlns="http://www.w3.org/2000/svg" xmlns:xlink="http://www.w3.org/1999/xlink" x="0px" y="0px"
	 viewBox="0 0 1840.8 773.3" style="enable-background:new 0 0 1840.8 773.3;" xml:space="preserve">
<style type="text/css">
	.st0{fill:none;stroke:#010101;stroke-width:0.4;stroke-miterlimit:11.34;}
	.st1{fill:none;stroke:#231F20;stroke-width:0.4;stroke-miterlimit:10;}
</style>
<path class="st0" d="M706.8,545.6l-17-0.1v17h-8.5v-17h-8.5v17h-216v-351h216v17h8.5v-17h8.5v17h17V220h-8.5v-21.3
	c0-7-5.7-12.8-12.8-12.8H444c-3.3,0-6.4,1.3-8.8,3.5c-2.6,2.4-4,5.7-3.9,9.2c0,1.4-0.1,348.3,0,376.5c0,7,5.7,12.7,12.7,12.8
	c0,0,0,0,0,0h241.5c3.7-0.1,7.2-1.7,9.7-4.4c2-2.3,3.1-5.3,3.1-8.3V554h8.5L706.8,545.6z"/>
<polygon class="st1" points="688.8,193.1 682.2,193.1 679,198.8 682.2,204.4 688.8,204.4 692.1,198.8 "/>
<polygon class="st1" points="688.8,569.6 682.2,569.6 679,575.3 682.2,580.9 688.8,580.9 692.1,575.3 "/>
<polygon class="st1" points="447.3,193.1 440.7,193.1 437.4,198.8 440.7,204.4 447.3,204.4 450.5,198.8 "/>
<polygon class="st1" points="447.3,569.6 440.7,569.6 437.5,575.3 440.7,581 447.3,581 450.5,575.3 "/>
</svg>
