<?xml version="1.0" encoding="utf-8"?>
<!-- Generator: Adobe Illustrator 25.0.1, SVG Export Plug-In . SVG Version: 6.00 Build 0)  -->
<svg version="1.1" id="Layer_1" xmlns="http://www.w3.org/2000/svg" xmlns:xlink="http://www.w3.org/1999/xlink" x="0px" y="0px"
	 viewBox="0 0 267.4 402.4" style="enable-background:new 0 0 267.4 402.4;" xml:space="preserve">
<style type="text/css">
	.st0{fill:none;stroke:#010101;stroke-width:0.4;stroke-miterlimit:11.34;}
	.st1{fill:none;stroke:#231F20;stroke-width:0.4;stroke-miterlimit:10;}
</style>
<polygon class="st0" points="254.5,0.2 255.5,0.2 256.5,0.4 257.5,0.6 258.4,0.8 259.4,1.2 260.3,1.6 261.1,2.1 262,2.6 262.8,3.3 
	263.5,3.9 264.2,4.7 264.8,5.5 265.4,6.3 265.8,7.2 266.3,8.1 266.6,9 266.9,10 267.1,11 267.2,12 267.2,13 267.2,389.5 
	267.2,390.5 267.1,391.5 266.9,392.5 266.6,393.4 266.3,394.4 265.8,395.3 265.4,396.1 264.8,397 264.2,397.8 263.5,398.5 
	262.8,399.2 262,399.8 261.1,400.4 260.3,400.8 259.4,401.3 258.4,401.6 257.5,401.9 256.5,402.1 255.5,402.2 254.5,402.2 13,402.2 
	12,402.2 11,402.1 10,401.9 9,401.6 8.1,401.3 7.2,400.8 6.3,400.4 5.5,399.8 4.7,399.2 3.9,398.5 3.3,397.8 2.6,397 2.1,396.1 
	1.6,395.3 1.2,394.4 0.8,393.4 0.6,392.5 0.4,391.5 0.2,390.5 0.2,389.5 0.2,13 0.2,12 0.4,11 0.6,10 0.8,9 1.2,8.1 1.6,7.2 
	2.1,6.3 2.6,5.5 3.3,4.7 3.9,3.9 4.7,3.3 5.5,2.6 6.3,2.1 7.2,1.6 8.1,1.2 9,0.8 10,0.6 11,0.4 12,0.2 13,0.2 "/>
<polygon class="st0" points="59.9,329.9 59.9,332.7 57.6,332.7 57.6,341.5 59.9,341.5 59.9,343.2 55.5,343.2 55.5,334 50.7,334 
	50.7,331.4 41.3,331.4 41.3,334 36.4,334 36.4,343.2 34.1,343.2 34.1,351.1 36.4,351.1 36.4,368.9 41.3,368.9 41.3,371.7 
	50.7,371.7 50.7,368.9 55.5,368.9 55.5,356.2 59.9,356.2 59.9,357.9 57.6,357.9 57.6,366.7 59.9,366.7 59.9,369.6 99.6,369.6 
	99.6,366.7 101.8,366.7 101.8,357.9 99.6,357.9 99.6,356.2 103.9,356.2 103.9,368.9 108.8,368.9 108.8,371.7 118.1,371.7 
	118.1,368.9 123,368.9 123,351.1 125.3,351.1 125.3,343.2 123,343.2 123,334 118.1,334 118.1,331.4 108.8,331.4 108.8,334 
	103.9,334 103.9,343.2 99.6,343.2 99.6,341.5 101.8,341.5 101.8,332.7 99.6,332.7 99.6,329.9 "/>
<polygon class="st0" points="140.9,329.9 140.9,332.7 138.6,332.7 138.6,341.5 140.9,341.5 140.9,357.9 138.6,357.9 138.6,366.7 
	140.9,366.7 140.9,369.6 180.6,369.6 180.6,366.7 182.8,366.7 182.8,357.9 180.6,357.9 180.6,341.5 182.8,341.5 182.8,332.7 
	180.6,332.7 180.6,329.9 "/>
<polygon class="st0" points="213.3,277.1 213.3,279.4 195.5,279.4 195.5,284.3 192.8,284.3 192.8,293.7 195.5,293.7 195.5,298.5 
	208.2,298.5 208.2,302.9 206.5,302.9 206.5,300.6 197.7,300.6 197.7,302.9 194.9,302.9 194.9,342.6 197.7,342.6 197.7,344.8 
	206.5,344.8 206.5,342.6 208.2,342.6 208.2,346.9 195.5,346.9 195.5,351.8 192.8,351.8 192.8,361.1 195.5,361.1 195.5,366 
	213.3,366 213.3,368.4 221.2,368.4 221.2,366 230.4,366 230.4,361.1 233,361.1 233,351.8 230.4,351.8 230.4,346.9 221.2,346.9 
	221.2,342.6 222.9,342.6 222.9,344.8 231.7,344.8 231.7,342.6 234.6,342.6 234.6,302.9 231.7,302.9 231.7,300.6 222.9,300.6 
	222.9,302.9 221.2,302.9 221.2,298.5 230.4,298.5 230.4,293.7 233,293.7 233,284.3 230.4,284.3 230.4,279.4 221.2,279.4 
	221.2,277.1 "/>
<polygon class="st0" points="140.9,275.9 140.9,278.7 138.6,278.7 138.6,287.5 140.9,287.5 140.9,303.9 138.6,303.9 138.6,312.7 
	140.9,312.7 140.9,315.6 180.6,315.6 180.6,312.7 182.8,312.7 182.8,303.9 180.6,303.9 180.6,287.5 182.8,287.5 182.8,278.7 
	180.6,278.7 180.6,275.9 "/>
<polygon class="st0" points="86.9,275.9 86.9,278.7 84.6,278.7 84.6,287.5 86.9,287.5 86.9,303.9 84.6,303.9 84.6,312.7 86.9,312.7 
	86.9,315.6 126.6,315.6 126.6,312.7 128.8,312.7 128.8,303.9 126.6,303.9 126.6,287.5 128.8,287.5 128.8,278.7 126.6,278.7 
	126.6,275.9 "/>
<polygon class="st0" points="32.9,275.9 32.9,278.7 30.6,278.7 30.6,287.5 32.9,287.5 32.9,303.9 30.6,303.9 30.6,312.7 32.9,312.7 
	32.9,315.6 72.6,315.6 72.6,312.7 74.8,312.7 74.8,303.9 72.6,303.9 72.6,287.5 74.8,287.5 74.8,278.7 72.6,278.7 72.6,275.9 "/>
<polygon class="st0" points="140.9,221.9 140.9,224.7 138.6,224.7 138.6,233.5 140.9,233.5 140.9,249.9 138.6,249.9 138.6,258.7 
	140.9,258.7 140.9,261.6 180.6,261.6 180.6,258.7 182.8,258.7 182.8,249.9 180.6,249.9 180.6,233.5 182.8,233.5 182.8,224.7 
	180.6,224.7 180.6,221.9 "/>
<polygon class="st0" points="86.9,221.9 86.9,224.7 84.6,224.7 84.6,233.5 86.9,233.5 86.9,249.9 84.6,249.9 84.6,258.7 86.9,258.7 
	86.9,261.6 126.6,261.6 126.6,258.7 128.8,258.7 128.8,249.9 126.6,249.9 126.6,233.5 128.8,233.5 128.8,224.7 126.6,224.7 
	126.6,221.9 "/>
<polygon class="st0" points="32.9,221.9 32.9,224.7 30.6,224.7 30.6,233.5 32.9,233.5 32.9,249.9 30.6,249.9 30.6,258.7 32.9,258.7 
	32.9,261.6 72.6,261.6 72.6,258.7 74.8,258.7 74.8,249.9 72.6,249.9 72.6,233.5 74.8,233.5 74.8,224.7 72.6,224.7 72.6,221.9 "/>
<polygon class="st0" points="213.3,169.1 213.3,171.4 195.5,171.4 195.5,176.3 192.8,176.3 192.8,185.7 195.5,185.7 195.5,190.6 
	208.2,190.6 208.2,194.9 206.5,194.9 206.5,192.6 197.7,192.6 197.7,194.9 194.9,194.9 194.9,234.6 197.7,234.6 197.7,236.8 
	206.5,236.8 206.5,234.6 208.2,234.6 208.2,238.9 195.5,238.9 195.5,243.8 192.8,243.8 192.8,253.1 195.5,253.1 195.5,258 
	213.3,258 213.3,260.4 221.2,260.4 221.2,258 230.4,258 230.4,253.1 233,253.1 233,243.8 230.4,243.8 230.4,238.9 221.2,238.9 
	221.2,234.6 222.9,234.6 222.9,236.8 231.7,236.8 231.7,234.6 234.6,234.6 234.6,194.9 231.7,194.9 231.7,192.6 222.9,192.6 
	222.9,194.9 221.2,194.9 221.2,190.6 230.4,190.6 230.4,185.7 233,185.7 233,176.3 230.4,176.3 230.4,171.4 221.2,171.4 
	221.2,169.1 "/>
<polygon class="st0" points="140.9,167.9 140.9,170.7 138.6,170.7 138.6,179.5 140.9,179.5 140.9,195.9 138.6,195.9 138.6,204.7 
	140.9,204.7 140.9,207.6 180.6,207.6 180.6,204.7 182.8,204.7 182.8,195.9 180.6,195.9 180.6,179.5 182.8,179.5 182.8,170.7 
	180.6,170.7 180.6,167.9 "/>
<polygon class="st0" points="86.9,167.9 86.9,170.7 84.6,170.7 84.6,179.5 86.9,179.5 86.9,195.9 84.6,195.9 84.6,204.7 86.9,204.7 
	86.9,207.6 126.6,207.6 126.6,204.7 128.8,204.7 128.8,195.9 126.6,195.9 126.6,179.5 128.8,179.5 128.8,170.7 126.6,170.7 
	126.6,167.9 "/>
<polygon class="st0" points="32.9,167.9 32.9,170.7 30.6,170.7 30.6,179.5 32.9,179.5 32.9,195.9 30.6,195.9 30.6,204.7 32.9,204.7 
	32.9,207.6 72.6,207.6 72.6,204.7 74.8,204.7 74.8,195.9 72.6,195.9 72.6,179.5 74.8,179.5 74.8,170.7 72.6,170.7 72.6,167.9 "/>
<polygon class="st0" points="194.9,113.9 194.9,116.7 192.6,116.7 192.6,125.5 194.9,125.5 194.9,141.9 192.6,141.9 192.6,150.7 
	194.9,150.7 194.9,153.6 234.6,153.6 234.6,150.7 236.8,150.7 236.8,141.9 234.6,141.9 234.6,125.5 236.8,125.5 236.8,116.7 
	234.6,116.7 234.6,113.9 "/>
<polygon class="st0" points="140.9,113.9 140.9,116.7 138.6,116.7 138.6,125.5 140.9,125.5 140.9,141.9 138.6,141.9 138.6,150.7 
	140.9,150.7 140.9,153.6 180.6,153.6 180.6,150.7 182.8,150.7 182.8,141.9 180.6,141.9 180.6,125.5 182.8,125.5 182.8,116.7 
	180.6,116.7 180.6,113.9 "/>
<polygon class="st0" points="86.9,113.9 86.9,116.7 84.6,116.7 84.6,125.5 86.9,125.5 86.9,141.9 84.6,141.9 84.6,150.7 86.9,150.7 
	86.9,153.6 126.6,153.6 126.6,150.7 128.8,150.7 128.8,141.9 126.6,141.9 126.6,125.5 128.8,125.5 128.8,116.7 126.6,116.7 
	126.6,113.9 "/>
<polygon class="st0" points="32.9,113.9 32.9,116.7 30.6,116.7 30.6,125.5 32.9,125.5 32.9,141.9 30.6,141.9 30.6,150.7 32.9,150.7 
	32.9,153.6 72.6,153.6 72.6,150.7 74.8,150.7 74.8,141.9 72.6,141.9 72.6,125.5 74.8,125.5 74.8,116.7 72.6,116.7 72.6,113.9 "/>
<polygon class="st0" points="194.9,32.9 194.9,35.7 192.6,35.7 192.6,44.5 194.9,44.5 194.9,60.9 192.6,60.9 192.6,69.7 194.9,69.7 
	194.9,72.6 234.6,72.6 234.6,69.7 236.8,69.7 236.8,60.9 234.6,60.9 234.6,44.5 236.8,44.5 236.8,35.7 234.6,35.7 234.6,32.9 "/>
<polygon class="st0" points="140.9,32.9 140.9,35.7 138.6,35.7 138.6,44.5 140.9,44.5 140.9,60.9 138.6,60.9 138.6,69.7 140.9,69.7 
	140.9,72.6 180.6,72.6 180.6,69.7 182.8,69.7 182.8,60.9 180.6,60.9 180.6,44.5 182.8,44.5 182.8,35.7 180.6,35.7 180.6,32.9 "/>
<polygon class="st0" points="86.9,32.9 86.9,35.7 84.6,35.7 84.6,44.5 86.9,44.5 86.9,60.9 84.6,60.9 84.6,69.7 86.9,69.7 
	86.9,72.6 126.6,72.6 126.6,69.7 128.8,69.7 128.8,60.9 126.6,60.9 126.6,44.5 128.8,44.5 128.8,35.7 126.6,35.7 126.6,32.9 "/>
<polygon class="st0" points="32.9,32.9 32.9,35.7 30.6,35.7 30.6,44.5 32.9,44.5 32.9,60.9 30.6,60.9 30.6,69.7 32.9,69.7 
	32.9,72.6 72.6,72.6 72.6,69.7 74.8,69.7 74.8,60.9 72.6,60.9 72.6,44.5 74.8,44.5 74.8,35.7 72.6,35.7 72.6,32.9 "/>
<polygon class="st1" points="257.7,7.3 251.2,7.3 247.9,13 251.2,18.6 257.7,18.6 261,13 "/>
<polygon class="st1" points="257.8,383.8 251.2,383.8 247.9,389.5 251.2,395.2 257.8,395.2 261,389.5 "/>
<polygon class="st1" points="16.2,7.3 9.7,7.3 6.4,13 9.7,18.6 16.2,18.6 19.5,13 "/>
<polygon class="st1" points="16.2,383.8 9.7,383.8 6.4,389.5 9.7,395.2 16.2,395.2 19.5,389.5 "/>
</svg>
