<svg id="Layer_1" data-name="Layer 1" xmlns="http://www.w3.org/2000/svg" viewBox="0 0 42.92 351.37"><defs><style>.cls-1{fill:none;stroke:#000;stroke-miterlimit:11.34;stroke-width:0.4px;}</style></defs><line class="cls-1" x1="42.72" y1="351.17" x2="25.72" y2="351.17"/><polyline class="cls-1" points="42.72 351.17 42.72 0.2 25.72 0.2 25.72 17.22 22.52 17.22 17.2 17.22 17.2 0.2 0.2 0.2 0.2 351.17"/><polyline class="cls-1" points="25.72 351.17 25.72 334.15 22.52 334.15 17.2 334.15 17.2 351.17 0.2 351.17"/><polyline class="cls-1" points="35.03 50.89 35.68 50.55 36.23 50 36.35 49.78 36.59 49.31 36.71 48.54 36.59 47.77 36.35 47.3 36.23 47.08 36.1 46.95 35.68 46.53 34.99 46.17 34.22 46.05 33.45 46.17 32.76 46.53 32.34 46.95 32.21 47.08 31.85 47.77 31.73 48.54 31.85 49.31 32.21 50 32.76 50.55 33.45 50.91 34.22 51.03 34.99 50.91 35.03 50.89"/><polyline class="cls-1" points="33.45 74.52 32.76 74.87 32.21 75.42 31.93 75.98 31.85 76.12 31.73 76.89 31.85 77.66 32.21 78.35 32.76 78.9 33.45 79.25 34.22 79.38 34.99 79.25 35.68 78.9 36.23 78.35 36.35 78.13 36.59 77.66 36.71 76.89 36.59 76.12 36.52 75.98 36.35 75.65 36.23 75.42 35.68 74.87 34.99 74.52 34.22 74.4 33.45 74.52"/><polyline class="cls-1" points="35.03 22.54 35.68 22.21 36.23 21.66 36.35 21.43 36.59 20.96 36.71 20.19 36.59 19.43 36.35 18.95 36.23 18.73 35.68 18.18 35.18 17.92 34.99 17.83 34.22 17.71 33.45 17.83 33.26 17.92 32.76 18.18 32.21 18.73 31.85 19.43 31.73 20.19 31.85 20.96 32.21 21.66 32.76 22.21 33.45 22.56 34.22 22.68 34.99 22.56 35.03 22.54"/><polyline class="cls-1" points="36.59 189.5 36.35 189.03 36.23 188.81 35.68 188.26 35.03 187.93 34.99 187.91 34.22 187.79 33.45 187.91 32.76 188.26 32.21 188.81 31.85 189.5 31.73 190.27 31.85 191.04 32.21 191.74 32.56 192.08 32.76 192.28 33.45 192.64 34.22 192.76 34.99 192.64 35.68 192.28 35.88 192.08 36.23 191.74 36.35 191.51 36.59 191.04 36.71 190.27 36.59 189.5"/><polyline class="cls-1" points="36.59 302.89 36.35 302.42 36.33 302.39 36.23 302.2 35.68 301.65 34.99 301.29 34.22 301.17 33.45 301.29 32.76 301.65 32.21 302.2 32.11 302.39 31.85 302.89 31.73 303.66 31.85 304.43 32.21 305.12 32.76 305.67 33.45 306.02 34.22 306.15 34.99 306.02 35.68 305.67 36.23 305.12 36.35 304.9 36.59 304.43 36.71 303.66 36.59 302.89"/><polyline class="cls-1" points="36.59 246.2 36.35 245.72 36.23 245.5 35.68 244.95 34.99 244.6 34.22 244.48 33.45 244.6 32.76 244.95 32.21 245.5 31.85 246.2 31.73 246.97 31.77 247.24 31.85 247.73 32.21 248.43 32.76 248.98 33.45 249.33 34.22 249.45 34.99 249.33 35.68 248.98 36.23 248.43 36.35 248.21 36.59 247.73 36.66 247.24 36.71 246.97 36.59 246.2"/><polyline class="cls-1" points="34.99 107.6 35.68 107.25 36.23 106.7 36.35 106.47 36.59 106 36.71 105.23 36.67 105 36.59 104.47 36.35 103.99 36.23 103.77 35.68 103.22 34.99 102.87 34.22 102.75 33.45 102.87 32.76 103.22 32.21 103.77 31.85 104.47 31.77 105 31.73 105.23 31.85 106 32.21 106.7 32.76 107.25 33.45 107.6 34.22 107.72 34.99 107.6"/><polyline class="cls-1" points="36.59 330.53 36.35 330.06 36.23 329.83 35.68 329.28 34.99 328.93 34.22 328.81 33.45 328.93 32.76 329.28 32.21 329.83 31.85 330.53 31.73 331.3 31.75 331.41 31.85 332.06 32.21 332.76 32.76 333.31 33.45 333.66 34.22 333.79 34.99 333.66 35.68 333.31 36.23 332.76 36.35 332.54 36.59 332.06 36.69 331.41 36.71 331.3 36.59 330.53"/><polyline class="cls-1" points="36.59 162.69 36.71 161.93 36.59 161.16 36.35 160.69 36.23 160.46 35.68 159.91 34.99 159.56 34.22 159.44 33.45 159.56 32.76 159.91 32.21 160.46 31.85 161.16 31.73 161.93 31.85 162.69 32.04 163.06 32.21 163.39 32.76 163.94 33.45 164.29 34.22 164.41 34.99 164.29 35.68 163.94 36.23 163.39 36.35 163.17 36.4 163.06 36.59 162.69"/><polyline class="cls-1" points="36.64 218.21 36.59 217.85 36.35 217.38 36.23 217.16 35.68 216.61 34.99 216.25 34.22 216.13 33.45 216.25 32.76 216.61 32.21 217.16 31.85 217.85 31.8 218.21 31.73 218.62 31.85 219.39 32.21 220.08 32.76 220.63 33.45 220.99 34.22 221.11 34.99 220.99 35.68 220.63 36.23 220.08 36.35 219.86 36.59 219.39 36.71 218.62 36.64 218.21"/><polyline class="cls-1" points="33.45 131.21 32.76 131.57 32.21 132.12 31.85 132.81 31.73 133.58 31.8 134.03 31.85 134.35 32.21 135.04 32.76 135.59 33.45 135.95 34.22 136.07 34.99 135.95 35.68 135.59 36.23 135.04 36.35 134.82 36.59 134.35 36.64 134.03 36.71 133.58 36.59 132.81 36.35 132.34 36.23 132.12 35.68 131.57 34.99 131.21 34.22 131.09 33.45 131.21"/><polyline class="cls-1" points="35.03 277.66 35.68 277.32 36.23 276.77 36.35 276.55 36.59 276.08 36.71 275.31 36.59 274.54 36.35 274.07 36.23 273.85 35.74 273.36 35.68 273.3 34.99 272.94 34.22 272.83 33.45 272.94 32.76 273.3 32.7 273.36 32.21 273.85 31.85 274.54 31.73 275.31 31.85 276.08 32.21 276.77 32.76 277.32 33.45 277.68 34.22 277.8 34.99 277.68 35.03 277.66"/></svg>