<?xml version="1.0" encoding="utf-8"?>
<!-- Generator: Adobe Illustrator 25.0.1, SVG Export Plug-In . SVG Version: 6.00 Build 0)  -->
<svg version="1.1" id="Layer_1" xmlns="http://www.w3.org/2000/svg" xmlns:xlink="http://www.w3.org/1999/xlink" x="0px" y="0px"
	 viewBox="0 0 483.4 402.4" style="enable-background:new 0 0 483.4 402.4;" xml:space="preserve">
<style type="text/css">
	.st0{fill:none;stroke:#010101;stroke-width:0.4;stroke-miterlimit:11.34;}
	.st1{fill:none;stroke:#231F20;stroke-width:0.4;stroke-miterlimit:10;}
</style>
<polygon class="st0" points="470.5,0.2 471.5,0.2 472.5,0.4 473.5,0.6 474.4,0.8 475.4,1.2 476.3,1.6 477.1,2.1 478,2.6 478.8,3.3 
	479.5,3.9 480.2,4.7 480.8,5.5 481.4,6.3 481.8,7.2 482.3,8.1 482.6,9 482.9,10 483.1,11 483.2,12 483.2,13 483.2,389.5 
	483.2,390.5 483.1,391.5 482.9,392.5 482.6,393.4 482.3,394.4 481.8,395.3 481.4,396.1 480.8,397 480.2,397.8 479.5,398.5 
	478.8,399.2 478,399.8 477.1,400.4 476.3,400.8 475.4,401.3 474.4,401.6 473.5,401.9 472.5,402.1 471.5,402.2 470.5,402.2 13,402.2 
	12,402.2 11,402.1 10,401.9 9,401.6 8.1,401.3 7.2,400.8 6.3,400.4 5.5,399.8 4.7,399.2 3.9,398.5 3.3,397.8 2.6,397 2.1,396.1 
	1.6,395.3 1.2,394.4 0.8,393.4 0.6,392.5 0.4,391.5 0.2,390.5 0.2,389.5 0.2,13 0.2,12 0.4,11 0.6,10 0.8,9 1.2,8.1 1.6,7.2 
	2.1,6.3 2.6,5.5 3.3,4.7 3.9,3.9 4.7,3.3 5.5,2.6 6.3,2.1 7.2,1.6 8.1,1.2 9,0.8 10,0.6 11,0.4 12,0.2 13,0.2 "/>
<polygon class="st0" points="403.7,25.7 403.7,79.7 457.7,79.7 457.7,25.7 "/>
<polygon class="st0" points="295.7,25.7 295.7,79.7 349.7,79.7 349.7,25.7 "/>
<polygon class="st0" points="25.7,25.7 25.7,79.7 187.7,79.7 187.7,25.7 "/>
<polygon class="st0" points="25.7,106.6 457.7,106.6 457.7,376.7 25.6,376.7 "/>
<polygon class="st1" points="16.2,7.3 9.7,7.3 6.4,13 9.7,18.6 16.2,18.6 19.5,13 "/>
<polygon class="st1" points="16.2,383.8 9.7,383.8 6.4,389.5 9.7,395.1 16.2,395.1 19.5,389.5 "/>
<polygon class="st1" points="473.8,7.3 467.2,7.3 463.9,13 467.2,18.6 473.8,18.6 477,13 "/>
<polygon class="st1" points="473.8,383.8 467.2,383.8 463.9,389.5 467.2,395.1 473.8,395.1 477,389.5 "/>
</svg>
