<?xml version="1.0" encoding="utf-8"?>
<!-- Generator: Adobe Illustrator 25.0.1, SVG Export Plug-In . SVG Version: 6.00 Build 0)  -->
<svg version="1.1" id="Layer_1" xmlns="http://www.w3.org/2000/svg" xmlns:xlink="http://www.w3.org/1999/xlink" x="0px" y="0px"
	 viewBox="0 0 483.5 275.6" style="enable-background:new 0 0 483.5 275.6;" xml:space="preserve">
<style type="text/css">
	.st0{fill:none;stroke:#010101;stroke-width:0.4;stroke-miterlimit:11.34;}
	.st1{fill:none;stroke:#231F20;stroke-width:0.4;stroke-miterlimit:10;}
</style>
<path class="st0" d="M479,275.4H4.4v-55.5H20v-4.3H0.2V13c0-7,5.7-12.8,12.8-12.8l0,0h457.5c7,0,12.8,5.7,12.8,12.8c0,0,0,0,0,0
	v202.7h-19.9v4.2H479L479,275.4z"/>
<polygon class="st1" points="16.2,7.3 9.7,7.3 6.4,13 9.7,18.7 16.2,18.7 19.5,13 "/>
<polygon class="st1" points="473.7,7.3 467.2,7.3 463.9,13 467.2,18.7 473.7,18.7 477,13 "/>
</svg>
