<svg xmlns="http://www.w3.org/2000/svg" viewBox="0 0 699.92 146.36"><defs><style>.cls-1,.cls-2{fill:none;}.cls-1{stroke:#010101;stroke-miterlimit:11.34;stroke-width:0.4px;}.cls-2{stroke:#231f20;stroke-miterlimit:10;stroke-width:0.4px;}</style></defs><g id="Layer_2" data-name="Layer 2"><g id="Layer_2-2" data-name="Layer 2"><rect class="cls-1" x="0.2" y="0.2" width="699.52" height="145.96" rx="12.76"/><polygon class="cls-2" points="17.21 126.04 8.7 126.04 4.45 133.41 8.7 140.77 17.21 140.77 21.46 133.41 17.21 126.04"/><polygon class="cls-2" points="17.2 126.05 8.69 126.05 4.44 133.41 8.69 140.78 17.2 140.78 21.45 133.41 17.2 126.05"/><polygon class="cls-2" points="17.2 5.6 8.7 5.6 4.45 12.96 8.7 20.33 17.2 20.33 21.45 12.96 17.2 5.6"/><polygon class="cls-2" points="17.19 5.61 8.69 5.61 4.43 12.97 8.69 20.34 17.19 20.34 21.44 12.97 17.19 5.61"/><polygon class="cls-2" points="691.2 126.04 682.7 126.04 678.45 133.4 682.7 140.77 691.2 140.77 695.45 133.4 691.2 126.04"/><polygon class="cls-2" points="691.19 126.05 682.68 126.05 678.43 133.41 682.68 140.78 691.19 140.78 695.44 133.41 691.19 126.05"/><polygon class="cls-2" points="691.2 5.59 682.7 5.59 678.45 12.96 682.7 20.32 691.2 20.32 695.46 12.96 691.2 5.59"/><polygon class="cls-2" points="691.19 5.6 682.69 5.6 678.44 12.97 682.69 20.33 691.19 20.33 695.44 12.97 691.19 5.6"/></g></g></svg>