<svg id="Layer_1" data-name="Layer 1" xmlns="http://www.w3.org/2000/svg" viewBox="0 0 699.92 146.37"><defs><style>.cls-1,.cls-2{fill:none;}.cls-1{stroke:#010101;stroke-miterlimit:11.34;stroke-width:0.4px;}.cls-2{stroke:#231f20;stroke-miterlimit:10;stroke-width:0.4px;}</style></defs><line class="cls-1" x1="674.21" y1="120.67" x2="25.71" y2="120.67"/><line class="cls-1" x1="25.71" y1="25.72" x2="674.21" y2="25.72"/><path class="cls-1" d="M1341.62,454.89l0,30.47a12.75,12.75,0,0,1-12.75,12.76H1004.64v-8.3h8.49v4.25h4.24v-17h-4.24v4.25h-42.5v-4.25h-4.25v17h4.24v-4.25h8.51v8.29H667.63" transform="translate(-641.94 -351.94)"/><path class="cls-2" d="M1341.62,454.89" transform="translate(-641.94 -351.94)"/><polyline class="cls-2" points="25.7 102.94 25.71 120.67 674.21 120.67 674.21 102.94"/><polyline class="cls-2" points="25.7 146.17 25.71 137.88 34.19 137.88 34.19 142.12 38.44 142.12 38.44 125.13 34.19 125.13 34.19 129.38 25.71 129.38 17.21 120.68 17.21 112.2 21.45 112.2 21.45 107.95 4.45 107.95 4.45 112.2 8.71 112.2 8.71 120.68 0.2 120.68 0.2 102.94"/><path class="cls-2" d="M1341.65,395.36" transform="translate(-641.94 -351.94)"/><polyline class="cls-2" points="25.7 43.42 25.71 25.72 674.21 25.72 674.27 43.42"/><path class="cls-2" d="M1341.65,395.36V364.9a12.75,12.75,0,0,0-12.75-12.75h-674a12.75,12.75,0,0,0-12.75,12.75v30.47" transform="translate(-641.94 -351.94)"/><polyline class="cls-2" points="0.2 43.42 8.71 43.42 8.71 51.91 17.23 51.91 17.23 43.42 25.7 43.42"/><polyline class="cls-2" points="25.7 102.94 17.19 102.94 17.19 94.45 8.68 94.45 8.68 102.94 0.2 102.94"/><polygon class="cls-2" points="17.2 5.62 8.7 5.62 4.45 12.98 8.7 20.35 17.2 20.35 21.45 12.98 17.2 5.62"/><polygon class="cls-2" points="17.19 5.63 8.69 5.63 4.43 12.99 8.69 20.36 17.19 20.36 21.44 12.99 17.19 5.63"/><polygon class="cls-2" points="691.2 126.06 682.7 126.06 678.45 133.42 682.7 140.79 691.2 140.79 695.45 133.42 691.2 126.06"/><polygon class="cls-2" points="691.19 126.07 682.68 126.07 678.43 133.43 682.68 140.8 691.19 140.8 695.44 133.43 691.19 126.07"/><polygon class="cls-2" points="691.2 5.62 682.7 5.62 678.45 12.98 682.7 20.34 691.2 20.34 695.46 12.98 691.2 5.62"/><polygon class="cls-2" points="691.19 5.62 682.69 5.62 678.44 12.99 682.69 20.35 691.19 20.35 695.44 12.99 691.19 5.62"/><polyline class="cls-2" points="674.2 43.45 682.72 43.45 682.72 51.94 691.23 51.94 691.23 43.45 699.7 43.45"/><polyline class="cls-2" points="699.7 102.96 691.19 102.96 691.19 94.47 682.68 94.47 682.68 102.96 674.2 102.96"/></svg>