<svg id="Layer_1" data-name="Layer 1" xmlns="http://www.w3.org/2000/svg" viewBox="0 0 699.92 146.37"><defs><style>.cls-1,.cls-2{fill:none;}.cls-1{stroke:#010101;stroke-miterlimit:11.34;stroke-width:0.4px;}.cls-2{stroke:#231f20;stroke-miterlimit:10;stroke-width:0.4px;}</style></defs><path class="cls-1" d="M670.09,472.66" transform="translate(-641.94 -351.94)"/><line class="cls-1" x1="674.21" y1="120.67" x2="25.71" y2="120.67"/><polyline class="cls-2" points="674.21 25.72 674.19 43.38 674.21 25.72 25.71 25.72 25.7 43.41 17.23 43.41 17.23 51.9 8.71 51.9 8.71 43.41 0.2 43.41"/><path class="cls-1" d="M1341.62,454.9l0,30.46a12.75,12.75,0,0,1-12.75,12.76H1004.64v-8.3h8.49v4.25h4.24v-17h-4.24v4.25h-42.5v-4.25h-4.25v17h4.24v-4.25h8.51v8.29H667.63" transform="translate(-641.94 -351.94)"/><path class="cls-2" d="M1341.62,454.9" transform="translate(-641.94 -351.94)"/><polyline class="cls-2" points="25.7 102.92 25.71 120.67 674.21 120.67 674.2 102.95"/><polyline class="cls-2" points="25.7 146.17 25.71 137.88 34.19 137.88 34.19 142.12 38.44 142.12 38.44 125.13 34.19 125.13 34.19 129.38 25.71 129.38 17.21 120.68 17.21 112.2 21.45 112.2 21.45 107.95 4.45 107.95 4.45 112.2 8.71 112.2 8.71 120.68 0.2 120.68 0.2 102.92"/><path class="cls-2" d="M1341.65,395.36" transform="translate(-641.94 -351.94)"/><path class="cls-2" d="M1316.21,472.61" transform="translate(-641.94 -351.94)"/><path class="cls-2" d="M1341.65,395.37V364.9a12.75,12.75,0,0,0-12.75-12.75h-674a12.75,12.75,0,0,0-12.75,12.75v30.45" transform="translate(-641.94 -351.94)"/><polyline class="cls-2" points="25.7 102.92 17.19 102.92 17.19 94.43 8.68 94.43 8.68 102.92 0.2 102.92"/><polygon class="cls-2" points="17.2 5.63 8.7 5.63 4.45 12.99 8.7 20.36 17.2 20.36 21.45 12.99 17.2 5.63"/><polygon class="cls-2" points="17.19 5.64 8.69 5.64 4.43 13 8.69 20.37 17.19 20.37 21.44 13 17.19 5.64"/><polygon class="cls-2" points="691.2 126.07 682.7 126.07 678.45 133.44 682.7 140.8 691.2 140.8 695.45 133.44 691.2 126.07"/><polygon class="cls-2" points="691.19 126.08 682.68 126.08 678.43 133.44 682.68 140.81 691.19 140.81 695.44 133.44 691.19 126.08"/><polygon class="cls-2" points="691.2 5.63 682.7 5.63 678.45 12.99 682.7 20.36 691.2 20.36 695.46 12.99 691.2 5.63"/><polygon class="cls-2" points="691.19 5.63 682.69 5.63 678.44 13 682.69 20.36 691.19 20.36 695.44 13 691.19 5.63"/><polyline class="cls-2" points="699.69 43.46 691.21 43.46 691.21 51.95 682.7 51.95 682.7 43.46 674.19 43.46"/><polyline class="cls-2" points="699.69 102.97 691.17 102.97 691.17 94.48 682.66 94.48 682.66 102.97 674.19 102.97"/></svg>