<svg id="Layer_1" data-name="Layer 1" xmlns="http://www.w3.org/2000/svg" viewBox="0 0 42.91 59.93"><defs><style>.cls-1{fill:none;stroke:#000;stroke-miterlimit:11.34;stroke-width:0.4px;}</style></defs><line class="cls-1" x1="42.71" y1="51.23" x2="42.71" y2="8.7"/><line class="cls-1" x1="0.2" y1="8.7" x2="0.2" y2="51.23"/><path class="cls-1" d="M1013.15,403.87" transform="translate(-970.44 -395.17)"/><path class="cls-1" d="M970.64,403.87" transform="translate(-970.44 -395.17)"/><path class="cls-1" d="M1013.15,446.39" transform="translate(-970.44 -395.17)"/><path class="cls-1" d="M970.64,446.39" transform="translate(-970.44 -395.17)"/><polyline class="cls-1" points="0.2 51.22 8.71 51.22 8.71 59.73 17.19 59.73 17.19 51.22 25.68 51.22 25.68 59.73 34.19 59.73 34.19 51.22 42.71 51.22"/><polyline class="cls-1" points="42.71 8.71 34.2 8.71 34.2 0.21 25.72 0.21 25.72 8.71 17.23 8.71 17.23 0.2 8.72 0.2 8.72 8.71 0.2 8.71"/><polygon class="cls-1" points="28.68 47.75 14.22 47.76 14.22 12.33 28.68 12.33 28.68 47.75"/></svg>