<svg id="Layer_1" data-name="Layer 1" xmlns="http://www.w3.org/2000/svg" viewBox="0 0 699.92 146.37"><defs><style>.cls-1,.cls-2{fill:none;}.cls-1{stroke:#010101;stroke-miterlimit:11.34;stroke-width:0.4px;}.cls-2{stroke:#231f20;stroke-miterlimit:10;stroke-width:0.4px;}</style></defs><path class="cls-1" d="M670.09,472.66" transform="translate(-641.94 -351.94)"/><line class="cls-1" x1="674.21" y1="120.67" x2="25.71" y2="120.67"/><line class="cls-1" x1="25.71" y1="25.72" x2="674.21" y2="25.72"/><path class="cls-1" d="M1341.62,454.9l0,30.46a12.75,12.75,0,0,1-12.75,12.76H1004.64v-8.3h8.49v4.25h4.24v-17h-4.24v4.25h-42.5v-4.25h-4.25v17h4.24v-4.25h8.51v8.29H667.63" transform="translate(-641.94 -351.94)"/><path class="cls-2" d="M1341.62,454.9" transform="translate(-641.94 -351.94)"/><path class="cls-2" d="M1341.65,395.36" transform="translate(-641.94 -351.94)"/><path class="cls-2" d="M1316.21,472.61" transform="translate(-641.94 -351.94)"/><path class="cls-2" d="M1341.62,403.84h-8.47v-8.49h-8.51v8.49h-8.52l0-26.18H667.65l0,26.18h-8.47v-8.49h-8.51v8.49h-8.51V364.9a12.75,12.75,0,0,1,12.75-12.75h674a12.75,12.75,0,0,1,12.75,12.75v30.49Z" transform="translate(-641.94 -351.94)"/><polygon class="cls-2" points="17.2 5.64 8.7 5.64 4.45 13.01 8.7 20.37 17.2 20.37 21.45 13.01 17.2 5.64"/><polygon class="cls-2" points="17.19 5.65 8.69 5.65 4.43 13.02 8.69 20.38 17.19 20.38 21.44 13.02 17.19 5.65"/><polygon class="cls-2" points="691.2 126.08 682.7 126.08 678.45 133.45 682.7 140.81 691.2 140.81 695.45 133.45 691.2 126.08"/><polygon class="cls-2" points="691.19 126.09 682.68 126.09 678.43 133.46 682.68 140.82 691.19 140.82 695.44 133.46 691.19 126.09"/><polygon class="cls-2" points="691.2 5.64 682.7 5.64 678.45 13.01 682.7 20.37 691.2 20.37 695.46 13.01 691.2 5.64"/><polygon class="cls-2" points="691.19 5.65 682.69 5.65 678.44 13.01 682.69 20.38 691.19 20.38 695.44 13.01 691.19 5.65"/><polyline class="cls-2" points="699.68 102.95 699.68 94.43 691.17 94.43 691.17 102.92 682.68 102.92 682.68 94.43 674.19 94.43 674.2 102.95 674.21 120.67 25.71 120.67 25.7 94.43 17.18 94.43 17.18 102.92 8.69 102.92 8.69 94.43 0.2 94.43 0.2 120.68 8.71 120.68 8.71 112.2 4.45 112.2 4.45 107.95 21.45 107.95 21.45 112.2 17.21 112.2 17.21 120.68 25.71 129.38 34.19 129.38 34.19 125.13 38.44 125.13 38.44 142.12 34.19 142.12 34.19 137.88 25.71 137.88 25.7 146.17"/></svg>