<svg id="Layer_1" data-name="Layer 1" xmlns="http://www.w3.org/2000/svg" viewBox="0 0 699.93 146.38"><defs><style>.cls-1,.cls-2{fill:none;}.cls-1{stroke:#010101;stroke-miterlimit:11.34;stroke-width:0.4px;}.cls-2{stroke:#231f20;stroke-miterlimit:10;stroke-width:0.4px;}</style></defs><line class="cls-1" x1="674.21" y1="120.67" x2="25.71" y2="120.67"/><line class="cls-1" x1="25.71" y1="25.72" x2="674.21" y2="25.72"/><path class="cls-1" d="M1341.62,454.89l0,30.47a12.76,12.76,0,0,1-12.76,12.76H1004.64v-8.3h8.48v4.24h4.25v-17h-4.25v4.25H970.64v-4.25h-4.26v17h4.25v-4.25h8.51v8.29H667.63" transform="translate(-641.93 -351.94)"/><polyline class="cls-2" points="25.7 146.17 25.71 137.88 34.19 137.88 34.19 142.12 38.44 142.12 38.44 125.13 34.19 125.13 34.19 129.38 25.71 129.38 17.21 120.68 17.21 112.2 21.45 112.2 21.45 107.95 4.45 107.95 4.45 112.2 8.71 112.2 8.71 120.68 0.2 120.68 0.2 102.92 8.69 102.92 8.69 94.42 17.18 94.42 17.18 102.92 25.7 102.92 25.71 120.67 674.21 120.67 674.21 102.95"/><path class="cls-2" d="M1341.65,395.36V364.9a12.76,12.76,0,0,0-12.76-12.76h-674a12.76,12.76,0,0,0-12.76,12.76v30.44h8.52v8.5h8.51v-8.5h8.47V377.66h648.5l.07,17.7" transform="translate(-641.93 -351.94)"/><line class="cls-1" x1="674.21" y1="120.67" x2="25.72" y2="120.67"/><line class="cls-1" x1="25.72" y1="25.72" x2="674.21" y2="25.72"/><path class="cls-1" d="M1341.63,454.89l0,30.48a12.75,12.75,0,0,1-12.76,12.75H1004.65v-8.29h8.49v4.24h4.24v-17h-4.24v4.26H970.65v-4.26h-4.26v17h4.25v-4.24h8.51v8.28H667.64" transform="translate(-641.93 -351.94)"/><polyline class="cls-2" points="25.7 146.18 25.71 137.88 34.2 137.88 34.2 142.13 38.44 142.13 38.44 125.13 34.2 125.13 34.2 129.38 25.71 129.38 17.21 120.69 17.21 112.2 21.46 112.2 21.46 107.96 4.46 107.96 4.46 112.2 8.71 112.2 8.71 120.69 0.21 120.69 0.21 102.93 8.7 102.93 8.7 94.43 17.19 94.43 17.19 102.93 25.7 102.93 25.72 120.67 674.21 120.67 674.21 102.95"/><path class="cls-2" d="M1341.66,395.37V364.9a12.75,12.75,0,0,0-12.76-12.75h-674a12.75,12.75,0,0,0-12.76,12.75v30.44h8.51v8.51h8.51v-8.51h8.48V377.67h648.49l.07,17.7" transform="translate(-641.93 -351.94)"/><polygon class="cls-2" points="17.21 5.62 8.71 5.62 4.45 12.99 8.71 20.35 17.21 20.35 21.46 12.99 17.21 5.62"/><polygon class="cls-2" points="17.2 5.63 8.69 5.63 4.44 13 8.69 20.36 17.2 20.36 21.45 13 17.2 5.63"/><polygon class="cls-2" points="691.21 126.06 682.7 126.06 678.45 133.43 682.7 140.79 691.21 140.79 695.46 133.43 691.21 126.06"/><polygon class="cls-2" points="691.2 126.07 682.69 126.07 678.44 133.44 682.69 140.8 691.2 140.8 695.45 133.44 691.2 126.07"/><polygon class="cls-2" points="691.21 5.62 682.71 5.62 678.46 12.98 682.71 20.35 691.21 20.35 695.46 12.98 691.21 5.62"/><polygon class="cls-2" points="691.2 5.63 682.7 5.63 678.44 12.99 682.7 20.36 691.2 20.36 695.45 12.99 691.2 5.63"/><polyline class="cls-2" points="674.19 102.9 682.68 102.9 682.68 94.4 691.17 94.4 691.17 102.9 699.69 102.9"/><polyline class="cls-2" points="674.2 102.91 682.69 102.91 682.69 94.41 691.18 94.41 691.18 102.91 699.7 102.91"/><polyline class="cls-2" points="25.7 43.4 25.72 25.71 674.21 25.71 674.2 43.38 682.71 43.38 682.71 51.88 691.22 51.88 691.22 43.38 699.7 43.38"/><line class="cls-2" x1="674.28" y1="120.66" x2="674.28" y2="102.95"/></svg>