<svg id="Layer_1" data-name="Layer 1" xmlns="http://www.w3.org/2000/svg" viewBox="0 0 1036.93 402.43"><defs><style>.cls-1,.cls-2{fill:none;}.cls-1{stroke:#010101;stroke-miterlimit:11.34;stroke-width:0.4px;}.cls-2{stroke:#231f20;stroke-miterlimit:10;stroke-width:0.4px;}</style></defs><polygon class="cls-1" points="1023.97 0.2 1024.97 0.24 1025.97 0.36 1026.95 0.56 1027.92 0.83 1028.85 1.17 1029.76 1.59 1030.64 2.08 1031.47 2.64 1032.26 3.26 1032.99 3.94 1033.67 4.67 1034.29 5.46 1034.85 6.29 1035.34 7.17 1035.76 8.08 1036.11 9.02 1036.38 9.98 1036.57 10.96 1036.69 11.96 1036.73 12.96 1036.73 389.47 1036.69 390.48 1036.57 391.47 1036.38 392.45 1036.11 393.41 1035.76 394.36 1035.34 395.26 1034.85 396.14 1034.29 396.97 1033.67 397.76 1032.99 398.49 1032.26 399.17 1031.47 399.79 1030.64 400.35 1029.76 400.84 1028.85 401.26 1027.92 401.6 1026.95 401.88 1025.97 402.07 1024.97 402.19 1023.97 402.23 12.96 402.23 11.96 402.19 10.96 402.07 9.98 401.88 9.02 401.6 8.08 401.26 7.17 400.84 6.29 400.35 5.46 399.79 4.67 399.17 3.94 398.49 3.26 397.76 2.64 396.97 2.08 396.14 1.59 395.26 1.17 394.36 0.83 393.41 0.56 392.45 0.36 391.47 0.24 390.48 0.2 389.47 0.2 12.96 0.24 11.96 0.36 10.96 0.56 9.98 0.83 9.02 1.17 8.08 1.59 7.17 2.08 6.29 2.64 5.46 3.26 4.67 3.94 3.94 4.67 3.26 5.46 2.64 6.29 2.08 7.17 1.59 8.08 1.17 9.02 0.83 9.98 0.56 10.96 0.36 11.96 0.24 12.96 0.2 1023.97 0.2"/><polygon class="cls-1" points="377.12 329.87 377.12 332.71 374.85 332.71 374.85 341.5 377.12 341.5 377.12 343.2 264.8 343.2 264.8 334.04 259.91 334.04 259.91 331.43 250.55 331.43 250.55 334.04 245.66 334.04 245.66 343.2 243.33 343.2 243.33 351.13 245.66 351.13 245.66 368.91 250.55 368.91 250.55 371.68 259.91 371.68 259.91 368.91 264.8 368.91 264.8 356.24 377.12 356.24 377.12 357.94 374.85 357.94 374.85 366.72 377.12 366.72 377.12 369.56 416.81 369.56 416.81 366.72 419.07 366.72 419.07 357.94 416.81 357.94 416.81 356.24 529.13 356.24 529.13 368.91 534.02 368.91 534.02 371.68 543.37 371.68 543.37 368.91 548.26 368.91 548.26 351.13 550.6 351.13 550.6 343.2 548.26 343.2 548.26 334.04 543.37 334.04 543.37 331.43 534.02 331.43 534.02 334.04 529.13 334.04 529.13 343.2 416.81 343.2 416.81 341.5 419.07 341.5 419.07 332.71 416.81 332.71 416.81 329.87 377.12 329.87"/><polygon class="cls-1" points="964.37 329.87 964.37 332.71 962.1 332.71 962.1 341.5 964.37 341.5 964.37 357.94 962.1 357.94 962.1 366.72 964.37 366.72 964.37 369.56 1004.06 369.56 1004.06 366.72 1006.32 366.72 1006.32 357.94 1004.06 357.94 1004.06 341.5 1006.32 341.5 1006.32 332.71 1004.06 332.71 1004.06 329.87 964.37 329.87"/><polygon class="cls-1" points="910.37 329.87 910.37 332.71 908.1 332.71 908.1 341.5 910.37 341.5 910.37 357.94 908.1 357.94 908.1 366.72 910.37 366.72 910.37 369.56 950.06 369.56 950.06 366.72 952.32 366.72 952.32 357.94 950.06 357.94 950.06 341.5 952.32 341.5 952.32 332.71 950.06 332.71 950.06 329.87 910.37 329.87"/><polygon class="cls-1" points="856.37 329.87 856.37 332.71 854.1 332.71 854.1 341.5 856.37 341.5 856.37 357.94 854.1 357.94 854.1 366.72 856.37 366.72 856.37 369.56 896.06 369.56 896.06 366.72 898.32 366.72 898.32 357.94 896.06 357.94 896.06 341.5 898.32 341.5 898.32 332.71 896.06 332.71 896.06 329.87 856.37 329.87"/><polygon class="cls-1" points="782.12 329.87 782.12 332.71 779.85 332.71 779.85 341.5 782.12 341.5 782.12 357.94 779.85 357.94 779.85 366.72 782.12 366.72 782.12 369.56 821.81 369.56 821.81 366.72 824.07 366.72 824.07 357.94 821.81 357.94 821.81 341.5 824.07 341.5 824.07 332.71 821.81 332.71 821.81 329.87 782.12 329.87"/><polygon class="cls-1" points="714.62 329.87 714.62 332.71 712.36 332.71 712.36 341.5 714.62 341.5 714.62 357.94 712.36 357.94 712.36 366.72 714.62 366.72 714.62 369.56 754.31 369.56 754.31 366.72 756.58 366.72 756.58 357.94 754.31 357.94 754.31 341.5 756.58 341.5 756.58 332.71 754.31 332.71 754.31 329.87 714.62 329.87"/><polygon class="cls-1" points="647.12 329.87 647.12 332.71 644.85 332.71 644.85 341.5 647.12 341.5 647.12 357.94 644.85 357.94 644.85 366.72 647.12 366.72 647.12 369.56 686.81 369.56 686.81 366.72 689.07 366.72 689.07 357.94 686.81 357.94 686.81 341.5 689.07 341.5 689.07 332.71 686.81 332.71 686.81 329.87 647.12 329.87"/><polygon class="cls-1" points="579.62 329.87 579.62 332.71 577.36 332.71 577.36 341.5 579.62 341.5 579.62 357.94 577.36 357.94 577.36 366.72 579.62 366.72 579.62 369.56 619.31 369.56 619.31 366.72 621.58 366.72 621.58 357.94 619.31 357.94 619.31 341.5 621.58 341.5 621.58 332.71 619.31 332.71 619.31 329.87 579.62 329.87"/><polygon class="cls-1" points="174.62 329.87 174.62 332.71 172.35 332.71 172.35 341.5 174.62 341.5 174.62 357.94 172.35 357.94 172.35 366.72 174.62 366.72 174.62 369.56 214.31 369.56 214.31 366.72 216.57 366.72 216.57 357.94 214.31 357.94 214.31 341.5 216.57 341.5 216.57 332.71 214.31 332.71 214.31 329.87 174.62 329.87"/><polygon class="cls-1" points="107.12 329.87 107.12 332.71 104.85 332.71 104.85 341.5 107.12 341.5 107.12 357.94 104.85 357.94 104.85 366.72 107.12 366.72 107.12 369.56 146.81 369.56 146.81 366.72 149.07 366.72 149.07 357.94 146.81 357.94 146.81 341.5 149.07 341.5 149.07 332.71 146.81 332.71 146.81 329.87 107.12 329.87"/><polygon class="cls-1" points="39.62 329.87 39.62 332.71 37.35 332.71 37.35 341.5 39.62 341.5 39.62 357.94 37.35 357.94 37.35 366.72 39.62 366.72 39.62 369.56 79.31 369.56 79.31 366.72 81.58 366.72 81.58 357.94 79.31 357.94 79.31 341.5 81.58 341.5 81.58 332.71 79.31 332.71 79.31 329.87 39.62 329.87"/><polygon class="cls-1" points="741.62 275.87 741.62 278.71 739.36 278.71 739.36 287.5 741.62 287.5 741.62 289.2 737.3 289.2 737.3 280.04 732.41 280.04 732.41 277.43 723.05 277.43 723.05 280.04 718.17 280.04 718.17 289.2 715.83 289.2 715.83 297.13 718.17 297.13 718.17 314.91 723.05 314.91 723.05 317.68 732.41 317.68 732.41 314.91 737.3 314.91 737.3 302.24 741.62 302.24 741.62 303.94 739.36 303.94 739.36 312.72 741.62 312.72 741.62 315.56 781.31 315.56 781.31 312.72 783.58 312.72 783.58 303.94 781.31 303.94 781.31 302.24 785.63 302.24 785.63 314.91 790.52 314.91 790.52 317.68 799.87 317.68 799.87 314.91 804.76 314.91 804.76 297.13 807.1 297.13 807.1 289.2 804.76 289.2 804.76 280.04 799.87 280.04 799.87 277.43 790.52 277.43 790.52 280.04 785.63 280.04 785.63 289.2 781.31 289.2 781.31 287.5 783.58 287.5 783.58 278.71 781.31 278.71 781.31 275.87 741.62 275.87"/><polygon class="cls-1" points="66.62 275.87 66.62 278.71 64.36 278.71 64.36 287.5 66.62 287.5 66.62 289.2 62.3 289.2 62.3 280.04 57.41 280.04 57.41 277.43 48.05 277.43 48.05 280.04 43.17 280.04 43.17 289.2 40.83 289.2 40.83 297.13 43.17 297.13 43.17 314.91 48.05 314.91 48.05 317.68 57.41 317.68 57.41 314.91 62.3 314.91 62.3 302.24 66.62 302.24 66.62 303.94 64.36 303.94 64.36 312.72 66.62 312.72 66.62 315.56 106.31 315.56 106.31 312.72 108.58 312.72 108.58 303.94 106.31 303.94 106.31 302.24 110.63 302.24 110.63 314.91 115.52 314.91 115.52 317.68 124.87 317.68 124.87 314.91 129.76 314.91 129.76 297.13 132.1 297.13 132.1 289.2 129.76 289.2 129.76 280.04 124.87 280.04 124.87 277.43 115.52 277.43 115.52 280.04 110.63 280.04 110.63 289.2 106.31 289.2 106.31 287.5 108.58 287.5 108.58 278.71 106.31 278.71 106.31 275.87 66.62 275.87"/><polygon class="cls-1" points="910.37 275.87 910.37 278.71 908.1 278.71 908.1 287.5 910.37 287.5 910.37 303.94 908.1 303.94 908.1 312.72 910.37 312.72 910.37 315.56 950.06 315.56 950.06 312.72 952.32 312.72 952.32 303.94 950.06 303.94 950.06 287.5 952.32 287.5 952.32 278.71 950.06 278.71 950.06 275.87 910.37 275.87"/><polygon class="cls-1" points="640.37 275.87 640.37 278.71 638.1 278.71 638.1 287.5 640.37 287.5 640.37 303.94 638.1 303.94 638.1 312.72 640.37 312.72 640.37 315.56 680.06 315.56 680.06 312.72 682.32 312.72 682.32 303.94 680.06 303.94 680.06 287.5 682.32 287.5 682.32 278.71 680.06 278.71 680.06 275.87 640.37 275.87"/><polygon class="cls-1" points="586.37 275.87 586.37 278.71 584.1 278.71 584.1 287.5 586.37 287.5 586.37 303.94 584.1 303.94 584.1 312.72 586.37 312.72 586.37 315.56 626.06 315.56 626.06 312.72 628.32 312.72 628.32 303.94 626.06 303.94 626.06 287.5 628.32 287.5 628.32 278.71 626.06 278.71 626.06 275.87 586.37 275.87"/><polygon class="cls-1" points="532.37 275.87 532.37 278.71 530.1 278.71 530.1 287.5 532.37 287.5 532.37 303.94 530.1 303.94 530.1 312.72 532.37 312.72 532.37 315.56 572.06 315.56 572.06 312.72 574.32 312.72 574.32 303.94 572.06 303.94 572.06 287.5 574.32 287.5 574.32 278.71 572.06 278.71 572.06 275.87 532.37 275.87"/><polygon class="cls-1" points="478.37 275.87 478.37 278.71 476.1 278.71 476.1 287.5 478.37 287.5 478.37 303.94 476.1 303.94 476.1 312.72 478.37 312.72 478.37 315.56 518.06 315.56 518.06 312.72 520.32 312.72 520.32 303.94 518.06 303.94 518.06 287.5 520.32 287.5 520.32 278.71 518.06 278.71 518.06 275.87 478.37 275.87"/><polygon class="cls-1" points="424.37 275.87 424.37 278.71 422.1 278.71 422.1 287.5 424.37 287.5 424.37 303.94 422.1 303.94 422.1 312.72 424.37 312.72 424.37 315.56 464.06 315.56 464.06 312.72 466.32 312.72 466.32 303.94 464.06 303.94 464.06 287.5 466.32 287.5 466.32 278.71 464.06 278.71 464.06 275.87 424.37 275.87"/><polygon class="cls-1" points="370.37 275.87 370.37 278.71 368.1 278.71 368.1 287.5 370.37 287.5 370.37 303.94 368.1 303.94 368.1 312.72 370.37 312.72 370.37 315.56 410.06 315.56 410.06 312.72 412.32 312.72 412.32 303.94 410.06 303.94 410.06 287.5 412.32 287.5 412.32 278.71 410.06 278.71 410.06 275.87 370.37 275.87"/><polygon class="cls-1" points="316.37 275.87 316.37 278.71 314.1 278.71 314.1 287.5 316.37 287.5 316.37 303.94 314.1 303.94 314.1 312.72 316.37 312.72 316.37 315.56 356.06 315.56 356.06 312.72 358.32 312.72 358.32 303.94 356.06 303.94 356.06 287.5 358.32 287.5 358.32 278.71 356.06 278.71 356.06 275.87 316.37 275.87"/><polygon class="cls-1" points="262.37 275.87 262.37 278.71 260.1 278.71 260.1 287.5 262.37 287.5 262.37 303.94 260.1 303.94 260.1 312.72 262.37 312.72 262.37 315.56 302.06 315.56 302.06 312.72 304.32 312.72 304.32 303.94 302.06 303.94 302.06 287.5 304.32 287.5 304.32 278.71 302.06 278.71 302.06 275.87 262.37 275.87"/><polygon class="cls-1" points="208.37 275.87 208.37 278.71 206.1 278.71 206.1 287.5 208.37 287.5 208.37 303.94 206.1 303.94 206.1 312.72 208.37 312.72 208.37 315.56 248.06 315.56 248.06 312.72 250.32 312.72 250.32 303.94 248.06 303.94 248.06 287.5 250.32 287.5 250.32 278.71 248.06 278.71 248.06 275.87 208.37 275.87"/><polygon class="cls-1" points="154.37 275.87 154.37 278.71 152.1 278.71 152.1 287.5 154.37 287.5 154.37 303.94 152.1 303.94 152.1 312.72 154.37 312.72 154.37 315.56 194.06 315.56 194.06 312.72 196.32 312.72 196.32 303.94 194.06 303.94 194.06 287.5 196.32 287.5 196.32 278.71 194.06 278.71 194.06 275.87 154.37 275.87"/><polygon class="cls-1" points="755.12 221.87 755.12 224.71 752.85 224.71 752.85 233.5 755.12 233.5 755.12 235.2 750.8 235.2 750.8 226.04 745.91 226.04 745.91 223.43 736.55 223.43 736.55 226.04 731.66 226.04 731.66 235.2 729.33 235.2 729.33 243.13 731.66 243.13 731.66 260.91 736.55 260.91 736.55 263.68 745.91 263.68 745.91 260.91 750.8 260.91 750.8 248.24 755.12 248.24 755.12 249.94 752.85 249.94 752.85 258.72 755.12 258.72 755.12 261.56 794.81 261.56 794.81 258.72 797.07 258.72 797.07 249.94 794.81 249.94 794.81 248.24 799.13 248.24 799.13 260.91 804.02 260.91 804.02 263.68 813.37 263.68 813.37 260.91 818.26 260.91 818.26 243.13 820.6 243.13 820.6 235.2 818.26 235.2 818.26 226.04 813.37 226.04 813.37 223.43 804.02 223.43 804.02 226.04 799.13 226.04 799.13 235.2 794.81 235.2 794.81 233.5 797.07 233.5 797.07 224.71 794.81 224.71 794.81 221.87 755.12 221.87"/><polygon class="cls-1" points="667.37 221.87 667.37 224.71 665.1 224.71 665.1 233.5 667.37 233.5 667.37 249.94 665.1 249.94 665.1 258.72 667.37 258.72 667.37 261.56 707.06 261.56 707.06 258.72 709.32 258.72 709.32 249.94 707.06 249.94 707.06 233.5 709.32 233.5 709.32 224.71 707.06 224.71 707.06 221.87 667.37 221.87"/><polygon class="cls-1" points="613.37 221.87 613.37 224.71 611.1 224.71 611.1 233.5 613.37 233.5 613.37 249.94 611.1 249.94 611.1 258.72 613.37 258.72 613.37 261.56 653.06 261.56 653.06 258.72 655.32 258.72 655.32 249.94 653.06 249.94 653.06 233.5 655.32 233.5 655.32 224.71 653.06 224.71 653.06 221.87 613.37 221.87"/><polygon class="cls-1" points="559.37 221.87 559.37 224.71 557.1 224.71 557.1 233.5 559.37 233.5 559.37 249.94 557.1 249.94 557.1 258.72 559.37 258.72 559.37 261.56 599.06 261.56 599.06 258.72 601.32 258.72 601.32 249.94 599.06 249.94 599.06 233.5 601.32 233.5 601.32 224.71 599.06 224.71 599.06 221.87 559.37 221.87"/><polygon class="cls-1" points="505.37 221.87 505.37 224.71 503.1 224.71 503.1 233.5 505.37 233.5 505.37 249.94 503.1 249.94 503.1 258.72 505.37 258.72 505.37 261.56 545.06 261.56 545.06 258.72 547.32 258.72 547.32 249.94 545.06 249.94 545.06 233.5 547.32 233.5 547.32 224.71 545.06 224.71 545.06 221.87 505.37 221.87"/><polygon class="cls-1" points="451.37 221.87 451.37 224.71 449.1 224.71 449.1 233.5 451.37 233.5 451.37 249.94 449.1 249.94 449.1 258.72 451.37 258.72 451.37 261.56 491.06 261.56 491.06 258.72 493.32 258.72 493.32 249.94 491.06 249.94 491.06 233.5 493.32 233.5 493.32 224.71 491.06 224.71 491.06 221.87 451.37 221.87"/><polygon class="cls-1" points="397.37 221.87 397.37 224.71 395.1 224.71 395.1 233.5 397.37 233.5 397.37 249.94 395.1 249.94 395.1 258.72 397.37 258.72 397.37 261.56 437.06 261.56 437.06 258.72 439.32 258.72 439.32 249.94 437.06 249.94 437.06 233.5 439.32 233.5 439.32 224.71 437.06 224.71 437.06 221.87 397.37 221.87"/><polygon class="cls-1" points="343.37 221.87 343.37 224.71 341.1 224.71 341.1 233.5 343.37 233.5 343.37 249.94 341.1 249.94 341.1 258.72 343.37 258.72 343.37 261.56 383.06 261.56 383.06 258.72 385.32 258.72 385.32 249.94 383.06 249.94 383.06 233.5 385.32 233.5 385.32 224.71 383.06 224.71 383.06 221.87 343.37 221.87"/><polygon class="cls-1" points="289.37 221.87 289.37 224.71 287.1 224.71 287.1 233.5 289.37 233.5 289.37 249.94 287.1 249.94 287.1 258.72 289.37 258.72 289.37 261.56 329.06 261.56 329.06 258.72 331.32 258.72 331.32 249.94 329.06 249.94 329.06 233.5 331.32 233.5 331.32 224.71 329.06 224.71 329.06 221.87 289.37 221.87"/><polygon class="cls-1" points="235.37 221.87 235.37 224.71 233.1 224.71 233.1 233.5 235.37 233.5 235.37 249.94 233.1 249.94 233.1 258.72 235.37 258.72 235.37 261.56 275.06 261.56 275.06 258.72 277.32 258.72 277.32 249.94 275.06 249.94 275.06 233.5 277.32 233.5 277.32 224.71 275.06 224.71 275.06 221.87 235.37 221.87"/><polygon class="cls-1" points="181.37 221.87 181.37 224.71 179.1 224.71 179.1 233.5 181.37 233.5 181.37 249.94 179.1 249.94 179.1 258.72 181.37 258.72 181.37 261.56 221.06 261.56 221.06 258.72 223.32 258.72 223.32 249.94 221.06 249.94 221.06 233.5 223.32 233.5 223.32 224.71 221.06 224.71 221.06 221.87 181.37 221.87"/><polygon class="cls-1" points="127.37 221.87 127.37 224.71 125.1 224.71 125.1 233.5 127.37 233.5 127.37 249.94 125.1 249.94 125.1 258.72 127.37 258.72 127.37 261.56 167.06 261.56 167.06 258.72 169.32 258.72 169.32 249.94 167.06 249.94 167.06 233.5 169.32 233.5 169.32 224.71 167.06 224.71 167.06 221.87 127.37 221.87"/><polygon class="cls-1" points="53.12 221.87 53.12 224.71 50.85 224.71 50.85 233.5 53.12 233.5 53.12 249.94 50.85 249.94 50.85 258.72 53.12 258.72 53.12 261.56 92.81 261.56 92.81 258.72 95.07 258.72 95.07 249.94 92.81 249.94 92.81 233.5 95.07 233.5 95.07 224.71 92.81 224.71 92.81 221.87 53.12 221.87"/><polygon class="cls-1" points="964.37 167.87 964.37 170.71 962.1 170.71 962.1 179.5 964.37 179.5 964.37 195.94 962.1 195.94 962.1 204.72 964.37 204.72 964.37 207.56 1004.06 207.56 1004.06 204.72 1006.32 204.72 1006.32 195.94 1004.06 195.94 1004.06 179.5 1006.32 179.5 1006.32 170.71 1004.06 170.71 1004.06 167.87 964.37 167.87"/><polygon class="cls-1" points="910.37 167.87 910.37 170.71 908.1 170.71 908.1 179.5 910.37 179.5 910.37 195.94 908.1 195.94 908.1 204.72 910.37 204.72 910.37 207.56 950.06 207.56 950.06 204.72 952.32 204.72 952.32 195.94 950.06 195.94 950.06 179.5 952.32 179.5 952.32 170.71 950.06 170.71 950.06 167.87 910.37 167.87"/><polygon class="cls-1" points="856.37 167.87 856.37 170.71 854.1 170.71 854.1 179.5 856.37 179.5 856.37 195.94 854.1 195.94 854.1 204.72 856.37 204.72 856.37 207.56 896.06 207.56 896.06 204.72 898.32 204.72 898.32 195.94 896.06 195.94 896.06 179.5 898.32 179.5 898.32 170.71 896.06 170.71 896.06 167.87 856.37 167.87"/><polygon class="cls-1" points="775.37 167.87 775.37 170.71 773.1 170.71 773.1 179.5 775.37 179.5 775.37 195.94 773.1 195.94 773.1 204.72 775.37 204.72 775.37 207.56 815.06 207.56 815.06 204.72 817.32 204.72 817.32 195.94 815.06 195.94 815.06 179.5 817.32 179.5 817.32 170.71 815.06 170.71 815.06 167.87 775.37 167.87"/><polygon class="cls-1" points="707.87 167.87 707.87 170.71 705.61 170.71 705.61 179.5 707.87 179.5 707.87 195.94 705.61 195.94 705.61 204.72 707.87 204.72 707.87 207.56 747.56 207.56 747.56 204.72 749.83 204.72 749.83 195.94 747.56 195.94 747.56 179.5 749.83 179.5 749.83 170.71 747.56 170.71 747.56 167.87 707.87 167.87"/><polygon class="cls-1" points="653.87 167.87 653.87 170.71 651.61 170.71 651.61 179.5 653.87 179.5 653.87 195.94 651.61 195.94 651.61 204.72 653.87 204.72 653.87 207.56 693.56 207.56 693.56 204.72 695.83 204.72 695.83 195.94 693.56 195.94 693.56 179.5 695.83 179.5 695.83 170.71 693.56 170.71 693.56 167.87 653.87 167.87"/><polygon class="cls-1" points="599.87 167.87 599.87 170.71 597.61 170.71 597.61 179.5 599.87 179.5 599.87 195.94 597.61 195.94 597.61 204.72 599.87 204.72 599.87 207.56 639.56 207.56 639.56 204.72 641.83 204.72 641.83 195.94 639.56 195.94 639.56 179.5 641.83 179.5 641.83 170.71 639.56 170.71 639.56 167.87 599.87 167.87"/><polygon class="cls-1" points="545.87 167.87 545.87 170.71 543.61 170.71 543.61 179.5 545.87 179.5 545.87 195.94 543.61 195.94 543.61 204.72 545.87 204.72 545.87 207.56 585.56 207.56 585.56 204.72 587.83 204.72 587.83 195.94 585.56 195.94 585.56 179.5 587.83 179.5 587.83 170.71 585.56 170.71 585.56 167.87 545.87 167.87"/><polygon class="cls-1" points="491.87 167.87 491.87 170.71 489.61 170.71 489.61 179.5 491.87 179.5 491.87 195.94 489.61 195.94 489.61 204.72 491.87 204.72 491.87 207.56 531.56 207.56 531.56 204.72 533.83 204.72 533.83 195.94 531.56 195.94 531.56 179.5 533.83 179.5 533.83 170.71 531.56 170.71 531.56 167.87 491.87 167.87"/><polygon class="cls-1" points="437.87 167.87 437.87 170.71 435.61 170.71 435.61 179.5 437.87 179.5 437.87 195.94 435.61 195.94 435.61 204.72 437.87 204.72 437.87 207.56 477.56 207.56 477.56 204.72 479.83 204.72 479.83 195.94 477.56 195.94 477.56 179.5 479.83 179.5 479.83 170.71 477.56 170.71 477.56 167.87 437.87 167.87"/><polygon class="cls-1" points="383.87 167.87 383.87 170.71 381.61 170.71 381.61 179.5 383.87 179.5 383.87 195.94 381.61 195.94 381.61 204.72 383.87 204.72 383.87 207.56 423.56 207.56 423.56 204.72 425.83 204.72 425.83 195.94 423.56 195.94 423.56 179.5 425.83 179.5 425.83 170.71 423.56 170.71 423.56 167.87 383.87 167.87"/><polygon class="cls-1" points="329.87 167.87 329.87 170.71 327.61 170.71 327.61 179.5 329.87 179.5 329.87 195.94 327.61 195.94 327.61 204.72 329.87 204.72 329.87 207.56 369.56 207.56 369.56 204.72 371.83 204.72 371.83 195.94 369.56 195.94 369.56 179.5 371.83 179.5 371.83 170.71 369.56 170.71 369.56 167.87 329.87 167.87"/><polygon class="cls-1" points="275.87 167.87 275.87 170.71 273.61 170.71 273.61 179.5 275.87 179.5 275.87 195.94 273.61 195.94 273.61 204.72 275.87 204.72 275.87 207.56 315.56 207.56 315.56 204.72 317.83 204.72 317.83 195.94 315.56 195.94 315.56 179.5 317.83 179.5 317.83 170.71 315.56 170.71 315.56 167.87 275.87 167.87"/><polygon class="cls-1" points="221.87 167.87 221.87 170.71 219.6 170.71 219.6 179.5 221.87 179.5 221.87 195.94 219.6 195.94 219.6 204.72 221.87 204.72 221.87 207.56 261.56 207.56 261.56 204.72 263.83 204.72 263.83 195.94 261.56 195.94 261.56 179.5 263.83 179.5 263.83 170.71 261.56 170.71 261.56 167.87 221.87 167.87"/><polygon class="cls-1" points="167.87 167.87 167.87 170.71 165.6 170.71 165.6 179.5 167.87 179.5 167.87 195.94 165.6 195.94 165.6 204.72 167.87 204.72 167.87 207.56 207.56 207.56 207.56 204.72 209.83 204.72 209.83 195.94 207.56 195.94 207.56 179.5 209.83 179.5 209.83 170.71 207.56 170.71 207.56 167.87 167.87 167.87"/><polygon class="cls-1" points="113.87 167.87 113.87 170.71 111.61 170.71 111.61 179.5 113.87 179.5 113.87 195.94 111.61 195.94 111.61 204.72 113.87 204.72 113.87 207.56 153.56 207.56 153.56 204.72 155.83 204.72 155.83 195.94 153.56 195.94 153.56 179.5 155.83 179.5 155.83 170.71 153.56 170.71 153.56 167.87 113.87 167.87"/><polygon class="cls-1" points="46.37 167.87 46.37 170.71 44.1 170.71 44.1 179.5 46.37 179.5 46.37 195.94 44.1 195.94 44.1 204.72 46.37 204.72 46.37 207.56 86.06 207.56 86.06 204.72 88.32 204.72 88.32 195.94 86.06 195.94 86.06 179.5 88.32 179.5 88.32 170.71 86.06 170.71 86.06 167.87 46.37 167.87"/><polygon class="cls-1" points="761.87 113.87 761.87 116.71 759.61 116.71 759.61 125.5 761.87 125.5 761.87 127.2 757.55 127.2 757.55 118.04 752.66 118.04 752.66 115.43 743.31 115.43 743.31 118.04 738.42 118.04 738.42 127.2 736.08 127.2 736.08 135.13 738.42 135.13 738.42 152.91 743.31 152.91 743.31 155.68 752.66 155.68 752.66 152.91 757.55 152.91 757.55 140.24 761.87 140.24 761.87 141.94 759.61 141.94 759.61 150.72 761.87 150.72 761.87 153.56 801.56 153.56 801.56 150.72 803.83 150.72 803.83 141.94 801.56 141.94 801.56 140.24 805.88 140.24 805.88 152.91 810.77 152.91 810.77 155.68 820.13 155.68 820.13 152.91 825.01 152.91 825.01 135.13 827.35 135.13 827.35 127.2 825.01 127.2 825.01 118.04 820.13 118.04 820.13 115.43 810.77 115.43 810.77 118.04 805.88 118.04 805.88 127.2 801.56 127.2 801.56 125.5 803.83 125.5 803.83 116.71 801.56 116.71 801.56 113.87 761.87 113.87"/><polygon class="cls-1" points="964.37 113.87 964.37 116.71 962.1 116.71 962.1 125.5 964.37 125.5 964.37 141.94 962.1 141.94 962.1 150.72 964.37 150.72 964.37 153.56 1004.06 153.56 1004.06 150.72 1006.32 150.72 1006.32 141.94 1004.06 141.94 1004.06 125.5 1006.32 125.5 1006.32 116.71 1004.06 116.71 1004.06 113.87 964.37 113.87"/><polygon class="cls-1" points="910.37 113.87 910.37 116.71 908.1 116.71 908.1 125.5 910.37 125.5 910.37 141.94 908.1 141.94 908.1 150.72 910.37 150.72 910.37 153.56 950.06 153.56 950.06 150.72 952.32 150.72 952.32 141.94 950.06 141.94 950.06 125.5 952.32 125.5 952.32 116.71 950.06 116.71 950.06 113.87 910.37 113.87"/><polygon class="cls-1" points="856.37 113.87 856.37 116.71 854.1 116.71 854.1 125.5 856.37 125.5 856.37 141.94 854.1 141.94 854.1 150.72 856.37 150.72 856.37 153.56 896.06 153.56 896.06 150.72 898.32 150.72 898.32 141.94 896.06 141.94 896.06 125.5 898.32 125.5 898.32 116.71 896.06 116.71 896.06 113.87 856.37 113.87"/><polygon class="cls-1" points="680.87 113.87 680.87 116.71 678.61 116.71 678.61 125.5 680.87 125.5 680.87 141.94 678.61 141.94 678.61 150.72 680.87 150.72 680.87 153.56 720.56 153.56 720.56 150.72 722.83 150.72 722.83 141.94 720.56 141.94 720.56 125.5 722.83 125.5 722.83 116.71 720.56 116.71 720.56 113.87 680.87 113.87"/><polygon class="cls-1" points="626.87 113.87 626.87 116.71 624.61 116.71 624.61 125.5 626.87 125.5 626.87 141.94 624.61 141.94 624.61 150.72 626.87 150.72 626.87 153.56 666.56 153.56 666.56 150.72 668.83 150.72 668.83 141.94 666.56 141.94 666.56 125.5 668.83 125.5 668.83 116.71 666.56 116.71 666.56 113.87 626.87 113.87"/><polygon class="cls-1" points="572.87 113.87 572.87 116.71 570.61 116.71 570.61 125.5 572.87 125.5 572.87 141.94 570.61 141.94 570.61 150.72 572.87 150.72 572.87 153.56 612.56 153.56 612.56 150.72 614.83 150.72 614.83 141.94 612.56 141.94 612.56 125.5 614.83 125.5 614.83 116.71 612.56 116.71 612.56 113.87 572.87 113.87"/><polygon class="cls-1" points="518.87 113.87 518.87 116.71 516.61 116.71 516.61 125.5 518.87 125.5 518.87 141.94 516.61 141.94 516.61 150.72 518.87 150.72 518.87 153.56 558.56 153.56 558.56 150.72 560.83 150.72 560.83 141.94 558.56 141.94 558.56 125.5 560.83 125.5 560.83 116.71 558.56 116.71 558.56 113.87 518.87 113.87"/><polygon class="cls-1" points="464.87 113.87 464.87 116.71 462.61 116.71 462.61 125.5 464.87 125.5 464.87 141.94 462.61 141.94 462.61 150.72 464.87 150.72 464.87 153.56 504.56 153.56 504.56 150.72 506.83 150.72 506.83 141.94 504.56 141.94 504.56 125.5 506.83 125.5 506.83 116.71 504.56 116.71 504.56 113.87 464.87 113.87"/><polygon class="cls-1" points="410.87 113.87 410.87 116.71 408.61 116.71 408.61 125.5 410.87 125.5 410.87 141.94 408.61 141.94 408.61 150.72 410.87 150.72 410.87 153.56 450.56 153.56 450.56 150.72 452.83 150.72 452.83 141.94 450.56 141.94 450.56 125.5 452.83 125.5 452.83 116.71 450.56 116.71 450.56 113.87 410.87 113.87"/><polygon class="cls-1" points="356.87 113.87 356.87 116.71 354.6 116.71 354.6 125.5 356.87 125.5 356.87 141.94 354.6 141.94 354.6 150.72 356.87 150.72 356.87 153.56 396.56 153.56 396.56 150.72 398.83 150.72 398.83 141.94 396.56 141.94 396.56 125.5 398.83 125.5 398.83 116.71 396.56 116.71 396.56 113.87 356.87 113.87"/><polygon class="cls-1" points="302.87 113.87 302.87 116.71 300.61 116.71 300.61 125.5 302.87 125.5 302.87 141.94 300.61 141.94 300.61 150.72 302.87 150.72 302.87 153.56 342.56 153.56 342.56 150.72 344.82 150.72 344.82 141.94 342.56 141.94 342.56 125.5 344.82 125.5 344.82 116.71 342.56 116.71 342.56 113.87 302.87 113.87"/><polygon class="cls-1" points="248.87 113.87 248.87 116.71 246.6 116.71 246.6 125.5 248.87 125.5 248.87 141.94 246.6 141.94 246.6 150.72 248.87 150.72 248.87 153.56 288.56 153.56 288.56 150.72 290.82 150.72 290.82 141.94 288.56 141.94 288.56 125.5 290.82 125.5 290.82 116.71 288.56 116.71 288.56 113.87 248.87 113.87"/><polygon class="cls-1" points="194.87 113.87 194.87 116.71 192.6 116.71 192.6 125.5 194.87 125.5 194.87 141.94 192.6 141.94 192.6 150.72 194.87 150.72 194.87 153.56 234.56 153.56 234.56 150.72 236.83 150.72 236.83 141.94 234.56 141.94 234.56 125.5 236.83 125.5 236.83 116.71 234.56 116.71 234.56 113.87 194.87 113.87"/><polygon class="cls-1" points="140.87 113.87 140.87 116.71 138.6 116.71 138.6 125.5 140.87 125.5 140.87 141.94 138.6 141.94 138.6 150.72 140.87 150.72 140.87 153.56 180.56 153.56 180.56 150.72 182.83 150.72 182.83 141.94 180.56 141.94 180.56 125.5 182.83 125.5 182.83 116.71 180.56 116.71 180.56 113.87 140.87 113.87"/><polygon class="cls-1" points="86.87 113.87 86.87 116.71 84.61 116.71 84.61 125.5 86.87 125.5 86.87 141.94 84.61 141.94 84.61 150.72 86.87 150.72 86.87 153.56 126.56 153.56 126.56 150.72 128.83 150.72 128.83 141.94 126.56 141.94 126.56 125.5 128.83 125.5 128.83 116.71 126.56 116.71 126.56 113.87 86.87 113.87"/><polygon class="cls-1" points="32.87 113.87 32.87 116.71 30.6 116.71 30.6 125.5 32.87 125.5 32.87 141.94 30.6 141.94 30.6 150.72 32.87 150.72 32.87 153.56 72.56 153.56 72.56 150.72 74.83 150.72 74.83 141.94 72.56 141.94 72.56 125.5 74.83 125.5 74.83 116.71 72.56 116.71 72.56 113.87 32.87 113.87"/><polygon class="cls-1" points="964.37 32.87 964.37 35.71 962.1 35.71 962.1 44.49 964.37 44.49 964.37 60.93 962.1 60.93 962.1 69.72 964.37 69.72 964.37 72.56 1004.06 72.56 1004.06 69.72 1006.32 69.72 1006.32 60.93 1004.06 60.93 1004.06 44.49 1006.32 44.49 1006.32 35.71 1004.06 35.71 1004.06 32.87 964.37 32.87"/><polygon class="cls-1" points="910.37 32.87 910.37 35.71 908.1 35.71 908.1 44.49 910.37 44.49 910.37 60.93 908.1 60.93 908.1 69.72 910.37 69.72 910.37 72.56 950.06 72.56 950.06 69.72 952.32 69.72 952.32 60.93 950.06 60.93 950.06 44.49 952.32 44.49 952.32 35.71 950.06 35.71 950.06 32.87 910.37 32.87"/><polygon class="cls-1" points="856.37 32.87 856.37 35.71 854.1 35.71 854.1 44.49 856.37 44.49 856.37 60.93 854.1 60.93 854.1 69.72 856.37 69.72 856.37 72.56 896.06 72.56 896.06 69.72 898.32 69.72 898.32 60.93 896.06 60.93 896.06 44.49 898.32 44.49 898.32 35.71 896.06 35.71 896.06 32.87 856.37 32.87"/><polygon class="cls-1" points="788.87 32.87 788.87 35.71 786.61 35.71 786.61 44.49 788.87 44.49 788.87 60.93 786.61 60.93 786.61 69.72 788.87 69.72 788.87 72.56 828.56 72.56 828.56 69.72 830.83 69.72 830.83 60.93 828.56 60.93 828.56 44.49 830.83 44.49 830.83 35.71 828.56 35.71 828.56 32.87 788.87 32.87"/><polygon class="cls-1" points="734.87 32.87 734.87 35.71 732.61 35.71 732.61 44.49 734.87 44.49 734.87 60.93 732.61 60.93 732.61 69.72 734.87 69.72 734.87 72.56 774.56 72.56 774.56 69.72 776.83 69.72 776.83 60.93 774.56 60.93 774.56 44.49 776.83 44.49 776.83 35.71 774.56 35.71 774.56 32.87 734.87 32.87"/><polygon class="cls-1" points="680.87 32.87 680.87 35.71 678.61 35.71 678.61 44.49 680.87 44.49 680.87 60.93 678.61 60.93 678.61 69.72 680.87 69.72 680.87 72.56 720.56 72.56 720.56 69.72 722.83 69.72 722.83 60.93 720.56 60.93 720.56 44.49 722.83 44.49 722.83 35.71 720.56 35.71 720.56 32.87 680.87 32.87"/><polygon class="cls-1" points="626.87 32.87 626.87 35.71 624.61 35.71 624.61 44.49 626.87 44.49 626.87 60.93 624.61 60.93 624.61 69.72 626.87 69.72 626.87 72.56 666.56 72.56 666.56 69.72 668.83 69.72 668.83 60.93 666.56 60.93 666.56 44.49 668.83 44.49 668.83 35.71 666.56 35.71 666.56 32.87 626.87 32.87"/><polygon class="cls-1" points="545.87 32.87 545.87 35.71 543.61 35.71 543.61 44.49 545.87 44.49 545.87 60.93 543.61 60.93 543.61 69.72 545.87 69.72 545.87 72.56 585.56 72.56 585.56 69.72 587.83 69.72 587.83 60.93 585.56 60.93 585.56 44.49 587.83 44.49 587.83 35.71 585.56 35.71 585.56 32.87 545.87 32.87"/><polygon class="cls-1" points="491.87 32.87 491.87 35.71 489.61 35.71 489.61 44.49 491.87 44.49 491.87 60.93 489.61 60.93 489.61 69.72 491.87 69.72 491.87 72.56 531.56 72.56 531.56 69.72 533.83 69.72 533.83 60.93 531.56 60.93 531.56 44.49 533.83 44.49 533.83 35.71 531.56 35.71 531.56 32.87 491.87 32.87"/><polygon class="cls-1" points="437.87 32.87 437.87 35.71 435.61 35.71 435.61 44.49 437.87 44.49 437.87 60.93 435.61 60.93 435.61 69.72 437.87 69.72 437.87 72.56 477.56 72.56 477.56 69.72 479.83 69.72 479.83 60.93 477.56 60.93 477.56 44.49 479.83 44.49 479.83 35.71 477.56 35.71 477.56 32.87 437.87 32.87"/><polygon class="cls-1" points="383.87 32.87 383.87 35.71 381.6 35.71 381.6 44.49 383.87 44.49 383.87 60.93 381.6 60.93 381.6 69.72 383.87 69.72 383.87 72.56 423.56 72.56 423.56 69.72 425.83 69.72 425.83 60.93 423.56 60.93 423.56 44.49 425.83 44.49 425.83 35.71 423.56 35.71 423.56 32.87 383.87 32.87"/><polygon class="cls-1" points="302.87 32.87 302.87 35.71 300.61 35.71 300.61 44.49 302.87 44.49 302.87 60.93 300.61 60.93 300.61 69.72 302.87 69.72 302.87 72.56 342.56 72.56 342.56 69.72 344.82 69.72 344.82 60.93 342.56 60.93 342.56 44.49 344.82 44.49 344.82 35.71 342.56 35.71 342.56 32.87 302.87 32.87"/><polygon class="cls-1" points="248.87 32.87 248.87 35.71 246.6 35.71 246.6 44.49 248.87 44.49 248.87 60.93 246.6 60.93 246.6 69.72 248.87 69.72 248.87 72.56 288.56 72.56 288.56 69.72 290.82 69.72 290.82 60.93 288.56 60.93 288.56 44.49 290.82 44.49 290.82 35.71 288.56 35.71 288.56 32.87 248.87 32.87"/><polygon class="cls-1" points="194.87 32.87 194.87 35.71 192.6 35.71 192.6 44.49 194.87 44.49 194.87 60.93 192.6 60.93 192.6 69.72 194.87 69.72 194.87 72.56 234.56 72.56 234.56 69.72 236.83 69.72 236.83 60.93 234.56 60.93 234.56 44.49 236.83 44.49 236.83 35.71 234.56 35.71 234.56 32.87 194.87 32.87"/><polygon class="cls-1" points="140.87 32.87 140.87 35.71 138.6 35.71 138.6 44.49 140.87 44.49 140.87 60.93 138.6 60.93 138.6 69.72 140.87 69.72 140.87 72.56 180.56 72.56 180.56 69.72 182.83 69.72 182.83 60.93 180.56 60.93 180.56 44.49 182.83 44.49 182.83 35.71 180.56 35.71 180.56 32.87 140.87 32.87"/><polygon class="cls-1" points="32.87 32.87 32.87 35.71 30.6 35.71 30.6 44.49 32.87 44.49 32.87 60.93 30.6 60.93 30.6 69.72 32.87 69.72 32.87 72.56 72.56 72.56 72.56 69.72 74.83 69.72 74.83 60.93 72.56 60.93 72.56 44.49 74.83 44.49 74.83 35.71 72.56 35.71 72.56 32.87 32.87 32.87"/><polygon class="cls-2" points="17.21 5.6 8.7 5.6 4.45 12.96 8.7 20.33 17.21 20.33 21.46 12.96 17.21 5.6"/><polygon class="cls-2" points="17.22 382.11 8.72 382.11 4.47 389.47 8.72 396.83 17.22 396.83 21.48 389.47 17.22 382.11"/><polygon class="cls-2" points="17.21 382.11 8.71 382.11 4.46 389.48 8.71 396.84 17.21 396.84 21.46 389.48 17.21 382.11"/><polygon class="cls-2" points="354.21 5.59 345.71 5.59 341.46 12.96 345.71 20.32 354.21 20.32 358.46 12.96 354.21 5.59"/><polygon class="cls-2" points="354.2 5.6 345.7 5.6 341.44 12.96 345.7 20.33 354.2 20.33 358.45 12.96 354.2 5.6"/><polygon class="cls-2" points="354.22 382.11 345.71 382.11 341.46 389.47 345.71 396.83 354.22 396.83 358.47 389.47 354.22 382.11"/><polygon class="cls-2" points="354.21 382.11 345.7 382.11 341.45 389.48 345.7 396.84 354.21 396.84 358.46 389.48 354.21 382.11"/><polygon class="cls-2" points="691.22 5.59 682.72 5.59 678.46 12.96 682.72 20.32 691.22 20.32 695.47 12.96 691.22 5.59"/><polygon class="cls-2" points="691.22 382.11 682.72 382.11 678.46 389.47 682.72 396.84 691.22 396.84 695.47 389.47 691.22 382.11"/><polygon class="cls-2" points="1028.2 5.59 1019.7 5.59 1015.45 12.96 1019.7 20.32 1028.2 20.32 1032.45 12.96 1028.2 5.59"/><polygon class="cls-2" points="1028.22 382.11 1019.72 382.11 1015.47 389.47 1019.72 396.84 1028.22 396.84 1032.48 389.47 1028.22 382.11"/></svg>