<svg id="Layer_1" data-name="Layer 1" xmlns="http://www.w3.org/2000/svg" viewBox="0 0 1037.07 275.6"><defs><style>.cls-1,.cls-2{fill:none;}.cls-1{stroke:#010101;stroke-miterlimit:11.34;stroke-width:0.4px;}.cls-2{stroke:#231f20;stroke-miterlimit:10;stroke-width:0.4px;}</style></defs><path class="cls-1" d="M1506,562.73H477.85l0-55.47h15.59V503l-19.85,0-.05-202.7a12.76,12.76,0,0,1,12.76-12.76H1497.47a12.76,12.76,0,0,1,12.76,12.76V503l-19.86,0v4.25H1506Z" transform="translate(-473.36 -287.33)"/><polygon class="cls-2" points="17.34 5.56 8.84 5.56 4.59 12.93 8.84 20.29 17.34 20.29 21.6 12.93 17.34 5.56"/><polygon class="cls-2" points="17.33 5.57 8.83 5.57 4.58 12.93 8.83 20.3 17.33 20.3 21.59 12.93 17.33 5.57"/><polygon class="cls-2" points="354.34 5.56 345.84 5.56 341.58 12.93 345.84 20.29 354.34 20.29 358.59 12.93 354.34 5.56"/><polygon class="cls-2" points="354.33 5.57 345.82 5.57 341.57 12.93 345.82 20.3 354.33 20.3 358.58 12.93 354.33 5.57"/><polygon class="cls-2" points="691.35 5.57 682.84 5.57 678.59 12.93 682.84 20.3 691.35 20.3 695.6 12.93 691.35 5.57"/><polygon class="cls-2" points="1028.35 5.57 1019.85 5.57 1015.6 12.93 1019.85 20.3 1028.35 20.3 1032.6 12.93 1028.35 5.57"/></svg>