<svg id="Layer_1" data-name="Layer 1" xmlns="http://www.w3.org/2000/svg" viewBox="0 0 1037.08 402.5"><defs><style>.cls-1,.cls-2{fill:none;}.cls-1{stroke:#010101;stroke-miterlimit:11.34;stroke-width:0.4px;}.cls-2{stroke:#231f20;stroke-miterlimit:10;stroke-width:0.4px;}</style></defs><path class="cls-1" d="M473.61,613.36a12.76,12.76,0,0,0,12.76,12.76H1497.48a13.34,13.34,0,0,0,9.66-4.44,13,13,0,0,0,3.09-8.32V592.1h-8.49v8.51h-8.51v-17h-8.51v17H499.13" transform="translate(-473.35 -223.88)"/><path class="cls-1" d="M801,249.6h683.74v17h8.51v-17h8.51v8.52h8.49V236.85a13,13,0,0,0-3.47-8.75,13.18,13.18,0,0,0-9.28-4c-80.51,0-243.75.07-324.26.07" transform="translate(-473.35 -223.88)"/><path class="cls-1" d="M1510.19,613.42a12.74,12.74,0,0,1-12.76,12.76H486.32a13.34,13.34,0,0,1-9.66-4.44,13,13,0,0,1-3.09-8.32V592.18h8.49v8.49h8.51v-17h8.51v17h985.59" transform="translate(-473.35 -223.88)"/><polyline class="cls-1" points="337.36 0.2 311.15 0.29 311.15 8.78 319.66 8.77 319.66 17.29 311.15 17.32 311.15 25.8 327.62 25.8 327.62 25.78 1011.32 25.78"/><polyline class="cls-1" points="699.87 0.26 699.87 22.23 674.37 22.23 674.37 0.26 362.86 0.2 362.86 22.17 337.36 22.17 337.36 0.2"/><path class="cls-1" d="M525.43,232.64v-8.5H486.31a12.76,12.76,0,0,0-12.75,12.76v21.27h8.49v-8.52h8.51v17h8.5v-17h26.36v-8.5h-8.49v-8.54Z" transform="translate(-473.35 -223.88)"/><polygon class="cls-2" points="17.35 5.59 8.85 5.59 4.6 12.96 8.85 20.32 17.35 20.32 21.6 12.96 17.35 5.59"/><polygon class="cls-2" points="17.37 382.1 8.87 382.1 4.61 389.46 8.87 396.83 17.37 396.83 21.62 389.46 17.37 382.1"/><polygon class="cls-2" points="17.36 382.11 8.85 382.11 4.6 389.47 8.85 396.83 17.36 396.83 21.61 389.47 17.36 382.11"/><polygon class="cls-2" points="354.37 382.1 345.86 382.1 341.61 389.46 345.86 396.83 354.37 396.83 358.62 389.46 354.37 382.1"/><polygon class="cls-2" points="354.35 382.1 345.85 382.1 341.6 389.47 345.85 396.83 354.35 396.83 358.61 389.47 354.35 382.1"/><polygon class="cls-2" points="691.37 382.1 682.86 382.1 678.61 389.47 682.86 396.83 691.37 396.83 695.62 389.47 691.37 382.1"/><polygon class="cls-2" points="1028.35 5.59 1019.85 5.59 1015.59 12.95 1019.85 20.32 1028.35 20.32 1032.6 12.95 1028.35 5.59"/><polygon class="cls-2" points="1028.37 382.1 1019.87 382.1 1015.62 389.47 1019.87 396.83 1028.37 396.83 1032.62 389.47 1028.37 382.1"/></svg>