<svg id="Layer_1" data-name="Layer 1" xmlns="http://www.w3.org/2000/svg" viewBox="0 0 1037.08 402.5"><defs><style>.cls-1,.cls-3{fill:none;}.cls-1{stroke:#010101;stroke-miterlimit:11.34;stroke-width:0.4px;}.cls-2{fill:#fff;}.cls-2,.cls-3{stroke:#231f20;stroke-miterlimit:10;stroke-width:0.4px;}</style></defs><path class="cls-1" d="M473.63,613.36a12.74,12.74,0,0,0,12.76,12.76H1497.5a13.34,13.34,0,0,0,9.66-4.44,13,13,0,0,0,3.09-8.32V592.1h-8.49v8.51h-8.51v-17h-8.51v17H499.15" transform="translate(-473.37 -223.88)"/><path class="cls-1" d="M801,249.6h683.74v17h8.51v-17h8.51v8.52h8.49V236.85a13,13,0,0,0-3.47-8.75,13.18,13.18,0,0,0-9.28-4c-80.51,0-243.75.07-324.26.07" transform="translate(-473.37 -223.88)"/><path class="cls-1" d="M1510.21,613.42a12.74,12.74,0,0,1-12.76,12.76H486.34a13.34,13.34,0,0,1-9.66-4.44,13,13,0,0,1-3.09-8.32V592.18h8.49v8.49h8.51v-17h8.51v17h985.59" transform="translate(-473.37 -223.88)"/><path class="cls-1" d="M525.44,241.2v8.49H499.09v17h-8.51v-17h-8.51v8.52h-8.49V236.91a12.76,12.76,0,0,1,12.75-12.76l39.11-.07" transform="translate(-473.37 -223.88)"/><path class="cls-2" d="M810.73,224.19" transform="translate(-473.37 -223.88)"/><path class="cls-2" d="M810.73,249.7" transform="translate(-473.37 -223.88)"/><polyline class="cls-1" points="320.53 0.31 337.36 0.2 337.36 22.17 362.86 22.17 362.86 0.2 674.37 0.26 674.37 22.23 699.87 22.23 699.87 0.26"/><path class="cls-1" d="M793.9,249.68" transform="translate(-473.37 -223.88)"/><polyline class="cls-1" points="320.53 25.79 327.62 25.79 327.62 25.72"/><polyline class="cls-3" points="337.35 25.8 311.15 25.81 311.15 17.32 319.66 17.3 319.66 8.77 311.15 8.79 311.15 0.29 337.35 0.29"/><polyline class="cls-1" points="52.07 0.26 52.07 8.76 43.57 8.77 43.58 17.31 52.06 17.32"/><polygon class="cls-3" points="17.35 5.6 8.85 5.6 4.6 12.96 8.85 20.33 17.35 20.33 21.6 12.96 17.35 5.6"/><polygon class="cls-3" points="17.37 382.11 8.87 382.11 4.61 389.47 8.87 396.83 17.37 396.83 21.62 389.47 17.37 382.11"/><polygon class="cls-3" points="17.36 382.11 8.85 382.11 4.6 389.48 8.85 396.84 17.36 396.84 21.61 389.48 17.36 382.11"/><polygon class="cls-3" points="354.37 382.1 345.86 382.1 341.61 389.47 345.86 396.83 354.37 396.83 358.62 389.47 354.37 382.1"/><polygon class="cls-3" points="354.35 382.11 345.85 382.11 341.6 389.48 345.85 396.84 354.35 396.84 358.61 389.48 354.35 382.11"/><polygon class="cls-3" points="691.37 382.11 682.86 382.11 678.61 389.47 682.86 396.84 691.37 396.84 695.62 389.47 691.37 382.11"/><polygon class="cls-3" points="1028.35 5.59 1019.85 5.59 1015.59 12.96 1019.85 20.32 1028.35 20.32 1032.6 12.96 1028.35 5.59"/><polygon class="cls-3" points="1028.37 382.11 1019.87 382.11 1015.62 389.47 1019.87 396.84 1028.37 396.84 1032.62 389.47 1028.37 382.11"/></svg>