<svg xmlns="http://www.w3.org/2000/svg" viewBox="0 0 1037.07 25.91"><defs><style>.cls-1,.cls-2{fill:none;}.cls-1{stroke:#010101;stroke-miterlimit:11.34;stroke-width:0.4px;}.cls-2{stroke:#231f20;stroke-miterlimit:10;stroke-width:0.4px;}</style></defs><g id="Layer_2" data-name="Layer 2"><g id="Layer_2-2" data-name="Layer 2"><rect class="cls-1" x="0.2" y="0.2" width="1036.67" height="25.51" rx="12.76"/><polygon class="cls-2" points="17.34 5.56 8.84 5.56 4.59 12.93 8.84 20.29 17.34 20.29 21.6 12.93 17.34 5.56"/><polygon class="cls-2" points="17.33 5.57 8.83 5.57 4.58 12.93 8.83 20.3 17.33 20.3 21.59 12.93 17.33 5.57"/><polygon class="cls-2" points="354.34 5.56 345.84 5.56 341.58 12.93 345.84 20.29 354.34 20.29 358.59 12.93 354.34 5.56"/><polygon class="cls-2" points="354.33 5.57 345.82 5.57 341.57 12.93 345.82 20.3 354.33 20.3 358.58 12.93 354.33 5.57"/><polygon class="cls-2" points="691.35 5.57 682.84 5.57 678.59 12.93 682.84 20.3 691.35 20.3 695.6 12.93 691.35 5.57"/><polygon class="cls-2" points="1028.35 5.57 1019.85 5.57 1015.6 12.93 1019.85 20.3 1028.35 20.3 1032.6 12.93 1028.35 5.57"/></g></g></svg>