<svg id="Layer_1" data-name="Layer 1" xmlns="http://www.w3.org/2000/svg" viewBox="0 0 1037.08 402.51"><defs><style>.cls-1,.cls-2{fill:none;}.cls-1{stroke:#010101;stroke-miterlimit:11.34;stroke-width:0.4px;}.cls-2{stroke:#231f20;stroke-miterlimit:10;stroke-width:0.4px;}</style></defs><path class="cls-1" d="M473.61,613.37a12.74,12.74,0,0,0,12.76,12.75H1497.48a13.31,13.31,0,0,0,9.66-4.43,13,13,0,0,0,3.09-8.32V592.11h-8.49v8.5h-8.51v-17h-8.51v17H499.13" transform="translate(-473.35 -223.88)"/><path class="cls-1" d="M801,249.61h683.74v17h8.51v-17h8.51v8.52h8.49V236.85a12.77,12.77,0,0,0-12.75-12.76c-80.51,0-243.75.06-324.26.06" transform="translate(-473.35 -223.88)"/><path class="cls-1" d="M1510.19,613.43a12.76,12.76,0,0,1-12.76,12.76H486.32a13.38,13.38,0,0,1-9.66-4.44,13,13,0,0,1-3.09-8.32V592.18h8.49v8.49h8.51v-17h8.51v17h985.59" transform="translate(-473.35 -223.88)"/><polyline class="cls-1" points="337.36 0.21 319.64 0.34 319.66 8.81 311.15 8.8 311.15 17.33 319.66 17.3 319.65 25.82 327.62 25.82 327.62 25.79 1011.32 25.79"/><polyline class="cls-1" points="699.87 0.27 699.87 22.24 674.37 22.24 674.37 0.27 362.86 0.21 362.86 22.18 337.36 22.18 337.36 0.21"/><path class="cls-1" d="M516.92,232.65l0-8.57-30.59.07a13.16,13.16,0,0,0-9.28,4,13,13,0,0,0-3.47,8.74v21.28h8.49v-8.53h8.51v17h8.5v-17H516.9v-8.51h8.53v-8.55Z" transform="translate(-473.35 -223.88)"/><line class="cls-1" x1="311.16" y1="17.32" x2="311.15" y2="8.77"/><polygon class="cls-2" points="17.35 5.59 8.85 5.59 4.6 12.95 8.85 20.32 17.35 20.32 21.6 12.95 17.35 5.59"/><polygon class="cls-2" points="17.37 382.1 8.87 382.1 4.61 389.46 8.87 396.83 17.37 396.83 21.62 389.46 17.37 382.1"/><polygon class="cls-2" points="17.36 382.1 8.85 382.1 4.6 389.47 8.85 396.83 17.36 396.83 21.61 389.47 17.36 382.1"/><polygon class="cls-2" points="354.37 382.1 345.86 382.1 341.61 389.46 345.86 396.82 354.37 396.82 358.62 389.46 354.37 382.1"/><polygon class="cls-2" points="354.35 382.1 345.85 382.1 341.6 389.47 345.85 396.83 354.35 396.83 358.61 389.47 354.35 382.1"/><polygon class="cls-2" points="691.37 382.1 682.86 382.1 678.61 389.46 682.86 396.83 691.37 396.83 695.62 389.46 691.37 382.1"/><polygon class="cls-2" points="1028.35 5.58 1019.85 5.58 1015.59 12.95 1019.85 20.32 1028.35 20.32 1032.6 12.95 1028.35 5.58"/><polygon class="cls-2" points="1028.37 382.1 1019.87 382.1 1015.62 389.46 1019.87 396.83 1028.37 396.83 1032.62 389.46 1028.37 382.1"/></svg>