<svg id="Layer_1" data-name="Layer 1" xmlns="http://www.w3.org/2000/svg" viewBox="0 0 276.49 42.92"><defs><style>.cls-1{fill:none;stroke:#000;stroke-miterlimit:11.34;stroke-width:0.4px;}</style></defs><line class="cls-1" x1="8.72" y1="42.72" x2="267.79" y2="42.72"/><line class="cls-1" x1="267.78" y1="0.2" x2="8.72" y2="0.2"/><path class="cls-1" d="M1121.44,446.39" transform="translate(-853.65 -403.67)"/><path class="cls-1" d="M1121.44,403.87" transform="translate(-853.65 -403.67)"/><circle class="cls-1" cx="52.84" cy="21.47" r="17.01"/><line class="cls-1" x1="8.68" y1="0.21" x2="0.2" y2="0.21"/><line class="cls-1" x1="0.21" y1="42.72" x2="8.68" y2="42.72"/><polyline class="cls-1" points="0.2 42.72 0.2 34.21 8.7 34.21 8.7 25.73 0.2 25.73 0.2 17.24 8.71 17.24 8.71 8.73 0.2 8.73 0.2 0.21"/><line class="cls-1" x1="267.81" y1="0.21" x2="276.29" y2="0.21"/><line class="cls-1" x1="276.28" y1="42.71" x2="267.81" y2="42.71"/><polyline class="cls-1" points="276.29 42.71 276.29 34.2 267.79 34.2 267.79 25.72 276.29 25.72 276.29 17.23 267.78 17.23 267.78 8.73 276.29 8.73 276.29 0.21"/><polygon class="cls-1" points="156.09 14.24 156.1 28.69 120.67 28.69 120.67 14.24 156.09 14.24"/><polygon class="cls-1" points="241.51 14.24 241.52 28.69 206.08 28.69 206.08 14.24 241.51 14.24"/></svg>