<svg xmlns="http://www.w3.org/2000/svg" viewBox="0 0 1036.93 402.43"><defs><style>.cls-1,.cls-2,.cls-3{fill:none;}.cls-1{stroke:#010101;stroke-miterlimit:11.34;stroke-width:0.4px;}.cls-2{stroke:#000;stroke-miterlimit:11.34;}.cls-2,.cls-3{stroke-width:0.4px;}.cls-3{stroke:#231f20;stroke-miterlimit:10;}</style></defs><g id="Layer_2" data-name="Layer 2"><g id="Layer_2-2" data-name="Layer 2"><polygon class="cls-1" points="1023.97 0.2 1024.97 0.24 1025.97 0.36 1026.95 0.56 1027.92 0.83 1028.85 1.17 1029.76 1.59 1030.64 2.08 1031.47 2.64 1032.26 3.26 1032.99 3.94 1033.67 4.67 1034.29 5.46 1034.85 6.29 1035.34 7.17 1035.76 8.08 1036.11 9.02 1036.38 9.98 1036.57 10.96 1036.69 11.96 1036.73 12.96 1036.73 389.47 1036.69 390.48 1036.57 391.47 1036.38 392.45 1036.11 393.41 1035.76 394.36 1035.34 395.26 1034.85 396.14 1034.29 396.97 1033.67 397.76 1032.99 398.49 1032.26 399.17 1031.47 399.79 1030.64 400.35 1029.76 400.84 1028.85 401.26 1027.92 401.6 1026.95 401.88 1025.97 402.07 1024.97 402.19 1023.97 402.23 12.96 402.23 11.96 402.19 10.96 402.07 9.98 401.88 9.02 401.6 8.08 401.26 7.17 400.84 6.29 400.35 5.46 399.79 4.67 399.17 3.94 398.49 3.26 397.76 2.64 396.97 2.08 396.14 1.59 395.26 1.17 394.36 0.83 393.41 0.56 392.45 0.36 391.47 0.24 390.48 0.2 389.47 0.2 12.96 0.24 11.96 0.36 10.96 0.56 9.98 0.83 9.02 1.17 8.08 1.59 7.17 2.08 6.29 2.64 5.46 3.26 4.67 3.94 3.94 4.67 3.26 5.46 2.64 6.29 2.08 7.17 1.59 8.08 1.17 9.02 0.83 9.98 0.56 10.96 0.36 11.96 0.24 12.96 0.2 1023.97 0.2"/><polygon class="cls-2" points="99.65 51.6 100.95 111.13 105.2 111.03 103.91 51.51 99.65 51.6"/><polygon class="cls-2" points="102.25 170.63 103.55 230.15 107.8 230.06 106.51 170.53 102.25 170.63"/><rect class="cls-2" x="105.49" y="289.6" width="4.26" height="59.54" transform="translate(-6.95 2.43) rotate(-1.25)"/><rect class="cls-2" x="192.48" y="138.7" width="59.54" height="4.26" transform="translate(76.59 359.95) rotate(-88.75)"/><rect class="cls-2" x="189.88" y="257.73" width="59.54" height="4.26" transform="translate(-44.94 473.78) rotate(-88.75)"/><rect class="cls-2" x="903.26" y="79.18" width="59.54" height="4.26" transform="matrix(0.02, -1, 1, 0.02, 831.89, 1012.41)"/><polygon class="cls-2" points="933.21 170.63 928.96 170.53 927.66 230.06 931.92 230.15 933.21 170.63"/><polygon class="cls-2" points="930.62 289.65 926.36 289.56 925.06 349.09 929.32 349.18 930.62 289.65"/><rect class="cls-2" x="811.08" y="111.06" width="4.26" height="59.54" transform="translate(-2.81 17.33) rotate(-1.22)"/><rect class="cls-2" x="813.68" y="230.09" width="4.26" height="59.54" transform="matrix(1, -0.02, 0.02, 1, -5.35, 17.42)"/><polygon class="cls-3" points="17.21 5.6 8.7 5.6 4.45 12.96 8.7 20.33 17.21 20.33 21.46 12.96 17.21 5.6"/><polygon class="cls-3" points="17.22 382.11 8.72 382.11 4.47 389.47 8.72 396.83 17.22 396.83 21.48 389.47 17.22 382.11"/><polygon class="cls-3" points="17.21 382.11 8.71 382.11 4.46 389.48 8.71 396.84 17.21 396.84 21.46 389.48 17.21 382.11"/><polygon class="cls-3" points="354.21 5.59 345.71 5.59 341.46 12.96 345.71 20.32 354.21 20.32 358.46 12.96 354.21 5.59"/><polygon class="cls-3" points="354.2 5.6 345.7 5.6 341.44 12.96 345.7 20.33 354.2 20.33 358.45 12.96 354.2 5.6"/><polygon class="cls-3" points="354.22 382.11 345.71 382.11 341.46 389.47 345.71 396.83 354.22 396.83 358.47 389.47 354.22 382.11"/><polygon class="cls-3" points="354.21 382.11 345.7 382.11 341.45 389.48 345.7 396.84 354.21 396.84 358.46 389.48 354.21 382.11"/><polygon class="cls-3" points="691.22 5.59 682.72 5.59 678.46 12.96 682.72 20.32 691.22 20.32 695.47 12.96 691.22 5.59"/><polygon class="cls-3" points="691.22 382.11 682.72 382.11 678.46 389.47 682.72 396.84 691.22 396.84 695.47 389.47 691.22 382.11"/><polygon class="cls-3" points="1028.2 5.59 1019.7 5.59 1015.45 12.96 1019.7 20.32 1028.2 20.32 1032.45 12.96 1028.2 5.59"/><polygon class="cls-3" points="1028.22 382.11 1019.72 382.11 1015.47 389.47 1019.72 396.84 1028.22 396.84 1032.48 389.47 1028.22 382.11"/></g></g></svg>