<svg id="Layer_1" data-name="Layer 1" xmlns="http://www.w3.org/2000/svg" viewBox="0 0 276.5 42.92"><defs><style>.cls-1{fill:none;stroke:#000;stroke-miterlimit:11.34;stroke-width:0.4px;}</style></defs><line class="cls-1" x1="8.72" y1="42.72" x2="267.81" y2="42.72"/><line class="cls-1" x1="267.81" y1="0.2" x2="8.72" y2="0.2"/><path class="cls-1" d="M1121.45,446.39" transform="translate(-853.64 -403.67)"/><path class="cls-1" d="M1121.45,403.87" transform="translate(-853.64 -403.67)"/><path class="cls-1" d="M862.36,446.39" transform="translate(-853.64 -403.67)"/><path class="cls-1" d="M862.36,403.87" transform="translate(-853.64 -403.67)"/><circle class="cls-1" cx="51.7" cy="21.47" r="17.01"/><path class="cls-1" d="M862.35,403.88" transform="translate(-853.64 -403.67)"/><path class="cls-1" d="M862.35,446.38" transform="translate(-853.64 -403.67)"/><path class="cls-1" d="M862.35,403.88" transform="translate(-853.64 -403.67)"/><path class="cls-1" d="M862.35,446.39" transform="translate(-853.64 -403.67)"/><polyline class="cls-1" points="8.71 0.21 8.71 8.72 0.21 8.72 0.21 17.2 8.71 17.2 8.71 25.69 0.2 25.69 0.2 34.19 8.71 34.19 8.71 42.71"/><path class="cls-1" d="M1121.44,403.88" transform="translate(-853.64 -403.67)"/><path class="cls-1" d="M1121.44,446.38" transform="translate(-853.64 -403.67)"/><path class="cls-1" d="M1121.44,403.88" transform="translate(-853.64 -403.67)"/><path class="cls-1" d="M1121.44,446.39" transform="translate(-853.64 -403.67)"/><polyline class="cls-1" points="267.8 0.21 267.8 8.72 276.3 8.72 276.3 17.2 267.8 17.2 267.8 25.69 276.3 25.69 276.3 34.19 267.8 34.19 267.8 42.71"/><polygon class="cls-1" points="156.11 14.23 156.12 28.69 120.68 28.69 120.68 14.23 156.11 14.23"/><polygon class="cls-1" points="241.52 14.23 241.53 28.69 206.1 28.69 206.1 14.23 241.52 14.23"/></svg>