<svg id="Layer_1" data-name="Layer 1" xmlns="http://www.w3.org/2000/svg" viewBox="0 0 1037.07 402.5"><defs><style>.cls-1,.cls-3{fill:none;}.cls-1{stroke:#010101;stroke-miterlimit:11.34;stroke-width:0.4px;}.cls-2{fill:#fff;}.cls-2,.cls-3{stroke:#231f20;stroke-miterlimit:10;stroke-width:0.4px;}</style></defs><polyline class="cls-1" points="1028.37 368.22 1028.37 376.72 1019.86 376.72 1019.86 359.72 1011.36 359.72 1011.36 376.72 25.76 376.72"/><path class="cls-1" d="M473.61,613.36a12.74,12.74,0,0,0,12.75,12.76H1497.47a13.37,13.37,0,0,0,9.67-4.44,13,13,0,0,0,3.09-8.32V592.1" transform="translate(-473.36 -223.88)"/><path class="cls-1" d="M1510.23,258.12V236.85a12.77,12.77,0,0,0-12.76-12.77c-80.5,0-243.75.07-324.25.07" transform="translate(-473.36 -223.88)"/><polyline class="cls-1" points="327.61 25.72 1011.36 25.72 1011.36 42.72 1019.86 42.72 1019.86 25.72 1028.37 25.72 1028.37 34.24"/><polyline class="cls-1" points="8.7 368.3 8.7 376.79 17.21 376.79 17.21 359.78 25.71 359.78 25.71 376.79 1011.31 376.79"/><path class="cls-1" d="M1510.18,613.42a12.74,12.74,0,0,1-12.75,12.76H486.32a13.36,13.36,0,0,1-9.67-4.44,13,13,0,0,1-3.09-8.32V592.18" transform="translate(-473.36 -223.88)"/><path class="cls-1" d="M473.56,258.18V236.91a12.76,12.76,0,0,1,12.76-12.76l30.58-.07" transform="translate(-473.36 -223.88)"/><polyline class="cls-1" points="43.53 17.31 43.54 25.82 25.71 25.83 25.71 42.78 17.21 42.78 17.21 25.78 8.7 25.78 8.7 34.3"/><path class="cls-2" d="M810.71,224.18" transform="translate(-473.36 -223.88)"/><path class="cls-2" d="M810.71,249.71" transform="translate(-473.36 -223.88)"/><polyline class="cls-1" points="320.52 0.31 337.35 0.2 337.35 22.17 362.85 22.17 362.85 0.2 674.36 0.26 674.36 22.23 699.86 22.23 699.86 0.26"/><path class="cls-1" d="M793.88,249.68" transform="translate(-473.36 -223.88)"/><polyline class="cls-1" points="320.52 25.79 327.61 25.79 327.61 25.72"/><polyline class="cls-1" points="43.54 0.28 43.56 8.78 52.06 8.77 52.05 17.31 43.53 17.31"/><path class="cls-1" d="M810.71,224.18" transform="translate(-473.36 -223.88)"/><polyline class="cls-1" points="337.35 0.3 319.63 0.33 319.65 8.81 311.14 8.79 311.14 17.32 319.65 17.3 319.64 25.81 337.35 25.83"/><line class="cls-1" x1="0.2" y1="34.3" x2="0.2" y2="368.3"/><line class="cls-1" x1="8.7" y1="34.3" x2="8.7" y2="368.3"/><line class="cls-1" x1="1028.37" y1="34.24" x2="1028.37" y2="368.22"/><line class="cls-1" x1="1036.87" y1="34.24" x2="1036.87" y2="368.22"/><polygon class="cls-3" points="17.34 5.6 8.84 5.6 4.58 12.96 8.84 20.33 17.34 20.33 21.59 12.96 17.34 5.6"/><polygon class="cls-3" points="17.36 382.11 8.86 382.11 4.6 389.47 8.86 396.83 17.36 396.83 21.61 389.47 17.36 382.11"/><polygon class="cls-3" points="17.35 382.11 8.84 382.11 4.59 389.48 8.84 396.84 17.35 396.84 21.6 389.48 17.35 382.11"/><polygon class="cls-3" points="354.35 382.1 345.85 382.1 341.6 389.47 345.85 396.83 354.35 396.83 358.61 389.47 354.35 382.1"/><polygon class="cls-3" points="354.34 382.11 345.84 382.11 341.59 389.48 345.84 396.84 354.34 396.84 358.59 389.48 354.34 382.11"/><polygon class="cls-3" points="691.36 382.11 682.85 382.11 678.6 389.47 682.85 396.84 691.36 396.84 695.61 389.47 691.36 382.11"/><polygon class="cls-3" points="1028.34 5.59 1019.84 5.59 1015.58 12.96 1019.84 20.32 1028.34 20.32 1032.59 12.96 1028.34 5.59"/><polygon class="cls-3" points="1028.36 382.11 1019.86 382.11 1015.6 389.47 1019.86 396.84 1028.36 396.84 1032.61 389.47 1028.36 382.11"/></svg>