<svg id="Layer_1" data-name="Layer 1" xmlns="http://www.w3.org/2000/svg" viewBox="0 0 267.43 402.43"><defs><style>.cls-1,.cls-2{fill:none;}.cls-1{stroke:#010101;stroke-miterlimit:11.34;stroke-width:0.4px;}.cls-2{stroke:#231f20;stroke-miterlimit:10;stroke-width:0.4px;}</style></defs><polygon class="cls-1" points="254.47 0.2 255.47 0.24 256.47 0.36 257.45 0.56 258.41 0.83 259.36 1.17 260.26 1.59 261.14 2.08 261.97 2.64 262.76 3.26 263.49 3.94 264.17 4.67 264.79 5.46 265.35 6.29 265.84 7.17 266.26 8.08 266.6 9.02 266.88 9.98 267.07 10.96 267.19 11.96 267.23 12.96 267.23 389.47 267.19 390.48 267.07 391.47 266.88 392.45 266.6 393.41 266.26 394.36 265.84 395.26 265.35 396.14 264.79 396.97 264.17 397.76 263.49 398.49 262.76 399.17 261.97 399.79 261.14 400.35 260.26 400.84 259.36 401.26 258.41 401.6 257.45 401.88 256.47 402.07 255.47 402.19 254.47 402.23 12.96 402.23 11.96 402.19 10.96 402.07 9.98 401.88 9.02 401.6 8.08 401.26 7.17 400.84 6.29 400.35 5.46 399.79 4.67 399.17 3.94 398.49 3.26 397.76 2.64 396.97 2.08 396.14 1.59 395.26 1.17 394.36 0.83 393.41 0.56 392.45 0.36 391.47 0.24 390.48 0.2 389.47 0.2 12.96 0.24 11.96 0.36 10.96 0.56 9.98 0.83 9.02 1.17 8.08 1.59 7.17 2.08 6.29 2.64 5.46 3.26 4.67 3.94 3.94 4.67 3.26 5.46 2.64 6.29 2.08 7.17 1.59 8.08 1.17 9.02 0.83 9.98 0.56 10.96 0.36 11.96 0.24 12.96 0.2 254.47 0.2"/><polygon class="cls-1" points="59.87 329.87 59.87 332.71 57.6 332.71 57.6 341.5 59.87 341.5 59.87 343.2 55.55 343.2 55.55 334.04 50.66 334.04 50.66 331.43 41.3 331.43 41.3 334.04 36.42 334.04 36.42 343.2 34.08 343.2 34.08 351.13 36.42 351.13 36.42 368.91 41.3 368.91 41.3 371.68 50.66 371.68 50.66 368.91 55.55 368.91 55.55 356.24 59.87 356.24 59.87 357.94 57.6 357.94 57.6 366.72 59.87 366.72 59.87 369.56 99.56 369.56 99.56 366.72 101.82 366.72 101.82 357.94 99.56 357.94 99.56 356.24 103.88 356.24 103.88 368.91 108.77 368.91 108.77 371.68 118.12 371.68 118.12 368.91 123.01 368.91 123.01 351.13 125.35 351.13 125.35 343.2 123.01 343.2 123.01 334.04 118.12 334.04 118.12 331.43 108.77 331.43 108.77 334.04 103.88 334.04 103.88 343.2 99.56 343.2 99.56 341.5 101.82 341.5 101.82 332.71 99.56 332.71 99.56 329.87 59.87 329.87"/><polygon class="cls-1" points="140.87 329.87 140.87 332.71 138.6 332.71 138.6 341.5 140.87 341.5 140.87 357.94 138.6 357.94 138.6 366.72 140.87 366.72 140.87 369.56 180.56 369.56 180.56 366.72 182.83 366.72 182.83 357.94 180.56 357.94 180.56 341.5 182.83 341.5 182.83 332.71 180.56 332.71 180.56 329.87 140.87 329.87"/><polygon class="cls-1" points="213.3 277.08 213.3 279.42 195.53 279.42 195.53 284.31 192.75 284.31 192.75 293.66 195.53 293.66 195.53 298.55 208.2 298.55 208.2 302.87 206.49 302.87 206.49 300.61 197.71 300.61 197.71 302.87 194.87 302.87 194.87 342.56 197.71 342.56 197.71 344.83 206.49 344.83 206.49 342.56 208.2 342.56 208.2 346.88 195.53 346.88 195.53 351.77 192.75 351.77 192.75 361.13 195.53 361.13 195.53 366.01 213.3 366.01 213.3 368.35 221.24 368.35 221.24 366.01 230.39 366.01 230.39 361.13 233 361.13 233 351.77 230.39 351.77 230.39 346.88 221.24 346.88 221.24 342.56 222.94 342.56 222.94 344.83 231.72 344.83 231.72 342.56 234.56 342.56 234.56 302.87 231.72 302.87 231.72 300.61 222.94 300.61 222.94 302.87 221.24 302.87 221.24 298.55 230.39 298.55 230.39 293.66 233 293.66 233 284.31 230.39 284.31 230.39 279.42 221.24 279.42 221.24 277.08 213.3 277.08"/><polygon class="cls-1" points="140.87 275.87 140.87 278.71 138.6 278.71 138.6 287.5 140.87 287.5 140.87 303.94 138.6 303.94 138.6 312.72 140.87 312.72 140.87 315.56 180.56 315.56 180.56 312.72 182.83 312.72 182.83 303.94 180.56 303.94 180.56 287.5 182.83 287.5 182.83 278.71 180.56 278.71 180.56 275.87 140.87 275.87"/><polygon class="cls-1" points="86.87 275.87 86.87 278.71 84.61 278.71 84.61 287.5 86.87 287.5 86.87 303.94 84.61 303.94 84.61 312.72 86.87 312.72 86.87 315.56 126.56 315.56 126.56 312.72 128.83 312.72 128.83 303.94 126.56 303.94 126.56 287.5 128.83 287.5 128.83 278.71 126.56 278.71 126.56 275.87 86.87 275.87"/><polygon class="cls-1" points="32.87 275.87 32.87 278.71 30.6 278.71 30.6 287.5 32.87 287.5 32.87 303.94 30.6 303.94 30.6 312.72 32.87 312.72 32.87 315.56 72.56 315.56 72.56 312.72 74.83 312.72 74.83 303.94 72.56 303.94 72.56 287.5 74.83 287.5 74.83 278.71 72.56 278.71 72.56 275.87 32.87 275.87"/><polygon class="cls-1" points="140.87 221.87 140.87 224.71 138.6 224.71 138.6 233.5 140.87 233.5 140.87 249.94 138.6 249.94 138.6 258.72 140.87 258.72 140.87 261.56 180.56 261.56 180.56 258.72 182.83 258.72 182.83 249.94 180.56 249.94 180.56 233.5 182.83 233.5 182.83 224.71 180.56 224.71 180.56 221.87 140.87 221.87"/><polygon class="cls-1" points="86.87 221.87 86.87 224.71 84.61 224.71 84.61 233.5 86.87 233.5 86.87 249.94 84.61 249.94 84.61 258.72 86.87 258.72 86.87 261.56 126.56 261.56 126.56 258.72 128.83 258.72 128.83 249.94 126.56 249.94 126.56 233.5 128.83 233.5 128.83 224.71 126.56 224.71 126.56 221.87 86.87 221.87"/><polygon class="cls-1" points="32.87 221.87 32.87 224.71 30.6 224.71 30.6 233.5 32.87 233.5 32.87 249.94 30.6 249.94 30.6 258.72 32.87 258.72 32.87 261.56 72.56 261.56 72.56 258.72 74.83 258.72 74.83 249.94 72.56 249.94 72.56 233.5 74.83 233.5 74.83 224.71 72.56 224.71 72.56 221.87 32.87 221.87"/><polygon class="cls-1" points="213.3 169.08 213.3 171.42 195.53 171.42 195.53 176.31 192.75 176.31 192.75 185.66 195.53 185.66 195.53 190.55 208.2 190.55 208.2 194.87 206.49 194.87 206.49 192.6 197.71 192.6 197.71 194.87 194.87 194.87 194.87 234.56 197.71 234.56 197.71 236.83 206.49 236.83 206.49 234.56 208.2 234.56 208.2 238.88 195.53 238.88 195.53 243.77 192.75 243.77 192.75 253.13 195.53 253.13 195.53 258.01 213.3 258.01 213.3 260.35 221.24 260.35 221.24 258.01 230.39 258.01 230.39 253.13 233 253.13 233 243.77 230.39 243.77 230.39 238.88 221.24 238.88 221.24 234.56 222.94 234.56 222.94 236.83 231.72 236.83 231.72 234.56 234.56 234.56 234.56 194.87 231.72 194.87 231.72 192.6 222.94 192.6 222.94 194.87 221.24 194.87 221.24 190.55 230.39 190.55 230.39 185.66 233 185.66 233 176.31 230.39 176.31 230.39 171.42 221.24 171.42 221.24 169.08 213.3 169.08"/><polygon class="cls-1" points="140.87 167.87 140.87 170.71 138.6 170.71 138.6 179.5 140.87 179.5 140.87 195.94 138.6 195.94 138.6 204.72 140.87 204.72 140.87 207.56 180.56 207.56 180.56 204.72 182.83 204.72 182.83 195.94 180.56 195.94 180.56 179.5 182.83 179.5 182.83 170.71 180.56 170.71 180.56 167.87 140.87 167.87"/><polygon class="cls-1" points="86.87 167.87 86.87 170.71 84.61 170.71 84.61 179.5 86.87 179.5 86.87 195.94 84.61 195.94 84.61 204.72 86.87 204.72 86.87 207.56 126.56 207.56 126.56 204.72 128.83 204.72 128.83 195.94 126.56 195.94 126.56 179.5 128.83 179.5 128.83 170.71 126.56 170.71 126.56 167.87 86.87 167.87"/><polygon class="cls-1" points="32.87 167.87 32.87 170.71 30.6 170.71 30.6 179.5 32.87 179.5 32.87 195.94 30.6 195.94 30.6 204.72 32.87 204.72 32.87 207.56 72.56 207.56 72.56 204.72 74.83 204.72 74.83 195.94 72.56 195.94 72.56 179.5 74.83 179.5 74.83 170.71 72.56 170.71 72.56 167.87 32.87 167.87"/><polygon class="cls-1" points="194.87 113.87 194.87 116.71 192.6 116.71 192.6 125.5 194.87 125.5 194.87 141.94 192.6 141.94 192.6 150.72 194.87 150.72 194.87 153.56 234.56 153.56 234.56 150.72 236.83 150.72 236.83 141.94 234.56 141.94 234.56 125.5 236.83 125.5 236.83 116.71 234.56 116.71 234.56 113.87 194.87 113.87"/><polygon class="cls-1" points="140.87 113.87 140.87 116.71 138.6 116.71 138.6 125.5 140.87 125.5 140.87 141.94 138.6 141.94 138.6 150.72 140.87 150.72 140.87 153.56 180.56 153.56 180.56 150.72 182.83 150.72 182.83 141.94 180.56 141.94 180.56 125.5 182.83 125.5 182.83 116.71 180.56 116.71 180.56 113.87 140.87 113.87"/><polygon class="cls-1" points="86.87 113.87 86.87 116.71 84.61 116.71 84.61 125.5 86.87 125.5 86.87 141.94 84.61 141.94 84.61 150.72 86.87 150.72 86.87 153.56 126.56 153.56 126.56 150.72 128.83 150.72 128.83 141.94 126.56 141.94 126.56 125.5 128.83 125.5 128.83 116.71 126.56 116.71 126.56 113.87 86.87 113.87"/><polygon class="cls-1" points="32.87 113.87 32.87 116.71 30.6 116.71 30.6 125.5 32.87 125.5 32.87 141.94 30.6 141.94 30.6 150.72 32.87 150.72 32.87 153.56 72.56 153.56 72.56 150.72 74.83 150.72 74.83 141.94 72.56 141.94 72.56 125.5 74.83 125.5 74.83 116.71 72.56 116.71 72.56 113.87 32.87 113.87"/><polygon class="cls-1" points="194.87 32.87 194.87 35.71 192.6 35.71 192.6 44.49 194.87 44.49 194.87 60.93 192.6 60.93 192.6 69.72 194.87 69.72 194.87 72.56 234.56 72.56 234.56 69.72 236.83 69.72 236.83 60.93 234.56 60.93 234.56 44.49 236.83 44.49 236.83 35.71 234.56 35.71 234.56 32.87 194.87 32.87"/><polygon class="cls-1" points="140.87 32.87 140.87 35.71 138.6 35.71 138.6 44.49 140.87 44.49 140.87 60.93 138.6 60.93 138.6 69.72 140.87 69.72 140.87 72.56 180.56 72.56 180.56 69.72 182.83 69.72 182.83 60.93 180.56 60.93 180.56 44.49 182.83 44.49 182.83 35.71 180.56 35.71 180.56 32.87 140.87 32.87"/><polygon class="cls-1" points="86.87 32.87 86.87 35.71 84.61 35.71 84.61 44.49 86.87 44.49 86.87 60.93 84.61 60.93 84.61 69.72 86.87 69.72 86.87 72.56 126.56 72.56 126.56 69.72 128.83 69.72 128.83 60.93 126.56 60.93 126.56 44.49 128.83 44.49 128.83 35.71 126.56 35.71 126.56 32.87 86.87 32.87"/><polygon class="cls-1" points="32.87 32.87 32.87 35.71 30.6 35.71 30.6 44.49 32.87 44.49 32.87 60.93 30.6 60.93 30.6 69.72 32.87 69.72 32.87 72.56 72.56 72.56 72.56 69.72 74.83 69.72 74.83 60.93 72.56 60.93 72.56 44.49 74.83 44.49 74.83 35.71 72.56 35.71 72.56 32.87 32.87 32.87"/><polygon class="cls-2" points="258.73 5.6 250.23 5.6 245.98 12.96 250.23 20.33 258.73 20.33 262.99 12.96 258.73 5.6"/><polygon class="cls-2" points="258.72 5.61 250.22 5.61 245.97 12.97 250.22 20.34 258.72 20.34 262.97 12.97 258.72 5.61"/><polygon class="cls-2" points="258.74 382.11 250.24 382.11 245.98 389.48 250.24 396.84 258.74 396.84 262.99 389.48 258.74 382.11"/><polygon class="cls-2" points="258.73 382.12 250.22 382.12 245.97 389.49 250.22 396.85 258.73 396.85 262.98 389.49 258.73 382.12"/><polygon class="cls-2" points="17.21 5.61 8.71 5.61 4.45 12.97 8.71 20.34 17.21 20.34 21.46 12.97 17.21 5.61"/><polygon class="cls-2" points="17.2 5.61 8.69 5.61 4.44 12.98 8.69 20.34 17.2 20.34 21.45 12.98 17.2 5.61"/><polygon class="cls-2" points="17.21 382.12 8.71 382.12 4.46 389.49 8.71 396.85 17.21 396.85 21.47 389.49 17.21 382.12"/><polygon class="cls-2" points="17.2 382.13 8.7 382.13 4.45 389.49 8.7 396.86 17.2 396.86 21.45 389.49 17.2 382.13"/></svg>