<svg id="Layer_7" data-name="Layer 7" xmlns="http://www.w3.org/2000/svg" viewBox="0 0 1840.76 773.29"><defs><style>.cls-1,.cls-2,.cls-4{fill:none;}.cls-1,.cls-2{stroke:#010101;stroke-miterlimit:11.34;}.cls-1{stroke-width:0.4px;}.cls-2{stroke-width:0.4px;}.cls-3{fill:#fff;}.cls-3,.cls-4{stroke:#231f20;stroke-miterlimit:10;stroke-width:0.4px;}</style></defs><path class="cls-1" d="M347.52,519.39l-17-.06v17H322v-17h-8.51v17h-216v-351h216v17H322v-17h8.51v17h17v-8.5H339l0-21.28a12.79,12.79,0,0,0-12.76-12.76H84.75a13,13,0,0,0-8.83,3.54A12.2,12.2,0,0,0,72,172.57c0,1.42-.11,348.29,0,376.52a12.72,12.72,0,0,0,12.75,12.75H326.27a13.31,13.31,0,0,0,9.66-4.43,13.11,13.11,0,0,0,3.1-8.32l0-21.25h8.51Z" transform="translate(-71.75 -10.01)"/><path class="cls-1" d="M365.77,549.09a12.74,12.74,0,0,0,12.76,12.75H1389.64a13.34,13.34,0,0,0,9.67-4.43,13.14,13.14,0,0,0,3.09-8.32V527.83h-8.5v8.5h-8.51v-17h-8.51v17H391.29" transform="translate(-71.75 -10.01)"/><path class="cls-1" d="M693.14,185.33h683.74v17h8.51v-17h8.51v8.52h8.5V172.57a12.79,12.79,0,0,0-12.76-12.76c-80.51,0-243.75.06-324.26.06" transform="translate(-71.75 -10.01)"/><path class="cls-1" d="M1402.35,549.15a13,13,0,0,1-3.49,8.77,13.17,13.17,0,0,1-9.27,4H378.48a13.38,13.38,0,0,1-9.66-4.44,13.08,13.08,0,0,1-3.09-8.32V527.9h8.49v8.49h8.52v-17h8.5v17h985.59" transform="translate(-71.75 -10.01)"/><path class="cls-1" d="M417.58,176.92l0,8.5H391.23v17h-8.51v-17h-8.51v8.52h-8.49V172.64a13,13,0,0,1,3.47-8.75,13.18,13.18,0,0,1,9.28-4l39.12-.06" transform="translate(-71.75 -10.01)"/><path class="cls-2" d="M1420.64,519.41l17,0v17h8.51v-17h8.51v17h432.08v-351H1454.66v17h-8.51v-17h-8.51v17h-17v-8.49h8.5V172.64a12.76,12.76,0,0,1,12.76-12.76h457.6a13,13,0,0,1,8.83,3.54,12.2,12.2,0,0,1,3.93,9.22c0,1.42.1,348.29,0,376.51a12.74,12.74,0,0,1-12.76,12.76H1441.9a13.37,13.37,0,0,1-9.67-4.44,13,13,0,0,1-3.09-8.32V527.91h-8.51Z" transform="translate(-71.75 -10.01)"/><path class="cls-3" d="M702.87,159.92" transform="translate(-71.75 -10.01)"/><path class="cls-3" d="M702.87,185.42" transform="translate(-71.75 -10.01)"/><polyline class="cls-1" points="614.3 149.9 631.12 149.8 631.12 171.76 656.62 171.76 656.62 149.8 968.14 149.86 968.14 171.82 993.64 171.82 993.64 149.86"/><path class="cls-1" d="M686,185.4" transform="translate(-71.75 -10.01)"/><polygon class="cls-1" points="1383.04 256.31 1815.04 256.31 1815.04 526.39 1382.96 526.39 1383.04 256.31"/><polyline class="cls-1" points="614.3 175.39 621.39 175.39 621.39 175.32"/><polyline class="cls-4" points="631.12 175.4 604.91 175.4 604.91 166.92 613.43 166.89 613.42 158.36 604.91 158.38 604.91 149.89 631.12 149.89"/><polyline class="cls-1" points="345.84 149.86 345.84 158.35 337.33 158.36 337.35 166.9 345.83 166.91"/><line class="cls-1" x1="1305.13" y1="120.67" x2="656.63" y2="120.67"/><line class="cls-1" x1="656.63" y1="25.72" x2="1305.13" y2="25.72"/><path class="cls-1" d="M1402.36,113l0,30.48a12.76,12.76,0,0,1-12.76,12.76H1065.38v-8.3h8.49v4.25h4.24v-17h-4.24v4.25h-42.49v-4.25h-4.26v17h4.25V147.9h8.51v8.29H728.37" transform="translate(-71.75 -10.01)"/><path class="cls-4" d="M1402.36,113" transform="translate(-71.75 -10.01)"/><polyline class="cls-4" points="656.62 102.92 656.63 120.67 1305.13 120.67 1305.13 102.94"/><polyline class="cls-4" points="656.62 146.17 656.63 137.88 665.11 137.88 665.11 142.12 669.36 142.12 669.36 125.13 665.11 125.13 665.11 129.38 656.63 129.38 648.13 120.68 648.13 112.2 652.37 112.2 652.37 107.95 635.37 107.95 635.37 112.2 639.63 112.2 639.63 120.68 631.12 120.68 631.12 102.92"/><path class="cls-4" d="M1402.39,53.43" transform="translate(-71.75 -10.01)"/><polyline class="cls-4" points="656.62 43.4 656.63 25.72 1305.13 25.72 1305.19 43.42"/><path class="cls-4" d="M1402.39,53.43V23a12.76,12.76,0,0,0-12.76-12.76h-674A12.76,12.76,0,0,0,702.87,23V53.41" transform="translate(-71.75 -10.01)"/><path class="cls-2" d="M339,783.1H72V580.38a12.75,12.75,0,0,1,12.76-12.75H326.26A12.75,12.75,0,0,1,339,580.38Z" transform="translate(-71.75 -10.01)"/><path class="cls-2" d="M1402.4,783.1H365.73V580.38a12.75,12.75,0,0,1,12.75-12.75H1389.64a12.76,12.76,0,0,1,12.76,12.75Z" transform="translate(-71.75 -10.01)"/><path class="cls-2" d="M1912.3,783.1H1429.23V580.38A12.75,12.75,0,0,1,1442,567.63h457.56a12.75,12.75,0,0,1,12.75,12.75Z" transform="translate(-71.75 -10.01)"/><polyline class="cls-4" points="631.12 43.4 631.12 51.87 639.64 51.87 639.64 43.38 648.15 43.38 648.15 51.87 656.62 51.87 656.62 43.4"/><polyline class="cls-4" points="656.62 102.89 656.62 94.42 648.1 94.42 648.1 102.91 639.59 102.91 639.59 94.42 631.12 94.42 631.12 102.89"/><polygon class="cls-4" points="311.12 155.19 302.62 155.19 298.36 162.56 302.62 169.92 311.12 169.92 315.37 162.56 311.12 155.19"/><polygon class="cls-4" points="311.14 531.7 302.63 531.7 298.38 539.06 302.63 546.43 311.14 546.43 315.39 539.06 311.14 531.7"/><polygon class="cls-4" points="311.12 531.71 302.62 531.71 298.37 539.07 302.62 546.44 311.12 546.44 315.38 539.07 311.12 531.71"/><polygon class="cls-4" points="311.12 562.97 302.62 562.97 298.37 570.34 302.62 577.7 311.12 577.7 315.37 570.34 311.12 562.97"/><polygon class="cls-4" points="311.11 562.98 302.61 562.98 298.35 570.35 302.61 577.71 311.11 577.71 315.36 570.35 311.11 562.98"/><polygon class="cls-4" points="258.77 155.19 250.27 155.19 246.02 162.56 250.27 169.92 258.77 169.92 263.03 162.56 258.77 155.19"/><polygon class="cls-4" points="258.76 155.2 250.26 155.2 246.01 162.56 250.26 169.93 258.76 169.93 263.01 162.56 258.76 155.2"/><polygon class="cls-4" points="258.78 531.71 250.28 531.71 246.03 539.07 250.28 546.44 258.78 546.44 263.03 539.07 258.78 531.71"/><polygon class="cls-4" points="258.77 531.71 250.26 531.71 246.01 539.08 250.26 546.44 258.77 546.44 263.02 539.08 258.77 531.71"/><polygon class="cls-4" points="258.77 562.98 250.26 562.98 246.01 570.35 250.26 577.71 258.77 577.71 263.02 570.35 258.77 562.98"/><polygon class="cls-4" points="258.75 562.99 250.25 562.99 246 570.35 250.25 577.72 258.75 577.72 263.01 570.35 258.75 562.99"/><polygon class="cls-4" points="17.25 155.2 8.75 155.2 4.49 162.56 8.75 169.93 17.25 169.93 21.5 162.56 17.25 155.2"/><polygon class="cls-4" points="17.24 155.21 8.73 155.21 4.48 162.57 8.73 169.94 17.24 169.94 21.49 162.57 17.24 155.21"/><polygon class="cls-4" points="17.26 531.71 8.75 531.71 4.5 539.08 8.75 546.44 17.26 546.44 21.51 539.08 17.26 531.71"/><polygon class="cls-4" points="17.24 531.72 8.74 531.72 4.49 539.09 8.74 546.45 17.24 546.45 21.5 539.09 17.24 531.72"/><polygon class="cls-4" points="17.24 562.99 8.74 562.99 4.49 570.35 8.74 577.72 17.24 577.72 21.49 570.35 17.24 562.99"/><polygon class="cls-4" points="17.23 563 8.73 563 4.47 570.36 8.73 577.73 17.23 577.73 21.48 570.36 17.23 563"/><polygon class="cls-4" points="648.13 531.7 639.63 531.7 635.38 539.06 639.63 546.43 648.13 546.43 652.38 539.06 648.13 531.7"/><polygon class="cls-4" points="648.12 531.71 639.62 531.71 635.36 539.07 639.62 546.43 648.12 546.43 652.37 539.07 648.12 531.71"/><polygon class="cls-4" points="648.12 562.97 639.61 562.97 635.36 570.34 639.61 577.7 648.12 577.7 652.37 570.34 648.12 562.97"/><polygon class="cls-4" points="648.11 562.98 639.6 562.98 635.35 570.35 639.6 577.71 648.11 577.71 652.36 570.35 648.11 562.98"/><polygon class="cls-4" points="648.13 5.62 639.63 5.62 635.37 12.98 639.63 20.35 648.13 20.35 652.38 12.98 648.13 5.62"/><polygon class="cls-4" points="648.12 5.63 639.61 5.63 635.36 12.99 639.61 20.36 648.12 20.36 652.37 12.99 648.12 5.63"/><polygon class="cls-4" points="1322.13 126.06 1313.62 126.06 1309.37 133.42 1313.62 140.79 1322.13 140.79 1326.38 133.42 1322.13 126.06"/><polygon class="cls-4" points="1322.12 126.07 1313.61 126.07 1309.36 133.43 1313.61 140.8 1322.12 140.8 1326.37 133.43 1322.12 126.07"/><polygon class="cls-4" points="1322.13 5.62 1313.63 5.62 1309.38 12.98 1313.63 20.34 1322.13 20.34 1326.38 12.98 1322.13 5.62"/><polygon class="cls-4" points="1322.12 5.62 1313.62 5.62 1309.36 12.99 1313.62 20.35 1322.12 20.35 1326.37 12.99 1322.12 5.62"/><polygon class="cls-4" points="985.13 531.7 976.63 531.7 972.38 539.07 976.63 546.43 985.13 546.43 989.38 539.07 985.13 531.7"/><polygon class="cls-4" points="985.12 562.98 976.62 562.98 972.37 570.34 976.62 577.71 985.12 577.71 989.38 570.34 985.12 562.98"/><polygon class="cls-4" points="1322.12 155.19 1313.61 155.19 1309.36 162.55 1313.61 169.92 1322.12 169.92 1326.37 162.55 1322.12 155.19"/><polygon class="cls-4" points="1322.14 531.7 1313.63 531.7 1309.38 539.07 1313.63 546.43 1322.14 546.43 1326.39 539.07 1322.14 531.7"/><polygon class="cls-4" points="1322.13 562.98 1313.63 562.98 1309.37 570.34 1313.63 577.71 1322.13 577.71 1326.38 570.34 1322.13 562.98"/><polygon class="cls-4" points="1374.49 155.27 1365.99 155.27 1361.74 162.64 1365.99 170 1374.49 170 1378.75 162.64 1374.49 155.27"/><polygon class="cls-4" points="1374.49 531.79 1365.99 531.79 1361.74 539.15 1365.99 546.52 1374.49 546.52 1378.75 539.15 1374.49 531.79"/><polygon class="cls-4" points="1374.49 563.06 1365.98 563.06 1361.73 570.43 1365.98 577.79 1374.49 577.79 1378.74 570.43 1374.49 563.06"/><polygon class="cls-4" points="1832.01 155.27 1823.51 155.27 1819.25 162.64 1823.51 170 1832.01 170 1836.26 162.64 1832.01 155.27"/><polygon class="cls-4" points="1832.01 531.79 1823.51 531.79 1819.25 539.15 1823.51 546.52 1832.01 546.52 1836.26 539.15 1832.01 531.79"/><polygon class="cls-4" points="1832 563.06 1823.5 563.06 1819.25 570.43 1823.5 577.79 1832 577.79 1836.25 570.43 1832 563.06"/><polyline class="cls-4" points="1322.14 43.43 1322.14 51.92 1330.62 51.92 1330.62 43.44"/><line class="cls-4" x1="1313.63" y1="43.43" x2="1322.14" y2="43.43"/><polyline class="cls-4" points="1305.11 43.44 1305.11 51.92 1313.63 51.92 1313.63 43.43"/><polyline class="cls-4" points="1313.59 102.96 1313.59 94.47 1305.11 94.47 1305.11 102.94"/><line class="cls-4" x1="1322.1" y1="102.96" x2="1313.58" y2="102.96"/><polyline class="cls-4" points="1330.62 102.94 1330.62 94.47 1322.1 94.47 1322.1 102.96"/></svg>