<svg id="Layer_1" data-name="Layer 1" xmlns="http://www.w3.org/2000/svg" viewBox="0 0 267.47 188.14"><defs><style>.cls-1,.cls-2{fill:none;}.cls-1{stroke:#010101;stroke-miterlimit:11.34;stroke-width:0.4px;}.cls-2{stroke:#231f20;stroke-miterlimit:10;stroke-width:0.4px;}</style></defs><path class="cls-1" d="M1125.43,519H858.36V344a12.76,12.76,0,0,1,12.76-12.76h241.55A12.76,12.76,0,0,1,1125.43,344Z" transform="translate(-858.16 -331.06)"/><polygon class="cls-2" points="258.77 5.57 250.26 5.57 246.01 12.93 250.26 20.3 258.77 20.3 263.02 12.93 258.77 5.57"/><polygon class="cls-2" points="258.75 5.58 250.25 5.58 246 12.94 250.25 20.31 258.75 20.31 263.01 12.94 258.75 5.58"/><polygon class="cls-2" points="17.24 5.58 8.74 5.58 4.49 12.94 8.74 20.31 17.24 20.31 21.49 12.94 17.24 5.58"/><polygon class="cls-2" points="17.23 5.58 8.73 5.58 4.47 12.95 8.73 20.31 17.23 20.31 21.48 12.95 17.23 5.58"/></svg>