<svg id="Layer_1" data-name="Layer 1" xmlns="http://www.w3.org/2000/svg" viewBox="0 0 275.97 402.44"><defs><style>.cls-1,.cls-2{fill:none;}.cls-1{stroke:#010101;stroke-miterlimit:11.34;stroke-width:0.4px;}.cls-2{stroke:#231f20;stroke-miterlimit:10;stroke-width:0.4px;}</style></defs><path class="cls-1" d="M1129.68,583.69l-17-.06v17h-8.51v-17h-8.5v17h-216v-351h216v17h8.5v-17h8.51v17h17v-8.5h-8.52l0-21.27a12.77,12.77,0,0,0-12.76-12.77H866.92a13.13,13.13,0,0,0-8.84,3.54,12.25,12.25,0,0,0-3.92,9.23c0,1.42-.11,348.28,0,376.51a12.74,12.74,0,0,0,12.76,12.76h241.51a13.37,13.37,0,0,0,9.67-4.44,13,13,0,0,0,3.09-8.32l0-21.25h8.51Z" transform="translate(-853.91 -223.91)"/><polygon class="cls-2" points="258.77 5.59 250.27 5.59 246.02 12.96 250.27 20.32 258.77 20.32 263.03 12.96 258.77 5.59"/><polygon class="cls-2" points="258.76 5.6 250.26 5.6 246.01 12.96 250.26 20.33 258.76 20.33 263.01 12.96 258.76 5.6"/><polygon class="cls-2" points="258.78 382.11 250.28 382.11 246.03 389.47 250.28 396.83 258.78 396.83 263.03 389.47 258.78 382.11"/><polygon class="cls-2" points="258.77 382.11 250.26 382.11 246.01 389.48 250.26 396.84 258.77 396.84 263.02 389.48 258.77 382.11"/><polygon class="cls-2" points="17.25 5.6 8.75 5.6 4.49 12.96 8.75 20.33 17.25 20.33 21.5 12.96 17.25 5.6"/><polygon class="cls-2" points="17.24 5.61 8.73 5.61 4.48 12.97 8.73 20.33 17.24 20.33 21.49 12.97 17.24 5.61"/><polygon class="cls-2" points="17.26 382.11 8.75 382.11 4.5 389.48 8.75 396.84 17.26 396.84 21.51 389.48 17.26 382.11"/><polygon class="cls-2" points="17.24 382.12 8.74 382.12 4.49 389.48 8.74 396.85 17.24 396.85 21.5 389.48 17.24 382.12"/></svg>