<svg xmlns="http://www.w3.org/2000/svg" viewBox="0 0 267.43 402.43"><defs><style>.cls-1,.cls-2,.cls-3{fill:none;}.cls-1{stroke:#010101;stroke-miterlimit:11.34;stroke-width:0.4px;}.cls-2{stroke:#000;stroke-miterlimit:11.34;}.cls-2,.cls-3{stroke-width:0.4px;}.cls-3{stroke:#231f20;stroke-miterlimit:10;}</style></defs><g id="Layer_2" data-name="Layer 2"><g id="Layer_2-2" data-name="Layer 2"><polygon class="cls-1" points="254.47 0.2 255.47 0.24 256.47 0.36 257.45 0.56 258.41 0.83 259.36 1.17 260.26 1.59 261.14 2.08 261.97 2.64 262.76 3.26 263.49 3.94 264.17 4.67 264.79 5.46 265.35 6.29 265.84 7.17 266.26 8.08 266.6 9.02 266.88 9.98 267.07 10.96 267.19 11.96 267.23 12.96 267.23 389.47 267.19 390.48 267.07 391.47 266.88 392.45 266.6 393.41 266.26 394.36 265.84 395.26 265.35 396.14 264.79 396.97 264.17 397.76 263.49 398.49 262.76 399.17 261.97 399.79 261.14 400.35 260.26 400.84 259.36 401.26 258.41 401.6 257.45 401.88 256.47 402.07 255.47 402.19 254.47 402.23 12.96 402.23 11.96 402.19 10.96 402.07 9.98 401.88 9.02 401.6 8.08 401.26 7.17 400.84 6.29 400.35 5.46 399.79 4.67 399.17 3.94 398.49 3.26 397.76 2.64 396.97 2.08 396.14 1.59 395.26 1.17 394.36 0.83 393.41 0.56 392.45 0.36 391.47 0.24 390.48 0.2 389.47 0.2 12.96 0.24 11.96 0.36 10.96 0.56 9.98 0.83 9.02 1.17 8.08 1.59 7.17 2.08 6.29 2.64 5.46 3.26 4.67 3.94 3.94 4.67 3.26 5.46 2.64 6.29 2.08 7.17 1.59 8.08 1.17 9.02 0.83 9.98 0.56 10.96 0.36 11.96 0.24 12.96 0.2 254.47 0.2"/><polygon class="cls-2" points="70.66 51.6 71.97 111.13 76.22 111.03 74.93 51.51 70.66 51.6"/><polygon class="cls-2" points="73.26 170.63 74.56 230.15 78.82 230.06 77.52 170.53 73.26 170.63"/><rect class="cls-2" x="163.49" y="138.7" width="59.54" height="4.26" transform="translate(48.25 330.97) rotate(-88.75)"/><polygon class="cls-2" points="75.86 289.65 77.16 349.18 81.42 349.09 80.12 289.56 75.86 289.65"/><rect class="cls-2" x="160.9" y="257.73" width="59.54" height="4.26" transform="translate(-73.29 444.8) rotate(-88.75)"/><polygon class="cls-3" points="258.73 5.6 250.23 5.6 245.98 12.96 250.23 20.33 258.73 20.33 262.99 12.96 258.73 5.6"/><polygon class="cls-3" points="258.72 5.61 250.22 5.61 245.97 12.97 250.22 20.34 258.72 20.34 262.97 12.97 258.72 5.61"/><polygon class="cls-3" points="258.74 382.11 250.24 382.11 245.98 389.48 250.24 396.84 258.74 396.84 262.99 389.48 258.74 382.11"/><polygon class="cls-3" points="258.73 382.12 250.22 382.12 245.97 389.49 250.22 396.85 258.73 396.85 262.98 389.49 258.73 382.12"/><polygon class="cls-3" points="17.21 5.61 8.71 5.61 4.45 12.97 8.71 20.34 17.21 20.34 21.46 12.97 17.21 5.61"/><polygon class="cls-3" points="17.2 5.61 8.69 5.61 4.44 12.98 8.69 20.34 17.2 20.34 21.45 12.98 17.2 5.61"/><polygon class="cls-3" points="17.21 382.12 8.71 382.12 4.46 389.49 8.71 396.85 17.21 396.85 21.47 389.49 17.21 382.12"/><polygon class="cls-3" points="17.2 382.13 8.7 382.13 4.45 389.49 8.7 396.86 17.2 396.86 21.45 389.49 17.2 382.13"/></g></g></svg>