<svg id="Layer_1" data-name="Layer 1" xmlns="http://www.w3.org/2000/svg" viewBox="0 0 42.91 351.37"><defs><style>.cls-1{fill:none;stroke:#000;stroke-miterlimit:11.34;stroke-width:0.4px;}</style></defs><polyline class="cls-1" points="42.71 0.2 42.71 351.17 25.72 351.17 25.72 334.15 17.2 334.15 17.2 351.17 0.2 351.17"/><polyline class="cls-1" points="0.2 351.17 0.2 0.2 17.2 0.2 17.2 17.22 25.72 17.22 25.72 0.2 42.71 0.2"/><polyline class="cls-1" points="36.78 122.49 36.72 122.42 36.08 121.78 35.19 121.33 34.2 121.17 33.21 121.33 32.32 121.78 31.68 122.42 31.62 122.48 31.61 122.49 31.16 123.38 31 124.37 31.16 125.35 31.61 126.24 31.62 126.25 32.32 126.95 33.21 127.41 34.2 127.56 35.19 127.41 36.08 126.95 36.78 126.24 37.24 125.35 37.39 124.37 37.24 123.38 36.78 122.49"/><polyline class="cls-1" points="31.61 330.34 31.62 330.34 32.32 331.05 33.04 331.41 33.21 331.5 34.2 331.66 35.19 331.5 35.36 331.41 36.08 331.05 36.78 330.34 37.24 329.45 37.39 328.46 37.24 327.47 36.78 326.58 36.08 325.87 35.19 325.42 34.2 325.26 33.21 325.42 32.32 325.87 31.62 326.58 31.61 326.58 31.16 327.47 31 328.46 31.16 329.45 31.61 330.34"/><polyline class="cls-1" points="36.78 24.2 37.02 23.73 37.24 23.31 37.39 22.32 37.24 21.33 36.78 20.44 36.08 19.73 35.19 19.28 34.2 19.13 33.21 19.28 32.32 19.73 31.61 20.44 31.16 21.33 31 22.32 31.16 23.31 31.38 23.73 31.61 24.2 32.32 24.91 33.21 25.36 34.2 25.52 35.19 25.36 36.08 24.91 36.78 24.2"/><polyline class="cls-1" points="32.32 53.75 31.62 54.45 31.61 54.46 31.16 55.35 31 56.34 31.16 57.32 31.61 58.22 31.62 58.22 31.96 58.56 32.32 58.92 33.21 59.37 34.2 59.53 35.19 59.37 36.08 58.92 36.44 58.56 36.78 58.22 37.24 57.32 37.39 56.34 37.24 55.35 36.78 54.46 36.08 53.75 35.19 53.3 34.2 53.14 33.21 53.3 32.32 53.75"/><polyline class="cls-1" points="31.05 192.08 31 192.4 31.16 193.38 31.61 194.28 32.32 194.98 33.21 195.44 34.2 195.59 35.19 195.44 36.08 194.98 36.78 194.28 37.24 193.38 37.39 192.4 37.34 192.08 37.24 191.41 36.78 190.52 36.08 189.81 35.19 189.36 34.2 189.2 33.21 189.36 32.32 189.81 31.61 190.52 31.16 191.41 31.05 192.08"/><polyline class="cls-1" points="33.21 229.45 34.2 229.61 35.19 229.45 36.08 229 36.78 228.29 37.24 227.4 37.31 226.92 37.39 226.41 37.24 225.43 36.78 224.53 36.08 223.83 35.19 223.37 34.2 223.22 33.21 223.37 32.32 223.83 31.61 224.53 31.16 225.43 31 226.41 31.08 226.92 31.16 227.4 31.61 228.29 32.32 229 33.21 229.45"/><polyline class="cls-1" points="36.08 87.77 35.73 87.59 35.19 87.31 34.2 87.15 33.21 87.31 32.67 87.59 32.32 87.77 31.62 88.47 31.61 88.47 31.16 89.36 31 90.35 31.16 91.34 31.61 92.23 31.62 92.24 32.32 92.94 33.21 93.39 34.2 93.55 35.19 93.39 36.08 92.94 36.78 92.23 37.24 91.34 37.39 90.35 37.24 89.36 36.78 88.47 36.08 87.77"/><polyline class="cls-1" points="33.21 263.47 34.2 263.63 35.19 263.47 36.08 263.01 36.78 262.31 37.07 261.75 37.24 261.42 37.39 260.43 37.24 259.44 36.78 258.55 36.08 257.84 35.19 257.39 34.2 257.23 33.21 257.39 32.32 257.84 31.61 258.55 31.16 259.44 31 260.43 31.16 261.42 31.33 261.75 31.61 262.31 32.32 263.01 33.21 263.47"/><polyline class="cls-1" points="37.24 159.37 37.39 158.38 37.24 157.39 37.17 157.25 36.78 156.5 36.08 155.8 35.19 155.34 34.2 155.19 33.21 155.34 32.32 155.8 31.61 156.5 31.23 157.25 31.16 157.39 31 158.38 31.16 159.37 31.61 160.26 32.32 160.97 33.21 161.42 34.2 161.58 35.19 161.42 36.08 160.97 36.78 160.26 37.24 159.37"/><polyline class="cls-1" points="32.32 291.86 31.62 292.56 31.61 292.57 31.16 293.46 31 294.45 31.16 295.43 31.61 296.32 31.62 296.33 31.87 296.58 32.32 297.03 33.21 297.49 34.2 297.64 35.19 297.49 36.08 297.03 36.53 296.58 36.78 296.32 37.24 295.43 37.39 294.45 37.24 293.46 36.78 292.57 36.08 291.86 35.19 291.4 34.2 291.25 33.21 291.4 32.32 291.86"/></svg>