<svg id="Layer_1" data-name="Layer 1" xmlns="http://www.w3.org/2000/svg" viewBox="0 0 38.64 60.65"><defs><style>.cls-1,.cls-2{fill:none;}.cls-1{stroke:#010101;stroke-miterlimit:11.34;stroke-width:0.4px;}.cls-2{stroke:#231f20;stroke-miterlimit:10;stroke-width:0.4px;}</style></defs><polygon class="cls-1" points="25.7 60.45 0.2 60.45 0.2 12.93 8.71 12.93 8.71 4.45 4.45 4.45 4.45 0.2 21.45 0.2 21.45 4.45 17.21 4.45 17.21 12.93 25.71 21.63 34.19 21.63 34.19 17.37 38.44 17.37 38.44 34.37 34.19 34.37 34.19 30.13 25.71 30.13 25.7 60.45"/><polygon class="cls-2" points="17.12 43.79 8.62 43.79 4.36 51.16 8.62 58.52 17.12 58.52 21.37 51.16 17.12 43.79"/><polygon class="cls-2" points="17.12 18.28 8.61 18.28 4.36 25.65 8.61 33.01 17.12 33.01 21.37 25.65 17.12 18.28"/></svg>