<svg id="Layer_1" data-name="Layer 1" xmlns="http://www.w3.org/2000/svg" viewBox="0 0 483.47 275.6"><defs><style>.cls-1,.cls-2{fill:none;}.cls-1{stroke:#010101;stroke-miterlimit:11.34;stroke-width:0.4px;}.cls-2{stroke:#231f20;stroke-miterlimit:10;stroke-width:0.4px;}</style></defs><path class="cls-1" d="M1229.19,562.73H754.6l0-55.47h15.59V503l-19.86,0V300.29a12.76,12.76,0,0,1,12.76-12.76h457.55a12.76,12.76,0,0,1,12.76,12.76V503l-19.86,0v4.25h15.59Z" transform="translate(-750.16 -287.33)"/><polygon class="cls-2" points="17.2 5.65 8.7 5.65 4.45 13.02 8.7 20.38 17.2 20.38 21.45 13.02 17.2 5.65"/><polygon class="cls-2" points="474.72 5.65 466.21 5.65 461.96 13.02 466.21 20.38 474.72 20.38 478.97 13.02 474.72 5.65"/></svg>