<svg id="Layer_1" data-name="Layer 1" xmlns="http://www.w3.org/2000/svg" viewBox="0 0 483.56 402.44"><defs><style>.cls-1,.cls-2{fill:none;}.cls-1{stroke:#010101;stroke-miterlimit:11.34;stroke-width:0.4px;}.cls-2{stroke:#231f20;stroke-miterlimit:10;stroke-width:0.4px;}</style></defs><polygon class="cls-1" points="8.7 359.72 8.7 376.72 17.21 376.72 17.21 359.72 25.71 359.72 25.71 376.72 457.8 376.72 457.8 25.72 25.71 25.72 25.71 42.72 17.21 42.72 17.21 25.72 8.7 25.72 8.7 42.74 8.7 359.72"/><path class="cls-1" d="M750.33,592.15v21.24a13,13,0,0,0,3.09,8.32,13.34,13.34,0,0,0,9.66,4.44h457.6a12.74,12.74,0,0,0,12.76-12.76c.1-28.23,0-375.09,0-376.51a12.23,12.23,0,0,0-3.93-9.23,13.09,13.09,0,0,0-8.83-3.54H763.07a12.77,12.77,0,0,0-12.75,12.77V592.15Z" transform="translate(-750.11 -223.91)"/><polygon class="cls-2" points="17.3 5.61 8.8 5.61 4.54 12.98 8.8 20.34 17.3 20.34 21.55 12.98 17.3 5.61"/><polygon class="cls-2" points="17.3 382.13 8.8 382.13 4.54 389.49 8.8 396.86 17.3 396.86 21.55 389.49 17.3 382.13"/><polygon class="cls-2" points="474.82 5.61 466.31 5.61 462.06 12.98 466.31 20.34 474.82 20.34 479.07 12.98 474.82 5.61"/><polygon class="cls-2" points="474.82 382.13 466.31 382.13 462.06 389.49 466.31 396.86 474.82 396.86 479.07 389.49 474.82 382.13"/></svg>