<svg id="Layer_1" data-name="Layer 1" xmlns="http://www.w3.org/2000/svg" viewBox="0 0 492.07 402.44"><defs><style>.cls-1,.cls-2,.cls-3{fill:none;}.cls-1{stroke:#010101;stroke-width:0.4px;}.cls-1,.cls-2{stroke-miterlimit:11.34;}.cls-2,.cls-3{stroke:#231f20;stroke-width:0.4px;}.cls-3{stroke-miterlimit:10;}</style></defs><path class="cls-1" d="M746.06,583.65l17,0v17h8.51v-17h8.5v17h432.09l0-270-17,0v-8.51h17V249.63H780.08v17h-8.5v-17h-8.51v17h-17v-8.49h8.51V236.88a13,13,0,0,1,3.47-8.75,13.18,13.18,0,0,1,9.28-4h457.6a13.13,13.13,0,0,1,8.84,3.54,12.25,12.25,0,0,1,3.92,9.23c0,1.42.11,348.28,0,376.51a12.74,12.74,0,0,1-12.76,12.76H767.32a13.34,13.34,0,0,1-9.66-4.44,13,13,0,0,1-3.09-8.32V592.15h-8.52Z" transform="translate(-745.86 -223.91)"/><rect class="cls-2" x="170.43" y="380.58" width="53.23" height="8.89"/><polygon class="cls-3" points="25.8 5.61 17.3 5.61 13.05 12.97 17.3 20.34 25.8 20.34 30.06 12.97 25.8 5.61"/><polygon class="cls-3" points="25.8 382.12 17.3 382.12 13.05 389.49 17.3 396.85 25.8 396.85 30.06 389.49 25.8 382.12"/><polygon class="cls-3" points="483.32 5.61 474.82 5.61 470.56 12.97 474.82 20.34 483.32 20.34 487.57 12.97 483.32 5.61"/><polygon class="cls-3" points="483.32 382.12 474.82 382.12 470.56 389.49 474.82 396.85 483.32 396.85 487.57 389.49 483.32 382.12"/></svg>