<svg id="Layer_1" data-name="Layer 1" xmlns="http://www.w3.org/2000/svg" viewBox="0 0 483.43 402.43"><defs><style>.cls-1,.cls-2,.cls-3,.cls-4{fill:none;}.cls-1,.cls-2{stroke:#010101;}.cls-1,.cls-2,.cls-3{stroke-miterlimit:11.34;}.cls-1{stroke-width:0.4px;}.cls-2{stroke-width:0.4px;}.cls-3,.cls-4{stroke:#231f20;stroke-width:0.4px;}.cls-4{stroke-miterlimit:10;}</style></defs><polygon class="cls-1" points="470.47 0.2 471.48 0.24 472.47 0.36 473.45 0.56 474.41 0.83 475.36 1.17 476.26 1.59 477.14 2.08 477.97 2.64 478.76 3.26 479.49 3.94 480.17 4.67 480.79 5.46 481.35 6.29 481.84 7.17 482.26 8.08 482.6 9.02 482.88 9.98 483.07 10.96 483.19 11.96 483.23 12.96 483.23 389.47 483.19 390.48 483.07 391.47 482.88 392.45 482.6 393.41 482.26 394.36 481.84 395.26 481.35 396.14 480.79 396.97 480.17 397.76 479.49 398.49 478.76 399.17 477.97 399.79 477.14 400.35 476.26 400.84 475.36 401.26 474.41 401.6 473.45 401.88 472.47 402.07 471.48 402.19 470.47 402.23 12.96 402.23 11.96 402.19 10.96 402.07 9.98 401.88 9.02 401.6 8.08 401.26 7.17 400.84 6.29 400.35 5.46 399.79 4.67 399.17 3.94 398.49 3.26 397.76 2.64 396.97 2.08 396.14 1.59 395.26 1.17 394.36 0.83 393.41 0.56 392.45 0.36 391.47 0.24 390.48 0.2 389.47 0.2 12.96 0.24 11.96 0.36 10.96 0.56 9.98 0.83 9.02 1.17 8.08 1.59 7.17 2.08 6.29 2.64 5.46 3.26 4.67 3.94 3.94 4.67 3.26 5.46 2.64 6.29 2.08 7.17 1.59 8.08 1.17 9.02 0.83 9.98 0.56 10.96 0.36 11.96 0.24 12.96 0.2 470.47 0.2"/><polygon class="cls-2" points="410.87 32.87 410.87 35.71 408.61 35.71 408.61 44.49 410.87 44.49 410.87 60.93 408.61 60.93 408.61 69.72 410.87 69.72 410.87 72.56 450.56 72.56 450.56 69.72 452.83 69.72 452.83 60.93 450.56 60.93 450.56 44.49 452.83 44.49 452.83 35.71 450.56 35.71 450.56 32.87 410.87 32.87"/><polygon class="cls-2" points="302.87 32.87 302.87 35.71 300.61 35.71 300.61 44.49 302.87 44.49 302.87 60.93 300.61 60.93 300.61 69.72 302.87 69.72 302.87 72.56 342.56 72.56 342.56 69.72 344.83 69.72 344.83 60.93 342.56 60.93 342.56 44.49 344.83 44.49 344.83 35.71 342.56 35.71 342.56 32.87 302.87 32.87"/><polygon class="cls-2" points="140.87 32.87 140.87 35.71 138.6 35.71 138.6 44.49 140.87 44.49 140.87 60.93 138.6 60.93 138.6 69.72 140.87 69.72 140.87 72.56 180.56 72.56 180.56 69.72 182.83 69.72 182.83 60.93 180.56 60.93 180.56 44.49 182.83 44.49 182.83 35.71 180.56 35.71 180.56 32.87 140.87 32.87"/><polygon class="cls-2" points="86.87 32.87 86.87 35.71 84.61 35.71 84.61 44.49 86.87 44.49 86.87 60.93 84.61 60.93 84.61 69.72 86.87 69.72 86.87 72.56 126.56 72.56 126.56 69.72 128.83 69.72 128.83 60.93 126.56 60.93 126.56 44.49 128.83 44.49 128.83 35.71 126.56 35.71 126.56 32.87 86.87 32.87"/><polygon class="cls-2" points="32.87 32.87 32.87 35.71 30.6 35.71 30.6 44.49 32.87 44.49 32.87 60.93 30.6 60.93 30.6 69.72 32.87 69.72 32.87 72.56 72.56 72.56 72.56 69.72 74.83 69.72 74.83 60.93 72.56 60.93 72.56 44.49 74.83 44.49 74.83 35.71 72.56 35.71 72.56 32.87 32.87 32.87"/><rect class="cls-2" x="25.62" y="106.63" width="432.1" height="270.08"/><rect class="cls-3" x="161.84" y="380.57" width="53.23" height="8.89"/><polygon class="cls-4" points="17.21 5.59 8.71 5.59 4.45 12.96 8.71 20.32 17.21 20.32 21.46 12.96 17.21 5.59"/><polygon class="cls-4" points="17.21 382.11 8.71 382.11 4.45 389.47 8.71 396.84 17.21 396.84 21.46 389.47 17.21 382.11"/><polygon class="cls-4" points="474.73 5.59 466.22 5.59 461.97 12.96 466.22 20.32 474.73 20.32 478.98 12.96 474.73 5.59"/><polygon class="cls-4" points="474.73 382.11 466.22 382.11 461.97 389.47 466.22 396.84 474.73 396.84 478.98 389.47 474.73 382.11"/></svg>